<?xml version="1.0" encoding="UTF-8"?>
<!DOCTYPE svg PUBLIC "-//W3C//DTD SVG 1.1//EN" "http://www.w3.org/Graphics/SVG/1.1/DTD/svg11.dtd">
<!-- Creator: CorelDRAW 2018 (64 Bit Versión de evaluación) -->
<svg xmlns="http://www.w3.org/2000/svg" xml:space="preserve" width="16.9332mm" height="3.5558mm" version="1.1" style="shape-rendering:geometricPrecision; text-rendering:geometricPrecision; image-rendering:optimizeQuality; fill-rule:evenodd; clip-rule:evenodd"
viewBox="0 0 1693.32 355.58"
 xmlns:xlink="http://www.w3.org/1999/xlink">
 <defs>
  <style type="text/css">
   <![CDATA[
    .fil0 {fill:#D81E05}
   ]]>
  </style>
 </defs>
 <g id="Capa_x0020_1">
  <metadata id="CorelCorpID_0Corel-Layer"/>
  <g id="_2329175583536">
   <g>
    <path class="fil0" d="M177.97 -0.19c98.29,0 177.97,79.69 177.97,177.98 0,98.3 -79.68,177.98 -177.97,177.98 -98.29,0 -177.97,-79.68 -177.97,-177.98 0,-98.29 79.68,-177.98 177.97,-177.98zm0 16.96l0 0c-88.93,0 -161.02,72.09 -161.02,161.02 0,88.93 72.09,161.03 161.02,161.03 88.93,0 161.02,-72.1 161.02,-161.03 0,-88.93 -72.09,-161.02 -161.02,-161.02z"/>
    <path class="fil0" d="M186.71 212.3l0 54.54 -17.46 0 0 -54.54c-8.34,-0.01 -19.23,-0.04 -23.35,-0.19l-57.9 0.14c-4.9,0.25 -9.95,-0.87 -14.48,-3.49 -8.8,-5.08 -13.53,-14.45 -13.15,-23.88 0.01,-1.41 0.16,-2.62 0.33,-3.59 2.06,-11.54 6.12,-22.91 12.3,-33.6 6.2,-10.74 14.06,-19.99 23.08,-27.56 6.06,-4.47 14.54,-6.72 22.34,-5.35 2.2,-7.44 7.38,-13.6 14.11,-17.11 1.28,-0.73 2.48,-1.24 3.47,-1.59 13.12,-4.75 27.26,-7.33 41.97,-7.33 14.79,0 29,2.6 42.18,7.4 7.59,3.3 14.35,10.19 17.18,18.42 7.46,-1.71 15.16,-0.05 21.23,4.56 9.02,7.58 18.18,17.82 24.39,28.56 6.17,10.69 10.23,22.06 12.29,33.6 0.17,0.97 0.32,2.18 0.33,3.59 0.39,9.43 -4.35,18.8 -13.15,23.88 -4.53,2.62 -9.57,3.74 -14.48,3.49l-57.9 -0.14c-4.11,0.15 -14.99,0.18 -23.33,0.19zm61.64 -79.02l0 0c-2.76,-2.09 -6.62,-2.45 -9.81,-0.61 -1.67,0.96 -2.91,2.39 -3.65,4.03l-29.34 51.11c-0.89,1.35 -1,3.15 -0.14,4.65 0.88,1.53 2.55,2.33 4.2,2.18l58.9 0.15c1.75,0.16 3.56,-0.21 5.19,-1.15 3.07,-1.77 4.68,-5.11 4.41,-8.43 0.02,-0.23 0,-0.51 -0.06,-0.85 -1.71,-9.59 -5.08,-19.03 -10.22,-27.94 -5.17,-8.96 -11.71,-16.63 -19.2,-22.92 -0.1,-0.08 -0.2,-0.15 -0.28,-0.22zm-140.75 0l0 0c-0.09,0.07 -0.19,0.14 -0.29,0.22 -7.49,6.29 -14.02,13.96 -19.19,22.92 -5.14,8.91 -8.52,18.35 -10.23,27.94 -0.06,0.34 -0.07,0.62 -0.05,0.85 -0.28,3.32 1.33,6.66 4.4,8.43 1.64,0.94 3.44,1.31 5.19,1.15l58.9 -0.15c1.65,0.15 3.32,-0.65 4.2,-2.18 0.86,-1.5 0.75,-3.3 -0.14,-4.65l-29.33 -51.11c-0.75,-1.64 -1.98,-3.07 -3.66,-4.03 -3.19,-1.84 -7.04,-1.48 -9.8,0.61zm107 -20.56l0 0c-0.13,-0.05 -0.27,-0.11 -0.42,-0.17 -11.3,-4.11 -23.49,-6.34 -36.21,-6.34 -12.65,0 -24.78,2.21 -36.04,6.29 -0.4,0.14 -0.71,0.3 -0.94,0.46 -3.71,1.75 -6.27,5.51 -6.27,9.88 0,2.32 0.72,4.46 1.96,6.23l36.38 62.64c0.86,1.85 2.74,3.13 4.91,3.13 2.13,0 3.97,-1.23 4.86,-3.01l36.39 -62.66c1.3,-1.8 2.06,-4 2.06,-6.38 0,-4.53 -2.76,-8.41 -6.68,-10.07z"/>
    <polygon class="fil0" points="510.65,84.6 554.11,173.58 597.58,84.6 663.3,84.6 663.3,262.58 597.58,262.58 597.58,173.58 554.11,262.57 510.65,173.58 510.65,262.57 444.93,262.57 444.93,84.6 "/>
    <path class="fil0" d="M793.56 111.25l-26.68 92.91 53.37 0 -26.69 -92.91zm-109.18 151.33l0 0 51.12 -177.98 116.13 0 51.11 177.98 -65.72 0 -8.39 -29.21 -70.14 0 -8.39 29.21 -65.72 0z"/>
    <path class="fil0" d="M1004.77 105.06c14.81,0 29.2,7.92 29.2,24.05 0,16.13 -12.69,29.2 -29.2,29.2l-14.26 0 0 -53.25 14.26 0zm41.91 -20.38l0 0 -122.99 0 0 177.9 65.71 0 0 -74.14 57.28 0c28.66,0 51.88,-23.23 51.88,-51.88 0,-28.65 -23.22,-51.88 -51.88,-51.88z"/>
    <polygon class="fil0" points="1121.36,84.6 1296.07,84.6 1296.07,113.8 1187.07,113.8 1187.07,159.06 1296.07,159.06 1296.07,188.27 1187.07,188.27 1187.07,262.58 1121.36,262.58 "/>
    <polygon class="fil0" points="1584.31,233.36 1693.32,233.36 1693.32,262.57 1518.59,262.57 1518.59,84.59 1693.32,84.59 1693.32,113.8 1584.31,113.8 1584.31,159.06 1693.32,159.06 1693.32,188.27 1584.31,188.27 "/>
    <path class="fil0" d="M1400.12 105.08c14.44,0 29.21,7.92 29.21,24.05 0,16.13 -13.07,29.2 -29.21,29.2l-14.24 0 0 -53.25 14.24 0zm93.8 111.55l0 0 0 1.46c0,-0.49 0.01,-0.97 0,-1.46zm0 1.46l0 0c0,-0.49 0.01,-0.97 0,-1.46 -0.78,-23.89 -20.41,-43.02 -44.48,-43.02 24.56,0 44.48,-19.91 44.48,-44.48 0,-24.57 -19.92,-44.48 -44.48,-44.48l-57.38 0 -73 0 0 88.96 0 88.97 66.82 -0.01 0 -73.68 14.24 0c16.11,0 29.21,13.08 29.21,29.2 0,0.48 -0.02,0.96 -0.04,1.43l0 43.05 20.15 0 44.48 0 0 -44.48z"/>
   </g>
  </g>
 </g>
</svg>
