<?xml version="1.0" encoding="UTF-8"?>
<!DOCTYPE svg PUBLIC "-//W3C//DTD SVG 1.1//EN" "http://www.w3.org/Graphics/SVG/1.1/DTD/svg11.dtd">
<!-- Creator: CorelDRAW 2018 (64 Bit Versión de evaluación) -->
<svg xmlns="http://www.w3.org/2000/svg" xml:space="preserve" width="16.9332mm" height="3.6406mm" version="1.1" style="shape-rendering:geometricPrecision; text-rendering:geometricPrecision; image-rendering:optimizeQuality; fill-rule:evenodd; clip-rule:evenodd"
viewBox="0 0 1693.32 364.06"
 xmlns:xlink="http://www.w3.org/1999/xlink">
 <defs>
  <style type="text/css">
   <![CDATA[
    .fil7 {fill:#00A7DB;fill-rule:nonzero}
    .fil1 {fill:url(#id0)}
    .fil5 {fill:url(#id1)}
    .fil3 {fill:url(#id2)}
    .fil0 {fill:url(#id3)}
    .fil2 {fill:url(#id4)}
    .fil4 {fill:url(#id5)}
    .fil10 {fill:url(#id6);fill-rule:nonzero}
    .fil9 {fill:url(#id7);fill-rule:nonzero}
    .fil6 {fill:url(#id8);fill-rule:nonzero}
    .fil8 {fill:url(#id9);fill-rule:nonzero}
   ]]>
  </style>
  <radialGradient id="id0" gradientUnits="userSpaceOnUse" gradientTransform="matrix(2.0478 -0 -0 2.04779 -12926 8914)" cx="12336.23" cy="-8507.72" r="7212.68" fx="12336.23" fy="-8507.72">
   <stop offset="0" style="stop-opacity:1; stop-color:black"/>
   <stop offset="0.509804" style="stop-opacity:1; stop-color:black"/>
   <stop offset="0.768627" style="stop-opacity:1; stop-color:black"/>
   <stop offset="1" style="stop-opacity:1; stop-color:black"/>
  </radialGradient>
  <radialGradient id="id1" gradientUnits="userSpaceOnUse" gradientTransform="matrix(2.0478 -0 -0 2.0478 -13088 8826)" xlink:href="#id0" cx="12490.55" cy="-8422.98" r="7212.7" fx="12490.55" fy="-8422.98">
  </radialGradient>
  <radialGradient id="id2" gradientUnits="userSpaceOnUse" gradientTransform="matrix(1.8164 -0 -0 1.8164 -12573 13643)" cx="15400.58" cy="-16710.92" r="5666.97" fx="15400.58" fy="-16710.92">
   <stop offset="0" style="stop-opacity:1; stop-color:#FEFEFE"/>
   <stop offset="0.419608" style="stop-opacity:1; stop-color:#201E1E"/>
   <stop offset="1" style="stop-opacity:1; stop-color:#201E1E"/>
  </radialGradient>
  <radialGradient id="id3" gradientUnits="userSpaceOnUse" gradientTransform="matrix(1.92382 -0 -0 1.92382 -5315 15902)" cx="5753.75" cy="-17213.56" r="1114.51" fx="5753.75" fy="-17213.56">
   <stop offset="0" style="stop-opacity:1; stop-color:black"/>
   <stop offset="0.501961" style="stop-opacity:1; stop-color:black"/>
   <stop offset="1" style="stop-opacity:1; stop-color:black"/>
  </radialGradient>
  <radialGradient id="id4" gradientUnits="userSpaceOnUse" gradientTransform="matrix(1.9239 -0 -0 1.9239 -14393 17313)" xlink:href="#id3" cx="15578.98" cy="-18739.5" r="1231.38" fx="15578.98" fy="-18739.5">
  </radialGradient>
  <radialGradient id="id5" gradientUnits="userSpaceOnUse" gradientTransform="matrix(1.8164 -0 -0 1.8164 -12699 13574)" xlink:href="#id2" cx="15554.94" cy="-16626.21" r="5666.97" fx="15554.94" fy="-16626.21">
  </radialGradient>
  <radialGradient id="id6" gradientUnits="userSpaceOnUse" gradientTransform="matrix(1.01202 -0 -0 1.01206 -3 -1)" cx="242.76" cy="103.86" r="891.87" fx="242.76" fy="103.86">
   <stop offset="0" style="stop-opacity:1; stop-color:#F37135"/>
   <stop offset="0.690196" style="stop-opacity:1; stop-color:#F37135"/>
   <stop offset="0.921569" style="stop-opacity:1; stop-color:#AC552D"/>
   <stop offset="1" style="stop-opacity:1; stop-color:#6F3A24"/>
  </radialGradient>
  <radialGradient id="id7" gradientUnits="userSpaceOnUse" gradientTransform="matrix(2.0409 -0 -0 2.041 -187 15)" cx="179.18" cy="-14.48" r="5084.93" fx="179.18" fy="-14.48">
   <stop offset="0" style="stop-opacity:1; stop-color:#0DB261"/>
   <stop offset="0.501961" style="stop-opacity:1; stop-color:#0DB261"/>
   <stop offset="1" style="stop-opacity:1; stop-color:#185836"/>
  </radialGradient>
  <radialGradient id="id8" gradientUnits="userSpaceOnUse" gradientTransform="matrix(1.27917 -0 -0 1.26704 -236 -49)" cx="846.66" cy="182.04" r="3.28" fx="846.66" fy="182.04">
   <stop offset="0" style="stop-opacity:1; stop-color:#258EC6"/>
   <stop offset="0.458824" style="stop-opacity:1; stop-color:#258EC6"/>
   <stop offset="0.819608" style="stop-opacity:1; stop-color:#2E6387"/>
   <stop offset="1" style="stop-opacity:1; stop-color:#29435A"/>
  </radialGradient>
  <radialGradient id="id9" gradientUnits="userSpaceOnUse" gradientTransform="matrix(1.34975 -0 -0 1.3498 -83 -50)" cx="238.12" cy="143.56" r="8160.98" fx="238.12" fy="143.56">
   <stop offset="0" style="stop-opacity:1; stop-color:#0082BA"/>
   <stop offset="0.458824" style="stop-opacity:1; stop-color:#0082BA"/>
   <stop offset="0.870588" style="stop-opacity:1; stop-color:#00618A"/>
   <stop offset="1" style="stop-opacity:1; stop-color:#00425C"/>
  </radialGradient>
 </defs>
<symbol id="Fm0-30-0" viewBox="4371.76 -17193.69 2229.02 1986.78">
 <path class="fil0" d="M5359.57 -15206.91c-122.7,-40.61 -211.74,-151.87 -221.9,-283.28l-0.46 -1.66c-10.23,-73.91 -15.41,-148.42 -15.41,-221.4 0,-354.09 112.85,-690.57 326.42,-973.04l2.01 -2.71c0.82,-1.13 1.66,-2.33 2.47,-3.42 1.03,-1.45 2.05,-2.76 3.04,-4.1l5.11 -6.7 0 0.53c167.04,-213.89 417.59,-336.48 688.87,-336.48 164.85,0 319.3,45.97 451.06,125.66 -258.58,-176.46 -570.72,-280.18 -907.41,-280.18 -364.03,0 -699.6,121.04 -969.4,324.45 -4.73,3.5 -9.35,6.95 -13.93,10.48 -4.38,3.42 -9,6.67 -13.37,10.09l0.67 0c-199.39,159.38 -325.58,393.74 -325.58,655.28 0,251.15 116.13,477.14 301.62,635.67l-0.84 0c194.09,168 428.62,290.45 687.03,350.81z"/>
</symbol>
<symbol id="Fm0-38-0" viewBox="4690.8 -21921.95 14425.35 14423.9">
 <path class="fil1" d="M5523.19 -17516.97c1821.21,-4618.67 5853.57,-5737.19 9742.52,-2727.68 386.22,330.55 766.62,673.66 1132.7,1039.71 346.43,346.25 676.06,703.22 992.75,1068.81l-0.92 -0.6c0.92,0.6 0.92,0.6 1.24,1.02 3068.43,3907.65 1962.04,7973.41 -2678.36,9803.73 -907.06,311.22 -1831.55,554.67 -2766.27,732.72 -4889.82,696.52 -7848.81,-2257.99 -7155.92,-7146.04 177.76,-935.78 420.83,-1862.71 732.26,-2771.67l0 0z"/>
</symbol>
<symbol id="Fm0-22-0" viewBox="14052.08 -18717.55 2462.75 2195.23">
 <path class="fil2" d="M15143.44 -16522.32c-135.61,-44.97 -233.86,-167.88 -245.15,-313.09l-0.53 -1.79c-11.29,-81.67 -17,-163.98 -17,-244.66 0,-391.19 124.71,-762.95 360.57,-1075.12l2.33 -3c0.92,-1.27 1.8,-2.54 2.72,-3.78 1.06,-1.55 2.22,-3.03 3.39,-4.55l5.6 -7.33 0 0.6c184.68,-236.37 461.44,-371.73 761.05,-371.73 182.28,0 352.82,50.73 498.41,138.86 -285.65,-195.02 -630.52,-309.64 -1002.53,-309.64 -402.27,0 -773,133.71 -1071.1,358.53 -5.19,3.78 -10.3,7.66 -15.35,11.54 -4.94,3.81 -9.95,7.3 -14.81,11.22l0.7 0c-220.24,176.03 -359.66,435.01 -359.66,723.93 0,277.43 128.38,527.09 333.24,702.31l-0.92 0c214.46,185.6 473.54,320.96 759.04,387.7l0 0z"/>
</symbol>
<symbol id="Fm1-39-0" viewBox="7240.16 -21635.96 11333.93 11193.27">
 <path class="fil3" d="M17346.92 -12467.81c1676.02,-1675.9 1633.19,-4006.39 -115.78,-6234.07l-1.02 -0.99 -1.45 -2.19c-251.92,-290.09 -508.99,-567.37 -765.28,-823.31 -254.81,-254.95 -532.69,-510.29 -872.1,-801.79 -2215.2,-1712.49 -4527.41,-1741.98 -6189.03,-80.3 -563.91,563.85 -1029.54,1304.12 -1381.83,2198.16 -237.31,693.78 -427.57,1412.49 -565.89,2138.08 -8.96,64.07 -16.9,128.56 -24.27,191.14l-8.54 -1.62 -8.15 45.75c-15.7,84.49 -30.51,169.16 -44.48,254.11l31.96 4.72c-6.49,74.26 -10.55,146.41 -13.72,218.48l-48.65 -6.53 -12.74 89.61c-10.4,71.4 -21.34,143.65 -29.98,216.11l83.25 10.05c-0.56,72.43 0,144.64 2.4,216.79l-108.58 -12.49 -9.25 81.52c-8.18,74.97 -16.12,150.39 -23.63,226.28l117.83 10.26c5.99,-74.36 14.88,-149.33 22.82,-223.87l2.54 -26.11c48.58,1272.9 468,2349.29 1226.61,3108.15 1005.59,1003.51 2569.74,1413.62 4403.44,1152.32 725.74,-138.54 1442.65,-328.37 2134.52,-565.26 896.2,-354.01 1634.7,-818.48 2199,-1383l0 0z"/>
</symbol>
<symbol id="Fm2-46-0" viewBox="7394.5 -21551.29 11333.94 11193.35">
 <path class="fil4" d="M17501.26 -12383.14c1676.02,-1675.83 1633.19,-4006.39 -115.71,-6234.08l-1.02 -0.91 -1.45 -2.3c-251.92,-290.05 -509.13,-567.3 -765.42,-823.24 -254.67,-254.95 -532.62,-510.33 -872.1,-801.76 -2215.13,-1712.56 -4527.34,-1742.01 -6189.03,-80.43 -563.84,563.88 -1029.54,1304.18 -1381.76,2198.26 -237.24,693.78 -427.64,1412.42 -565.82,2138.08 -9.03,64.1 -16.9,128.56 -24.41,191.14l-8.47 -1.59 -8.15 45.69c-15.7,84.59 -30.65,169.15 -44.48,254.1l31.96 4.73c-6.56,74.37 -10.48,146.44 -13.79,218.48l-48.65 -6.53 -12.74 89.68c-10.33,71.36 -21.34,143.65 -29.84,216.11l83.11 10.09c-0.49,72.32 0,144.53 2.47,216.67l-108.65 -12.45 -9.25 81.56c-8.11,75.04 -16.05,150.36 -23.56,226.2l117.83 10.34c5.99,-74.47 14.88,-149.3 22.75,-223.87l2.61 -26.11c48.58,1272.82 467.92,2349.22 1226.54,3108.18 1005.66,1003.41 2569.81,1413.59 4403.58,1152.32 725.6,-138.57 1442.65,-328.4 2134.38,-565.36 896.27,-353.95 1634.7,-818.48 2199.07,-1383l0 0z"/>
</symbol>
<symbol id="Fm0-45-0" viewBox="4845.09 -21837.3 14425.4 14423.99">
 <path class="fil5" d="M5677.53 -17432.38c1821.18,-4618.63 5853.57,-5737.12 9742.59,-2727.6 386.22,330.44 766.55,673.7 1132.56,1039.74 346.43,346.29 676.06,703.26 992.86,1068.77l-0.96 -0.67c0.96,0.67 0.96,0.67 1.17,1.2 3068.5,3907.58 1962.18,7973.35 -2678.36,9803.77 -906.99,311.18 -1831.52,554.67 -2766.27,732.65 -4889.82,696.52 -7848.74,-2257.99 -7155.92,-7145.94 177.83,-935.92 420.9,-1862.88 732.33,-2771.92l0 0z"/>
</symbol>
 <g id="Capa_x0020_1">
  <metadata id="CorelCorpID_0Corel-Layer"/>
  <g id="_2329306456080">
   <path class="fil6" d="M846.92 181.85c0,-0.01 0.01,-0.01 0.02,-0.02 0.02,-0.02 0.04,-0.03 0.06,-0.05l0 -0.02c-0.23,0.18 -0.45,0.36 -0.68,0.54 0.2,-0.15 0.4,-0.3 0.6,-0.45z"/>
  </g>
  <g id="_2329306450352">
   <g>
    <path class="fil7" d="M546.97 238.93c-5.28,-2.87 -8.97,-5.35 -11.03,-7.4l0 -82.66c0,-4.93 2.11,-9.48 6.39,-13.64 4.26,-4.16 11.81,-6.23 22.67,-6.23 7.24,0 13.37,1.34 18.41,4.07 5.04,2.74 9.05,6.57 12.02,11.5 2.98,4.95 5.1,10.78 6.4,17.54 1.3,6.77 1.95,14.03 1.95,21.84 0,18.72 -3.12,33.27 -9.3,43.66 -6.21,10.39 -15.9,15.6 -29.09,15.6 -6.98,0 -13.12,-1.43 -18.42,-4.28zm6.06 -142.11l0 0c-8.81,5.05 -15.29,10.07 -19.43,15 -1.57,-6.75 -5.38,-11.55 -11.41,-14.42 -6.02,-2.85 -13.35,-4.27 -22,-4.27 -2.87,0 -5.35,0.06 -7.47,0.18 -2.08,0.14 -3.91,0.33 -5.49,0.57 -1.84,0.29 -3.4,0.54 -4.72,0.8l0 269.4c0,0 53.04,6.02 53.04,-27.27 0,-25.44 0,-70.6 0,-70.6 0.51,0.78 1.81,2.21 3.87,4.29 2.08,2.09 5.06,4.16 8.93,6.23 3.91,2.1 8.63,3.96 14.2,5.65 5.58,1.7 12.12,2.55 19.63,2.55 9.06,0 18.12,-1.56 27.2,-4.69 9.08,-3.12 17.3,-8.49 24.66,-16.19 7.41,-7.66 13.43,-18.06 18.08,-31.17 4.68,-13.13 7.02,-29.83 7.02,-50.08 0,-17.42 -2.02,-32.12 -6.04,-44.07 -4.02,-11.95 -9.4,-21.57 -16.12,-28.85 -6.74,-7.26 -14.45,-12.54 -23.13,-15.79 -8.68,-3.25 -17.81,-4.88 -27.4,-4.88 -13.47,0 -24.61,2.53 -33.42,7.61z"/>
    <path class="fil7" d="M735.54 241.47c-4.16,-5.08 -6.24,-11.25 -6.24,-18.55 0,-6.46 1.56,-11.83 4.69,-15.97 3.1,-4.14 7.13,-7.54 12.08,-10.13 4.94,-2.59 10.58,-4.42 16.94,-5.45 6.38,-1.04 12.81,-1.81 19.31,-2.34 1.81,-0.27 3.64,-0.39 5.47,-0.39l5.46 0 0 39.75c0,2.07 -0.97,4.36 -2.94,6.82 -1.94,2.5 -4.6,4.75 -7.99,6.84 -3.38,2.08 -7.28,3.75 -11.7,5.04 -4.41,1.32 -9.11,1.97 -14.03,1.97 -9.89,0 -16.89,-2.54 -21.05,-7.59zm2.35 -149.73l0 0c-9.13,1.71 -17.18,3.91 -24.19,6.64 -7.02,2.73 -12.54,5.79 -16.56,9.14 -4.03,3.4 -6.04,6.91 -6.04,10.53 0,2.62 1.09,6.59 3.31,11.9 2.21,5.34 7.82,12.23 14.16,9.25 9.41,-4.43 6.01,-3.28 15.97,-6.88 11.43,-4.16 22.83,-5.68 34.01,-5.68 11.95,0 20.58,2.1 25.92,6.32 5.32,4.19 7.99,11.3 7.99,21.29l0 7.1 -8.39 0c-2.99,0 -6.03,0.13 -9.15,0.38 -9.36,0.52 -19.63,1.69 -30.81,3.51 -11.18,1.82 -21.58,5.09 -31.19,9.9 -9.62,4.78 -17.61,11.33 -23.97,19.63 -6.37,8.28 -9.57,19.02 -9.57,32.24 0,10.62 1.82,19.64 5.46,27.02 3.65,7.37 8.32,13.29 14.05,17.69 5.7,4.39 12.08,7.57 19.09,9.49 7.04,1.98 14.06,2.93 21.06,2.93 13.52,0 24.96,-2.08 34.32,-6.23 9.34,-4.16 16.89,-9.23 22.6,-15.22 1.3,6.79 4.35,11.97 9.16,15.6 4.82,3.65 11.89,5.45 21.25,5.45 4.42,0 8.64,-0.37 12.67,-1.16 4.03,-0.76 8.39,-2.07 13.07,-3.89 -5.99,-9.36 -8.97,-24.3 -8.97,-44.85l0 -73.29c0,-11.94 -1.31,-22.41 -3.91,-31.37 -2.6,-8.97 -6.95,-16.46 -13.06,-22.43 -6.1,-5.97 -14.03,-10.38 -23.76,-13.24 -9.77,-2.86 -21.66,-4.3 -35.69,-4.3 -10.13,0 -19.76,0.85 -28.83,2.53z"/>
    <path class="fil7" d="M931.18 93.31c-10.77,2.73 -21,7.73 -30.59,15.02 -9.62,7.26 -17.68,17.14 -24.18,29.61 -6.49,12.48 -9.75,28.59 -9.75,48.36 0,20.78 3.13,37.61 9.36,50.47 6.23,12.9 14.04,22.96 23.38,30.22 9.36,7.28 19.51,12.22 30.44,14.83 10.89,2.57 21.04,3.88 30.39,3.88 14.04,0 25.6,-1.56 34.7,-4.69 9.09,-3.1 16.11,-6.48 21.05,-10.11 3.37,-2.58 5.58,-5.14 6.62,-7.61 1.04,-2.47 1.57,-5.01 1.57,-7.59 0,-4.19 -1.5,-9.22 -4.48,-15.22 -3,-5.97 -5.92,-10.53 -8.78,-13.64 -1.3,1.55 -3.24,3.44 -5.85,5.65 -2.58,2.22 -5.72,4.28 -9.36,6.25 -3.62,1.94 -7.79,3.55 -12.47,4.87 -4.67,1.29 -9.88,1.93 -15.59,1.93 -8.84,0 -16.25,-1.55 -22.23,-4.67 -5.98,-3.12 -10.86,-7.4 -14.6,-12.87 -3.78,-5.44 -6.45,-11.83 -8,-19.09 -1.56,-7.3 -2.33,-15.08 -2.33,-23.4 0,-16.36 3.62,-29.82 10.89,-40.32 7.29,-10.55 19.51,-15.81 36.66,-15.81 9.88,0 18.84,2.21 26.9,6.61 8.06,4.45 14.18,8.86 18.32,13.25 3.65,-4.39 6.63,-9.27 8.96,-14.6 2.35,-5.34 3.52,-9.81 3.52,-13.45 0,-3.9 -0.98,-7.29 -2.94,-10.15 -1.94,-2.84 -5.38,-5.83 -10.32,-8.96 -5.97,-3.9 -13.51,-7 -22.59,-9.35 -9.11,-2.34 -18.99,-3.52 -29.65,-3.52 -8.58,0 -18.25,1.36 -29.05,4.1z"/>
    <path class="fil7" d="M1054.57 93.7c-3.91,0.39 -5.85,0.72 -5.85,0.98l0 155.95c0,6.49 0.84,11.82 2.53,15.97 1.68,4.17 4.03,7.47 7.02,9.95 2.99,2.46 6.57,4.14 10.74,5.04 4.15,0.92 8.83,1.39 14.03,1.39 4.14,0 8.05,-0.12 11.69,-0.4 3.65,-0.23 5.97,-0.64 7.01,-1.17l0 -157.49c0,-6.49 -1.04,-11.77 -3.11,-15.81 -2.07,-4.01 -4.83,-7.15 -8.18,-9.36 -3.39,-2.2 -7.15,-3.67 -11.32,-4.47 -4.15,-0.77 -8.32,-1.15 -12.47,-1.15 -4.17,0 -8.19,0.18 -12.09,0.57z"/>
    <path class="fil7" d="M1171.53 13.97c-14.52,9.62 -23.63,23.26 -27.27,40.94 -1.59,8.31 -2.36,17.55 -2.36,27.66l0 198.84c0,0 53.02,4.31 53.02,-30.78 0,-32.17 0,-116.98 0,-116.98 0,0 -13.81,0 13.16,0 45.16,0 47.66,-33.74 47.66,-33.74l0 150.72c0,6.49 1.03,11.82 3.12,15.97 2.07,4.17 4.79,7.47 8.18,9.95 3.38,2.46 7.15,4.14 11.3,5.04 4.17,0.92 8.31,1.39 12.49,1.39 4.14,0 8.19,-0.2 12.08,-0.6 3.91,-0.38 5.84,-0.71 5.84,-0.97l0 -187.9 -113.83 0 0 -12.88c0,-15.32 3.29,-25.78 9.94,-31.37 6.61,-5.58 16.18,-8.4 28.63,-8.4 10.95,0 20.89,1.76 29.86,5.27 8.97,3.51 15.67,7.48 20.07,11.89 3.63,-4.12 6.76,-8.96 9.33,-14.43 2.63,-5.46 3.93,-10.39 3.93,-14.79 0,-7.29 -4.67,-13.4 -14.05,-18.31 -6.74,-3.67 -15.07,-6.41 -24.94,-8.22 -9.87,-1.81 -19.76,-2.71 -29.64,-2.71 -23.14,0 -41.97,4.81 -56.52,14.41z"/>
    <path class="fil7" d="M1400.34 93.31c-10.78,2.73 -20.99,7.73 -30.61,15.02 -9.61,7.26 -17.67,17.14 -24.17,29.61 -6.49,12.48 -9.74,28.59 -9.74,48.36 0,20.78 3.11,37.61 9.35,50.47 6.24,12.9 14.03,22.96 23.39,30.22 9.35,7.28 19.48,12.22 30.42,14.83 10.92,2.57 21.04,3.88 30.42,3.88 14.01,0 25.58,-1.56 34.7,-4.69 9.08,-3.1 16.08,-6.48 21.04,-10.11 3.38,-2.58 5.6,-5.14 6.62,-7.61 1.05,-2.47 1.55,-5.01 1.55,-7.59 0,-4.19 -1.49,-9.22 -4.49,-15.22 -2.98,-5.97 -5.89,-10.53 -8.76,-13.64 -1.3,1.55 -3.25,3.44 -5.86,5.65 -2.58,2.22 -5.7,4.28 -9.33,6.25 -3.65,1.94 -7.82,3.55 -12.49,4.87 -4.68,1.29 -9.85,1.93 -15.57,1.93 -8.85,0 -16.28,-1.55 -22.24,-4.67 -6,-3.12 -10.86,-7.4 -14.63,-12.87 -3.77,-5.44 -6.42,-11.83 -7.99,-19.09 -1.55,-7.3 -2.35,-15.08 -2.35,-23.4 0,-16.36 3.67,-29.82 10.94,-40.32 7.27,-10.55 19.48,-15.81 36.65,-15.81 9.86,0 18.83,2.21 26.91,6.61 8.03,4.45 14.14,8.86 18.31,13.25 3.63,-4.39 6.62,-9.27 8.95,-14.6 2.35,-5.34 3.52,-9.81 3.52,-13.45 0,-3.9 -0.97,-7.29 -2.94,-10.15 -1.94,-2.84 -5.37,-5.83 -10.31,-8.96 -5.98,-3.9 -13.51,-7 -22.61,-9.35 -9.12,-2.34 -18.97,-3.52 -29.62,-3.52 -8.6,0 -18.28,1.36 -29.06,4.1z"/>
    <path class="fil7" d="M1582.8 240.07c-5.09,-3.35 -9.04,-7.83 -11.91,-13.43 -2.84,-5.58 -4.86,-11.89 -6.03,-18.92 -1.18,-7.01 -1.78,-14.02 -1.78,-21.04 0,-7.02 0.68,-13.91 1.97,-20.66 1.29,-6.77 3.44,-12.79 6.43,-18.11 2.98,-5.35 7.01,-9.7 12.07,-13.07 5.08,-3.39 11.4,-5.07 18.94,-5.07 7.53,0 13.74,1.61 18.71,4.87 4.92,3.24 8.81,7.47 11.7,12.66 2.84,5.21 4.78,11.25 5.84,18.13 1.03,6.89 1.53,13.84 1.53,20.87 0,7.25 -0.5,14.41 -1.53,21.42 -1.06,7.03 -3,13.34 -5.84,18.92 -2.89,5.6 -6.84,10.08 -11.9,13.43 -5.08,3.41 -11.52,5.08 -19.3,5.08 -7.55,0 -13.84,-1.67 -18.9,-5.08zm-20.58 -143.07l0 0c-11.68,5.22 -21.34,12.3 -28.98,21.27 -7.65,8.97 -13.43,19.35 -17.33,31.18 -3.88,11.82 -5.84,24.35 -5.84,37.6 0,13.03 1.7,25.42 5.08,37.26 3.35,11.82 8.67,22.21 15.95,31.18 7.23,8.97 16.66,16.13 28.19,21.45 11.53,5.33 25.61,7.99 42.2,7.99 16.61,0 30.75,-2.73 42.42,-8.2 11.66,-5.43 21.19,-12.73 28.58,-21.82 7.39,-9.11 12.71,-19.61 15.96,-31.59 3.26,-11.94 4.87,-24.41 4.87,-37.41 0,-12.99 -1.61,-25.36 -4.87,-37.04 -3.25,-11.71 -8.43,-21.97 -15.56,-30.82 -7.13,-8.82 -16.47,-15.83 -28,-21.05 -11.56,-5.19 -25.5,-7.79 -41.81,-7.79 -15.57,0 -29.2,2.6 -40.86,7.79z"/>
    <path class="fil7" d="M1085.9 4.19c-9.27,0 -17.83,4.18 -23.54,11.49l0 -0.01 -0.17 0.22c-0.04,0.05 -0.07,0.1 -0.1,0.14 -0.03,0.05 -0.06,0.08 -0.09,0.12l-0.07 0.09c-7.3,9.65 -11.15,21.15 -11.15,33.25 0,2.49 0.17,5.04 0.52,7.57l0.02 0.05c0.38,4.92 3.99,9.02 8.82,10.02l0.08 0.02c3.71,0.78 7.5,1.17 11.25,1.17 10.15,0 20.07,-2.78 28.69,-8.02l0.05 -0.04c9.59,-5.25 15.55,-15.28 15.55,-26.21 0,-16.47 -13.4,-29.86 -29.86,-29.86z"/>
   </g>
   <g>
    <path class="fil8" d="M38.55 69.68c-24.15,31.01 -38.56,69.99 -38.56,112.35 0,101.16 82.02,183.17 183.18,183.17 101.16,0 183.17,-82.01 183.17,-183.17 0,-42.34 -14.39,-81.29 -38.52,-112.3 7.07,13.97 11.01,29.54 11.01,45.91 0,37.19 -20.71,73.22 -53.59,90.9l-0.28 0.15 -0.1 0.06c-29.1,18.65 -63.4,27.41 -97.82,27.41 -13.02,0 -26.27,-0.09 -38.8,-4.09l-0.26 -0.08c-0.51,-0.17 -1.02,-0.34 -1.52,-0.51l-2.24 -0.53c-29.54,-6.9 -57.61,-20.3 -80.06,-40.9l-2.25 -2.07c-20.79,-19.09 -33.42,-45.1 -33.42,-73.52 0,-15.18 3.57,-29.68 10.06,-42.78z"/>
    <path class="fil9" d="M261.36 16.42c-23.71,-11.25 -50.2,-17.56 -78.19,-17.56 -41.34,0 -79.44,13.74 -110.08,36.84 -0.53,0.4 -1.06,0.79 -1.58,1.19 -0.5,0.39 -1.02,0.76 -1.52,1.16l0.07 0c-22.64,18.09 -36.97,44.7 -36.97,74.41 0,28.5 13.19,54.16 34.25,72.17l-0.09 0c18.99,16.43 41.38,29.04 65.98,36.59 -9.07,-6.69 -15.52,-16.39 -16.55,-28.31 -2.37,-8.47 -1.84,-17.25 -1.84,-25.94 0,-37.57 11.16,-73.31 31.92,-104.25l-0.15 -0.12 1.92 -2.6c0.79,-1.07 1.57,-2.13 2.36,-3.2 0.57,-0.79 1.15,-1.57 1.74,-2.36 0.34,-0.46 0.67,-0.93 1.02,-1.38 0.16,-0.23 0.33,-0.45 0.49,-0.64 20,-24.65 48.95,-39.43 80.85,-39.43 9.11,0 17.95,1.19 26.37,3.43z"/>
    <path class="fil10" d="M286.09 30.61c0.04,0.02 0.08,0.05 0.12,0.07 -14.97,-9.05 -32.49,-14.27 -51.22,-14.27 -30.8,0 -59.25,13.91 -78.22,38.21 -0.11,0.1 -4.4,5.95 -5.48,7.41 16.09,-17.34 41.83,-24.94 65.41,-24.94 45.72,0 96.83,39.85 96.83,97.51 0,17.94 -3.33,49.77 -30.47,67.88 32.65,-17.56 51.17,-52.85 51.17,-86.84 0,-36.08 -19.33,-67.58 -48.14,-85.03z"/>
   </g>
  </g>
 </g>
</svg>
