<?xml version="1.0" encoding="UTF-8"?>
<!DOCTYPE svg PUBLIC "-//W3C//DTD SVG 1.1//EN" "http://www.w3.org/Graphics/SVG/1.1/DTD/svg11.dtd">
<!-- Creator: CorelDRAW 2018 (64 Bit Versión de evaluación) -->
<svg xmlns="http://www.w3.org/2000/svg" xml:space="preserve" width="16.9332mm" height="5.5032mm" version="1.1" style="shape-rendering:geometricPrecision; text-rendering:geometricPrecision; image-rendering:optimizeQuality; fill-rule:evenodd; clip-rule:evenodd"
viewBox="0 0 1693.32 550.32"
 xmlns:xlink="http://www.w3.org/1999/xlink">
 <defs>
  <style type="text/css">
   <![CDATA[
    .fil0 {fill:#FF6D42;fill-rule:nonzero}
   ]]>
  </style>
 </defs>
 <g id="Capa_x0020_1">
  <metadata id="CorelCorpID_0Corel-Layer"/>
  <g id="_2329303980288">
   <g>
    <path class="fil0" d="M1353.04 549.79c101.55,1.28 191.35,-0.32 268.64,-4.49l26.53 -131.49c-423.61,57.41 -806.68,58.05 -1149.21,1.6 -120.87,-19.56 -229.99,-45.86 -328.13,-77.93 -71.23,-23.41 -125.79,-46.18 -163.3,-67.99 201.95,130.21 505.07,215.52 910.49,256.25 139.44,13.79 284.18,21.8 434.98,24.05z"/>
   </g>
   <g>
    <path class="fil0" d="M1691.4 66.49c-3.79,-12.19 -14.4,-17.96 -31.83,-17.96 -28.79,0 -46.6,0 -53.8,0.32 -18.95,0.64 -33.72,2.88 -44.71,6.09l-18.94 28.86 26.9 -8.33c20.46,-5.14 37.13,-7.38 50.77,-6.1 15.53,0.96 23.87,5.13 24.25,12.51 0,7.06 -7.2,14.11 -21.98,20.2 -6.44,2.89 -14.4,5.14 -24.63,6.42 -12.12,1.28 -20.83,2.56 -27.28,3.21 -23.49,2.88 -43.19,9.94 -58.73,21.16 -7.57,5.78 -13.26,12.19 -17.43,19.24 -4.54,8.34 -6.06,15.72 -3.79,22.45 4.93,17 30.32,24.38 74.65,21.17l22.73 -22.45c-7.95,2.25 -16.29,3.21 -24.25,3.21 -16.29,0.64 -24.63,-3.85 -25,-12.83 -0.38,-9.3 4.92,-16.68 15.53,-21.81 5.68,-2.56 16.67,-6.09 33.72,-9.94 15.54,-4.17 29.18,-7.38 41.3,-10.26l-14.4 33.03c-10.61,22.77 -18.18,35.28 -22.73,37.84l51.15 0c20.08,-43.29 34.86,-73.12 43.2,-89.47 7.2,-14.11 9.09,-26.62 5.3,-36.56z"/>
    <path class="fil0" d="M1390.55 48.53l-49.25 0c3.41,97.17 6.06,145.27 7.58,143.99 0.75,-0.64 9.85,-0.96 27.28,-0.64 8.71,0.32 17.42,0.32 25.76,0.64l132.62 -143.99 -49.26 0 -94.73 111.92 0 -111.92z"/>
    <polygon class="fil0" points="1342.81,27.36 1355.69,0.1 1304.92,0.1 1294.31,27.36 "/>
    <polygon class="fil0" points="1138.21,27.36 1151.09,0.1 1100.32,0.1 1089.71,27.36 "/>
    <path class="fil0" d="M1178.37 48.53l-26.52 0 -14.4 30.46 25.39 0 -7.58 17.32c-5.69,13.47 -10.61,24.38 -15.16,33.36 -8.71,18.6 -14.02,29.82 -15.16,33.67 -3.78,12.5 -1.89,21.81 6.07,27.26 6.06,4.17 19.32,5.45 39.78,4.17 10.61,-0.97 20.08,-2.25 29.18,-3.85l17.8 -27.26c-6.81,2.56 -16.29,4.81 -27.27,5.77 -7.96,0.96 -12.13,-3.53 -12.89,-12.83 -1.13,-8.33 0.76,-18.28 5.68,-29.18 3.42,-8.02 8.72,-18.6 15.54,-31.75l9.47 -17.32 45.47 0 11.75 -29.82 -45.47 0 15.16 -32.07 -48.88 9.3 -7.96 22.77z"/>
    <path class="fil0" d="M1040.45 63.28l1.89 -10.26c-3.78,-0.65 -8.71,-1.29 -15.15,-2.25 -12.13,-1.28 -24.63,-1.92 -36.75,-1.92 -16.3,0 -30.7,2.56 -42.44,7.69 -14.78,6.1 -25.77,15.4 -32.59,28.55 -5.3,10.26 -4.16,20.84 4.17,31.11 4.17,5.45 14.4,14.43 30.69,25.97 6.82,5.45 7.96,11.87 3.41,19.56 -4.92,8.34 -13.64,12.83 -26.52,13.47 -13.64,0.64 -25.77,-0.96 -36.37,-5.13l-12.51 -6.09 -7.95 27.26 18.56 4.17c14.02,2.88 25.77,4.17 35.62,3.53 18.94,-0.97 35.23,-4.17 48.5,-9.3 20.83,-7.7 32.58,-19.89 34.85,-36.24 2.28,-13.15 -5.3,-25.34 -21.59,-36.56 -8.72,-5.78 -14.02,-9.95 -15.92,-11.87 -4.54,-4.81 -5.68,-9.62 -4.16,-14.75 3.03,-10.59 14.02,-15.72 32.58,-15.72 16.67,0 28.42,2.89 35.62,9.3 2.27,-5.77 4.17,-12.5 6.06,-20.52z"/>
    <path class="fil0" d="M1078.34 48.53c-1.14,7.69 -9.47,29.18 -23.87,63.82 -15.91,37.84 -29.18,64.78 -38.65,80.17l50.77 0 62.52 -143.99 -50.77 0z"/>
    <path class="fil0" d="M1333.72 48.53l-50.77 0c-1.14,7.69 -9.48,29.18 -23.87,63.82 -15.92,37.84 -29.18,64.78 -38.65,80.17l50.77 0 62.52 -143.99z"/>
    <path class="fil0" d="M818.04 48.53c-23.12,0 -42.44,2.24 -57.22,7.37 -19.7,6.42 -37.51,18.6 -53.04,36.24 -21.98,24.06 -30.69,47.15 -26.53,68.95 4.93,25.34 28.04,37.85 68.96,37.85 40.92,0 73.89,-11.55 99.65,-34.64 21.22,-19.24 32.21,-41.05 32.97,-64.46 0.76,-34.32 -20.84,-51.31 -64.79,-51.31zm-44.33 32.07l0 0c9.09,-3.53 19.7,-5.45 32.2,-5.45 10.99,0 19.32,2.56 24.25,7.37 4.93,5.13 7.2,14.11 6.06,26.3 -1.51,15.07 -9.09,28.86 -22.35,42.65 -15.92,15.4 -34.1,23.09 -54.94,23.09 -20.46,0 -31.07,-8.66 -32.59,-25.33 -1.51,-15.08 3.79,-29.83 15.92,-45.22 9.09,-11.23 19.32,-18.92 31.45,-23.41z"/>
    <path class="fil0" d="M553.19 0.42c-1.14,8.34 -15.54,42.98 -42.82,103.59 -13.64,30.47 -26.9,59.97 -40.54,88.51l53.04 0c0,-2.24 8.34,-23.41 25.01,-63.82 18.95,-45.54 30.69,-77.61 36,-96.85l48.87 0.64c12.51,0 20.46,2.25 23.5,7.38 2.27,4.17 1.89,9.94 -2.28,17.96 -4.54,8.66 -11.74,16.03 -22.35,21.48 -9.85,5.14 -19.33,7.7 -29.18,7.7l-26.52 0 -3.79 25.66 12.5 1.6c10.23,0.96 21.22,1.61 32.97,1.61 21.97,0 42.44,-8.99 61,-26.94 15.16,-14.12 24.63,-28.55 29.18,-42.98 3.41,-11.22 1.13,-21.49 -6.82,-30.79 -8.34,-9.94 -19.71,-14.75 -34.1,-14.75l-113.67 0z"/>
    <path class="fil0" d="M114.04 72.9c10.61,-25.02 20.46,-49.39 29.93,-72.48l-54.18 0c-16.67,43.62 -37.13,88.52 -60.25,135.34 -11.36,23.09 -21.59,42.33 -29.55,56.76l166.72 0 15.15 -28.86 -109.88 0c6.82,-9.94 20.46,-40.09 42.06,-90.76z"/>
    <path class="fil0" d="M309.93 48.85c-18.94,0.64 -34.1,2.88 -44.71,6.09l-18.94 28.86 26.52 -8.33c20.84,-5.14 37.89,-7.38 51.15,-6.1 15.91,0.96 23.87,5.13 23.87,12.51 0.38,7.06 -6.82,14.11 -21.22,20.2 -6.82,2.89 -14.78,5.14 -25.01,6.42 -11.74,1.28 -20.83,2.56 -26.9,3.21 -23.87,2.88 -43.57,9.94 -59.11,21.16 -7.57,5.78 -13.26,12.19 -17.42,19.24 -4.93,8.34 -6.07,15.72 -3.79,22.45 4.92,17 30.31,24.38 74.64,21.17l22.73 -22.45c-8.33,2.25 -16.29,3.21 -24.63,3.21 -15.91,0.64 -24.62,-3.85 -24.62,-12.83 -0.38,-9.3 4.92,-16.68 15.91,-21.81 4.93,-2.56 16.29,-6.09 33.34,-9.94 15.16,-4.17 29.18,-7.38 41.68,-10.26l-14.77 33.03c-10.61,22.77 -18.19,35.28 -22.74,37.84l50.77 0c20.84,-43.29 35.24,-73.12 43.58,-89.47 6.82,-14.11 8.71,-26.62 5.3,-36.56 -4.17,-12.19 -14.4,-17.96 -31.83,-17.96 -28.41,0 -46.6,0 -53.8,0.32z"/>
    <path class="fil0" d="M1241.27 298.36c3.79,-6.42 7.58,-12.51 11.37,-18.29 -10.24,-0.96 -22.74,-1.6 -37.14,-1.92 -22.35,-0.32 -42.81,8.02 -61,25.34 -9.85,9.3 -14.02,19.24 -12.5,29.82 1.13,10.27 6.44,15.4 16.29,15.4 17.81,0 32.58,-4.49 43.95,-13.47 -8.33,14.75 -15.16,24.05 -20.84,27.58 -3.79,2.56 -12.12,3.85 -23.87,4.17 -7.96,0 -15.53,-0.64 -21.6,-2.25l-6.82 -2.24 -2.65 11.22 6.82 2.25c5.68,1.6 12.88,2.56 20.84,2.56 9.47,0 16.29,-0.32 19.7,-0.96 6.82,-0.96 13.64,-3.53 20.84,-7.38 6.82,-3.84 13.26,-10.58 18.95,-20.2 5.3,-11.55 9.09,-19.24 11.36,-23.73 3.04,-5.13 7.96,-14.43 16.3,-27.9zm-32.97 -6.42l0 0c4.93,0 9.47,0 14.02,0.64 -5.68,12.19 -11.36,22.77 -18.19,31.43 -5.3,6.1 -12.88,9.62 -23.49,10.27 -10.23,0.96 -15.91,-1.29 -17.8,-6.42 -1.9,-4.49 0,-10.26 4.92,-16.68 4.55,-5.77 10.23,-10.58 17.43,-14.75 4.93,-2.89 12.5,-4.49 23.11,-4.49z"/>
    <path class="fil0" d="M1300.75 279.11l-26.52 0c-6.44,14.76 -13.64,28.55 -22.35,41.37 -6.07,9.3 -7.2,17 -3.03,22.13 3.79,5.13 11.36,7.38 22.73,7.38 9.47,0 18.19,-2.25 27.28,-7.7 4.17,-2.88 7.96,-5.45 10.61,-8.01l-6.44 13.46 23.87 0.32c1.14,-11.22 3.41,-20.84 6.44,-28.22 1.51,-4.81 6.44,-12.82 14.4,-24.69 4.17,-5.77 7.58,-10.91 10.99,-16.04l-23.5 0 -1.13 5.78c-1.9,5.45 -4.93,11.86 -10.23,19.88 -7.96,12.19 -12.51,19.24 -14.02,20.85 -6.06,6.73 -14.4,10.26 -23.87,10.26 -7.2,0 -11.37,-2.25 -12.51,-6.74 -0.75,-3.52 0,-8.98 3.03,-16.35 2.28,-5.46 7.2,-12.83 14.02,-21.81 3.79,-4.49 6.82,-8.34 10.23,-11.87z"/>
    <path class="fil0" d="M1107.89 277.51c-22.73,0 -40.16,7.7 -53.04,23.41 -5.69,6.41 -8.72,13.15 -10.61,19.88 -1.52,7.06 -0.76,12.19 1.89,16.68 3.79,6.42 10.99,10.26 20.84,11.55 6.82,0.64 18.19,0.64 34.11,-0.97l12.88 -13.78c-6.44,1.28 -13.27,1.92 -20.46,2.56 -14.02,0.96 -22.74,0 -25.77,-3.85 -3.41,-3.53 -3.79,-8.02 -1.89,-13.47l3.78 -7.37 62.9 0.64c3.41,-6.1 4.55,-11.87 4.55,-17.64 -0.76,-11.87 -10.61,-17.64 -29.18,-17.64zm-25.38 19.24l0 0c8.33,-5.13 16.67,-8.02 23.87,-8.02 7.2,0 10.99,2.57 11.75,8.02 0.75,2.57 0,5.13 -0.76,7.7l-45.09 0.32 10.23 -8.02z"/>
    <path class="fil0" d="M1045.76 272.7l7.57 -16.04c-7.95,-1.6 -17.05,-2.24 -26.9,-1.6 -18.94,0.64 -32.59,5.77 -40.16,16.04 -5.69,8.01 -7.96,14.43 -6.44,19.56 1.51,4.17 6.82,9.3 15.53,14.75 7.2,4.81 10.61,9.94 10.23,16.04 0,7.37 -6.82,11.54 -20.84,13.47 -8.71,0.96 -16.29,0.64 -23.11,-1.29l-7.58 -3.52 -7.58 15.39 15.54 2.89c12.12,1.92 22.35,1.92 31.07,0.64 10.23,-1.93 18.18,-5.45 24.63,-10.59 6.44,-5.45 10.23,-12.18 11.36,-20.2 1.14,-5.45 -3.79,-11.87 -14.02,-19.88 -9.47,-7.38 -13.26,-13.79 -10.98,-19.25 3.03,-6.73 9.85,-10.26 20.84,-10.58 9.47,0 16.67,1.28 20.84,4.17z"/>
    <path class="fil0" d="M1581.52 290.34c7.2,0.64 12.13,2.24 15.91,4.49l6.82 -13.47c-7.2,-1.93 -15.15,-3.21 -23.87,-3.21 -17.43,-0.64 -29.17,3.53 -35.24,12.19 -4.54,6.41 -5.68,11.86 -3.78,16.03 1.13,2.57 4.54,6.1 9.85,10.27 5.68,4.49 8.33,8.33 7.96,11.54 -0.38,4.81 -5.69,7.7 -16.68,9.62 -6.82,1.29 -13.26,0.64 -18.56,-1.6l-6.06 -3.21 -6.07 13.15 13.26 1.92c9.86,1.29 18.57,1.29 25.77,0 8.71,-1.6 15.53,-4.16 20.08,-8.01 5.31,-3.53 8.34,-8.98 9.47,-15.4 0.76,-4.49 -2.27,-9.62 -8.71,-14.75 -6.44,-5.13 -8.34,-9.62 -6.44,-14.11 1.89,-4.49 7.58,-6.41 16.29,-5.45z"/>
    <path class="fil0" d="M1403.06 279.11l-22.36 0c-0.75,6.42 -3.79,14.11 -9.47,23.09 -3.03,4.82 -7.58,12.19 -13.64,22.77 -6.44,11.23 -10.23,18.28 -12.5,21.49l26.52 0c1.14,-7.37 2.65,-13.47 4.92,-18.6 2.28,-5.13 5.69,-10.9 9.86,-16.68 5.68,-8.01 11.36,-12.82 16.29,-15.07 4.55,-1.92 10.23,-2.57 16.67,-1.92 3.41,0.32 6.06,0.96 8.34,1.6l6.82 -17.64c-3.79,0 -8.34,0.32 -13.64,1.61 -10.23,1.92 -18.19,5.77 -23.5,11.54l5.69 -12.19z"/>
    <path class="fil0" d="M1460.27 281.68c-7.58,2.89 -15.53,8.02 -25.01,15.71 -12.12,10.27 -17.42,21.17 -15.15,33.36 1.89,12.5 11.37,18.92 28.42,18.92 13.26,0 24.62,-2.57 34.1,-7.38 8.71,-4.49 17.05,-11.86 25,-22.45 7.58,-10.26 9.86,-19.88 6.07,-28.54 -4.17,-8.66 -12.51,-13.15 -25.39,-13.15 -11.74,0 -20.84,1.28 -28.04,3.53zm-8.71 21.17l0 0c6.44,-5.46 11.74,-9.31 16.67,-10.91 3.41,-0.96 9.09,-1.6 17.05,-1.6 5.3,0 7.96,2.88 9.09,8.66 1.14,5.77 0,11.54 -3.79,16.99 -9.47,14.44 -21.21,21.49 -35.23,21.49 -10.23,0 -15.16,-4.49 -14.78,-13.15 0.38,-7.69 4.17,-14.75 10.99,-21.48z"/>
   </g>
  </g>
 </g>
</svg>
