<?xml version="1.0" encoding="UTF-8"?>
<!DOCTYPE svg PUBLIC "-//W3C//DTD SVG 1.1//EN" "http://www.w3.org/Graphics/SVG/1.1/DTD/svg11.dtd">
<!-- Creator: CorelDRAW 2018 (64 Bit Versión de evaluación) -->
<svg xmlns="http://www.w3.org/2000/svg" xml:space="preserve" width="16.9332mm" height="7.7892mm" version="1.1" style="shape-rendering:geometricPrecision; text-rendering:geometricPrecision; image-rendering:optimizeQuality; fill-rule:evenodd; clip-rule:evenodd"
viewBox="0 0 1693.32 778.92"
 xmlns:xlink="http://www.w3.org/1999/xlink">
 <defs>
  <style type="text/css">
   <![CDATA[
    .fil1 {fill:white;fill-rule:nonzero}
    .fil0 {fill:#D42E12;fill-rule:nonzero}
   ]]>
  </style>
 </defs>
 <g id="Capa_x0020_1">
  <metadata id="CorelCorpID_0Corel-Layer"/>
  <g id="_2329306434416">
   <path class="fil0" d="M1693.32 -1.86l0 718.66c0,35.33 -28.64,63.97 -63.97,63.97l-1565.38 0c-35.33,0 -63.98,-28.64 -63.98,-63.97l0 -718.66 1693.33 0z"/>
   <g>
    <g>
     <path class="fil1" d="M951.85 262.73c-11.97,-0.32 -20.66,3.93 -30.91,17.79l-120.72 163.73 -46.46 -160.19c-4.8,-16.19 -15.36,-21.58 -25.09,-21.51 -14.7,0.09 -22.14,6.22 -29.86,20.01l-106.38 213.55 59.47 0 72.01 -147.22 44.98 147.22 49.67 0 108.73 -146.4 -0.56 146.4 51.06 0 -0.37 -205.17c0,-19.86 -12.82,-27.88 -25.57,-28.21z"/>
    </g>
    <polygon class="fil1" points="520.82,300.65 472.85,496.1 527.22,496.1 574.5,300.65 "/>
    <path class="fil1" d="M327.42 389.49l-38.41 0 14.32 -58.96 40.61 0c21.52,0 32.74,10.07 30.63,28.57 -2.18,19.11 -21.01,30.39 -47.15,30.39zm100.68 -33.15l0 0c2.95,-25.93 -12.14,-55.69 -66.36,-55.69l-105.03 0 -47.34 195.45 53.82 0 17.77 -73.39 27.66 0 47.74 73.39 58.67 0 -53.53 -77.81c47.51,-11.79 63.65,-36.01 66.6,-61.95z"/>
    <path class="fil1" d="M1117.83 423.42l47.47 -71.42 18.03 71.42 -65.5 0zm83.75 72.69l0 0 51.6 0 -49.12 -180.06c-6.49,-20.55 -19.2,-25.97 -32.47,-24.89 -8.3,0.68 -16.94,4.23 -25.89,16.06l-129.16 188.89 52.86 0 26.22 -39.85 95.99 -0.1 9.97 39.95z"/>
    <path class="fil1" d="M1417.16 459.97c-43.68,-0.64 -68.6,-25.29 -65.05,-56.58 4.81,-42.28 43.46,-68.02 97.5,-67.63 15.94,0.13 36.42,1.23 55.27,6.04l9.53 -39.18c-15.22,-3.66 -41.32,-6.44 -58.38,-6.44 -92.7,0 -151.55,42.79 -158.79,106.36 -6.41,56.39 33.49,96.99 119.42,96.99 17.26,0 32.31,-1.47 53.5,-4.89l10.4 -42.74c-20.64,5.53 -37.14,8.46 -63.4,8.07z"/>
   </g>
  </g>
 </g>
</svg>
