<?xml version="1.0" encoding="UTF-8"?>
<!DOCTYPE svg PUBLIC "-//W3C//DTD SVG 1.1//EN" "http://www.w3.org/Graphics/SVG/1.1/DTD/svg11.dtd">
<!-- Creator: CorelDRAW 2018 (64 Bit Versión de evaluación) -->
<svg xmlns="http://www.w3.org/2000/svg" xml:space="preserve" width="10.4986mm" height="36.4912mm" version="1.1" style="shape-rendering:geometricPrecision; text-rendering:geometricPrecision; image-rendering:optimizeQuality; fill-rule:evenodd; clip-rule:evenodd"
viewBox="0 0 1049.86 3649.12"
 xmlns:xlink="http://www.w3.org/1999/xlink"
 xmlns:xodm="http://www.corel.com/coreldraw/odm/2003">
 <defs>
  <style type="text/css">
   <![CDATA[
    .str0 {stroke:#E6E6E6;stroke-width:20;stroke-miterlimit:22.9256}
    .fil13 {fill:none}
    .fil16 {fill:#07ACEE}
    .fil14 {fill:#2A427B}
    .fil15 {fill:#2A427B;fill-rule:nonzero}
    .fil7 {fill:#2A427B;fill-rule:nonzero}
    .fil6 {fill:#2B2E3A;fill-rule:nonzero}
    .fil1 {fill:#6396A5;fill-rule:nonzero}
    .fil4 {fill:#77C8D4;fill-rule:nonzero}
    .fil10 {fill:#7A7F86;fill-rule:nonzero}
    .fil11 {fill:#85485B;fill-rule:nonzero}
    .fil2 {fill:#D48F7F;fill-rule:nonzero}
    .fil12 {fill:#D96574;fill-rule:nonzero}
    .fil5 {fill:#E5E3E7;fill-rule:nonzero}
    .fil3 {fill:#E5E3E7;fill-rule:nonzero}
    .fil8 {fill:#FFB494;fill-rule:nonzero}
    .fil0 {fill:#FFBFA4;fill-rule:nonzero}
    .fil9 {fill:white;fill-rule:nonzero}
    .fil17 {fill:url(#id0)}
   ]]>
  </style>
  <linearGradient id="id0" gradientUnits="userSpaceOnUse" x1="671.97" y1="1487.52" x2="688.96" y2="1487.52">
   <stop offset="0" style="stop-opacity:1; stop-color:#F5FCFF"/>
   <stop offset="1" style="stop-opacity:1; stop-color:#07ACEE"/>
  </linearGradient>
 </defs>
 <g id="Capa_x0020_1">
  <metadata id="CorelCorpID_0Corel-Layer"/>
  <path class="fil0" d="M1952.9 2079.63c10.05,-1.08 16.97,-9.81 15.03,-19.95 -0.82,-4.14 -2.64,-8.07 -4.78,-11.7l-7.64 -10.42c14.36,-32.9 -21.98,-62.74 -45.46,-81.08 -41.21,-32.16 -89.5,-56.75 -140.37,-69.29 16.72,-31.21 21.45,-75.88 11.49,-100.97 -5.84,-14.69 -20.85,-19.72 -31.79,-7.24 -9.94,11.32 -15.64,29.07 -24.45,41.64 -9.16,13.05 -19.89,24.73 -30,36.92 -52.45,-24.94 -111.95,-36.96 -166.21,-58.25 -61.77,-24.28 -122.01,-52.5 -180.61,-83.65 -108.78,-57.85 -213.58,-124.76 -313.42,-196.99 -0.4,-3.78 -3.93,-5.35 -7.24,-4.64 -2.84,-0.5 -5.63,2.52 -5.5,5.3 -18.01,47.95 -55.33,97.96 -50.26,151.78 -2.03,1.58 -3.08,4.47 -0.67,6.42l1.76 1.35 0.32 2.28c0.69,3.57 3.93,4.14 6.63,3.09 98.33,77.69 211.47,139.32 325.81,189.48 57.84,25.38 116.92,47.91 177.01,67.32 53.5,17.27 120.77,30.42 167.69,44.48 83.5,24.9 154.71,69.77 234.33,103.78 14.27,6.11 41.23,20.83 56.56,7.63 5.47,-4.7 6.56,-10.78 3.92,-17.72 0.42,1.14 5.41,0.7 7.85,0.43z"/>
  <path class="fil1" d="M1955.51 2037.56l0 0c0.01,-0.04 0.03,-0.09 0.06,-0.15 -0.03,0.06 -0.05,0.11 -0.06,0.15z"/>
  <path class="fil2" d="M1957.24 2040.19c-14.01,-11 -29.56,-21.28 -44.96,-31.81 -24.82,-17 -55.55,-35.06 -82.84,-47.87 -2.59,-1.22 -1.16,-5.37 1.29,-5.37 0.29,0 0.57,0.06 0.89,0.19 31.65,12.91 60.24,30.03 88.51,49.13 10.68,7.2 25.48,16.11 37.75,25.47 -0.53,2.48 -1.23,4.98 -2.31,7.48 -0.03,0.06 -0.05,0.11 -0.06,0.15l0 0 0 0 1.73 2.63z"/>
  <path class="fil1" d="M1947.13 2079.9c-1,-0.06 -1.78,-0.24 -2.02,-0.6 0.24,0.36 1.02,0.54 2.02,0.6zm-2.02 -0.6c0,-0.01 0,-0.01 -0.01,-0.01 0.01,0 0.01,0 0.01,0.01z"/>
  <path class="fil2" d="M1945.46 2080.8c-19.62,-16.26 -38.44,-28.83 -59.04,-43.3 -26.09,-18.32 -52.34,-36.29 -81.06,-49.94 -2.67,-1.27 -0.83,-2.84 1.76,-2.84 0.82,0 1.71,0.15 2.56,0.51 43.02,18.79 115.11,63.2 142.84,94.43 -1.2,0.14 -2.87,0.29 -4.34,0.29 -0.37,0 -0.72,-0.02 -1.05,-0.05 -1,-0.06 -1.78,-0.24 -2.02,-0.6l0 0c0,-0.01 0,-0.01 -0.01,-0.01 -0.02,-0.03 -0.03,-0.06 -0.05,-0.09l0 0 0 0 0 0 0.41 1.6z"/>
  <path class="fil3" d="M1086.84 1490.69c-4.29,-16.41 -36.96,-30.85 -49.39,-40.31 -51.83,-39.39 -99.91,-83.42 -146.23,-129.09 -22.57,-22.24 -44.62,-45.03 -67.25,-67.23 -17.28,-16.95 -32.32,-36.07 -54.66,-45.64l-2.02 -0.93 -0.12 -0.05 -0.17 0c-5.09,-1.26 -11.51,1.51 -11.96,8.36 -7.85,116.98 18.06,232.65 50.19,344.39 10.41,36.16 16.72,97.34 47.43,123.01 34.13,28.54 90.8,42.71 132.28,55.67 5.11,1.59 10.59,-1.89 12.03,-6.83 19.27,-65.71 42.53,-129.33 70.29,-191.96 5.33,-12.06 23.32,-35.1 19.58,-49.39z"/>
  <polygon class="fil4" points="780.34,1221.76 780.53,1222.09 "/>
  <path class="fil5" d="M254.24 1931.9c0.03,-72.96 -7.06,-146.94 -5.52,-220.05 -4.04,-46.71 -9.18,-93.3 -14.61,-139.86 -5.85,-50.04 -11.78,-100.06 -17.67,-150.1 -6.13,-52.03 -28.34,-94.72 -26.43,-147.2 0.13,-3.48 2.76,-4.42 5.33,-5.97 21.01,-12.7 62.9,-33.79 87.69,-40.68 33.91,-9.4 69.13,-19.6 104.27,-22.7l0.78 0.09c2.09,-1.45 6.84,-24.87 9.55,-22.76 90.83,70.75 191.07,42.63 283.02,4.66 1.49,-0.62 2.65,-0.14 3.59,0.65l2.98 -1.18c19.54,2.71 37.85,7.53 56.61,13.68 10.09,3.33 23.37,7.26 30,11.48l0.92 2.14c60.55,138.58 80.29,312.28 97.93,461.13 18.4,155.35 27.23,317.3 3.28,472.57 -1.03,6.57 -6.45,8.56 -11.28,7.26 -51.04,5.43 -103.87,1.04 -155.2,1.87 -51.66,0.85 -103.1,3.66 -154.42,9.57 -47.87,5.5 -95.49,12.66 -143.67,14.81 -37.55,1.72 -85.98,5.03 -122.47,-8.57 -2.88,2.79 -7.64,3.63 -9.96,-0.69 -36.18,-67.45 -24.75,-166.07 -24.72,-240.15z"/>
  <path class="fil6" d="M75.82 3498.09c0.72,20.01 5.72,34.88 24.79,43.41 37.45,16.75 96.41,15.64 136.81,18.92 54.68,4.43 113.89,8.38 168.41,0.49 14.89,-2.16 26.49,-3 24.35,-20.29 -2.89,-23.33 -43.33,-42.09 -60.97,-49.87 -38.7,-17.09 -80.85,-26.97 -121.68,-37.94 -0.62,-3.96 -3.37,-7.69 -8.47,-8.08 -25.67,-2.03 -51.25,-0.96 -76.97,-0.86 -17.49,0.08 -50.06,-6.25 -66.17,0.25 -20.13,8.12 -20.87,32.84 -20.1,53.97z"/>
  <path class="fil6" d="M563.98 3498.09c0.74,20.01 5.74,34.88 24.79,43.41 37.47,16.75 96.43,15.64 136.82,18.92 54.67,4.43 113.9,8.38 168.4,0.49 14.89,-2.16 26.51,-3 24.37,-20.29 -2.9,-23.33 -43.34,-42.09 -60.97,-49.87 -38.72,-17.09 -80.85,-26.97 -121.7,-37.94 -0.62,-3.96 -3.36,-7.69 -8.45,-8.08 -25.68,-2.03 -51.25,-0.96 -76.98,-0.86 -17.48,0.08 -50.06,-6.25 -66.16,0.25 -20.15,8.12 -20.87,32.84 -20.12,53.97z"/>
  <path class="fil7" d="M875.64 2128.48c-96.31,3.72 -191.72,21.61 -287.34,32.58 -97.93,11.27 -196.05,7.56 -293.83,15.71 -4.89,-2.56 -11.91,-1.35 -12.95,5.21 -33.81,212.04 -25.57,429.15 -71.12,639.84 -45.11,208.61 -107.64,413.28 -151.27,622.3 54.3,32.66 136.98,41.34 195.95,12.59l0.27 -0.9c43.71,-68.21 65.6,-154.01 89.47,-230.06 28.49,-90.82 52.77,-182.89 74.13,-275.63 20.65,-89.62 38.16,-179.92 54.52,-270.42 8.27,-45.76 16.24,-91.58 24.2,-137.41 6.87,-39.65 7.83,-87.05 28.97,-122.19 21.16,-35.04 58.33,-52.54 90.63,-19.96 33.91,34.19 31.89,85.18 34.33,129.9 7.22,131.45 -1.78,264.51 -14.95,395.33 -9.22,90.78 -21.59,181.21 -36.08,271.31 -13.36,82.93 -32.78,166.7 -39.97,250.4 -0.97,1.99 -0.99,4.55 0.7,6.06 21.28,19.03 53.97,19.12 81.11,19.74 27.93,0.65 92.82,-6.09 94.41,-14.14 0.73,-3.55 95.34,-436.79 120.45,-652.63 13.18,-113.25 22.86,-226.89 28.98,-340.71 2.92,-54.44 5.04,-108.93 6.36,-163.43 1.14,-47.99 -2.22,-95.29 -8.79,-142.76 -2.59,-10.26 -5.41,-20.48 -8.18,-30.73z"/>
  <path class="fil8" d="M582.99 1022.25c-54.18,5.83 -107.01,5.39 -161.28,2.21l-0.03 -0.75c-0.34,-4.33 -7.4,-6.06 -8.17,-1.12 -4.76,30.64 -4.59,61.82 -5.72,92.76 -0.8,21.32 -8.44,51.32 -0.19,71.69 10.12,25.04 50.89,46.54 76.64,47.84 14.89,0.75 30.59,17.92 42.54,9.45 17.12,-12.15 53.58,-21.59 63.58,-40.47 6.09,-11.45 4.3,-27.58 4.85,-40.05 1.44,-32.23 -4.14,-101.29 -4.21,-133.56 -0.02,-3.98 -3.68,-8.47 -8.01,-8z"/>
  <path class="fil7" d="M494.03 1831.77c6.21,-57.3 11.71,-114.66 17.9,-171.97 12.8,-118.23 16.73,-235.8 10.41,-354.48 -7,-3.13 -3.77,-15.36 5.21,-14.66 11.15,0.89 22.1,1.22 33.3,1.04 2.51,-0.04 4.3,0.98 5.5,2.43 1.43,-0.44 3.1,-0.05 3.58,1.72 30.5,111.6 71.2,229.3 99.45,341.58 27.18,107.99 39.69,211.99 64.46,320.58 -13.56,29.2 -22.66,48.02 -37.79,67.88 -19,24.89 -39.96,51.03 -65.53,70.15 -24.14,-36.39 -51.44,-70.2 -80.91,-102.4 -21.18,-23.14 -45.4,-43.39 -67.83,-65.14 -0.28,-32.49 9.17,-68.31 12.25,-96.73z"/>
  <path class="fil7" d="M483.92 1265.15c0.52,36.51 17.73,74.38 66.84,68.2 35.05,-4.4 52.92,-56.67 37.4,-88.15 -8.45,-17.15 -25.54,-26.27 -43.48,-28.04 -29.46,-2.89 -61.21,14.09 -60.76,47.99z"/>
  <path class="fil9" d="M326.93 1241.81c21.72,13.52 43.04,27.68 64.52,41.59 10.76,6.96 21.54,13.85 32.45,20.56 10.14,6.24 20.28,13.27 31.07,18.32 5.39,2.51 9.07,-0.02 11.48,-5.33 3.07,-6.78 5.44,-13.87 8.53,-20.68 4.44,-9.78 9.49,-19.29 15.13,-28.43 11.14,-18.18 24.57,-34.93 39.83,-49.81 1.99,-1.94 0.23,-6.07 -2.27,-7.53 -32.94,-19.29 -55.15,-30.4 -88,-52.39 -12.7,-8.51 -28.72,-20.05 -41.74,-28.01 -18.02,-11.01 -39.58,8.39 -50.02,17.86 -21.21,19.16 -36.07,46.21 -49.98,71.03 -2.46,4.38 21.17,17.94 29,22.82z"/>
  <path class="fil9" d="M540.5 1218.99c8.55,6.25 16.08,14.79 23.38,22.45 7.92,8.3 15.48,16.96 22.64,25.93 12.52,15.67 22.75,32.83 33.87,49.49 4.9,7.36 13.76,-2.06 18.37,-5.48 7.84,-5.8 15.25,-12.19 22.26,-18.97 13.72,-13.26 25.94,-28 37.59,-43.08 15.79,-20.46 40.76,-53.9 37.22,-81.27 -0.5,-3.88 -7.24,-6.38 -9.93,-8.59 -4.57,-3.74 -8.8,-7.94 -13.26,-11.8 -8.76,-7.58 -17.72,-14.9 -26.87,-22 -11.1,-8.62 -22.9,-17.73 -36.64,-21.65 -5.56,-1.6 -11.2,10.57 -14.09,14.25 -4.67,5.94 -9.58,11.68 -14.51,17.41 -8.05,9.35 -15.81,18.85 -24.95,27.21 -17.83,16.3 -37.46,30.24 -56.25,45.35 -4.22,3.39 -2.52,7.94 1.17,10.75z"/>
  <path class="fil9" d="M816.24 1505.12c1.21,-3.75 1.99,-8.06 2.41,-13.23 1.09,-13.32 -0.42,-26.47 -3.18,-39.4l-1.16 -0.24c-59.47,1.7 -120.24,4.34 -179.14,13.86 -0.64,14.3 -1.26,29.11 2.75,42.17 3.13,10.19 9.49,15.93 17.34,19.33 22.48,6.6 56.02,2.45 74.42,1.42 21.82,-1.22 60.17,-3.01 78.88,-15.37 3.5,-2.32 5.84,-5.29 7.68,-8.54z"/>
  <path class="fil6" d="M887 2148.1c-202.15,27.94 -419.47,80.72 -623.21,40.38 -0.08,-14.81 -0.17,-29.59 -0.23,-44.46 -0.01,-4.57 -0.04,-5.38 0.92,-8.38 5.02,1.1 8.15,1.75 17.89,2.46 200.44,14.36 393.03,-12.92 598.75,-25.57 1.72,-0.11 1.41,6.63 1.9,9.11 1.73,8.68 2.94,17.54 3.98,26.46z"/>
  <path class="fil10" d="M659.03 2129.57c1.47,17.13 3.07,35.77 4.55,52.9 -42.04,6.13 -84.26,11.54 -126.45,15.28 1.55,-20.48 0.27,-41.8 -1.17,-59.71 40.9,-2.25 81.87,-5.2 123.07,-8.47z"/>
  <path class="fil0" d="M1136.94 2203.08c-5.74,-11.6 -14.04,-10.38 -26.91,-13.16 -25.48,-5.55 -50.35,-12.01 -75.16,-20.15 -46.34,-15.22 -97.2,-31.99 -139.45,-57.62 43.19,-23.43 90.42,-58.3 66.86,-85.48 -12.13,-13.97 -34.99,-3.87 -46.24,2.89 -33.65,20.28 -55.84,38.76 -90.32,57.85 -58.07,-7.43 -114.53,-10.74 -171.64,-27.55 -60.51,-17.8 -119.57,-41.52 -176.98,-67.56 -29.61,-13.41 -69.88,-43.33 -89.07,-70.97 -17.32,-24.95 -28.53,-56.92 -39.83,-84.81 -23.03,-56.75 -17.93,-100.43 -38.52,-157.99 -1.56,-4.34 -17.4,-2.24 -17.9,1.65l-0.19 -0.08c-23.73,-1.5 -45.15,17.87 -64.21,29.91 -28.14,17.78 -59.2,31.37 -86.68,49.92 -1.66,1.12 -1.99,2.98 -1.6,4.59l-0.16 0.85c12.7,70.23 30.19,140.61 63.32,204.35 32.07,61.7 77.83,98.22 140.54,126.74 68.56,31.21 140.15,58.53 214.02,72.31 74.98,14 136.65,23.63 208.91,22.67 33.52,42.65 97.61,70.29 146.87,83.98 47.63,13.25 107.42,22.18 146.85,-14.96l0.75 -1.6c17.81,-3.91 33.85,-12.22 43.5,-28.97 12.63,-2.93 23.96,-8.62 32.23,-19.05 1.92,-2.39 2.4,-4.95 1.01,-7.76z"/>
  <path class="fil2" d="M1095.85 2240.24c-59.12,-8.8 -160.27,-27.35 -196.36,-52.18 -3.8,-2.62 -2.26,-5.18 1.55,-5.18 0.85,0 1.79,0.12 2.84,0.4 48.73,13.19 95.87,29.72 146.15,37.79 19.8,3.18 38.23,6.33 53.66,8.83 -2.26,3.94 -4.93,7.3 -7.84,10.34z"/>
  <path class="fil1" d="M1059.24 2260.66c0.06,-0.07 0.14,-0.13 0.21,-0.2l0 0c-0.07,0.07 -0.15,0.13 -0.21,0.2z"/>
  <path class="fil2" d="M1048.09 2269.41c-53.29,-7.73 -119.98,-20.45 -150.53,-41.11 -3.84,-2.58 -2.29,-5.18 1.57,-5.18 0.83,0 1.76,0.11 2.77,0.38 48.84,12.78 77.01,22.96 127.34,30.63 10.79,1.66 21.17,3.29 30.92,4.82l-0.71 1.51c-0.07,0.07 -0.15,0.13 -0.21,0.2 -3.54,3.31 -7.31,6.14 -11.15,8.75z"/>
  <path class="fil3 str0" d="M358.97 1695.2c-90.09,-117.26 -19.6,-366.25 -113.96,-432.13 -16.17,-4.4 -33.39,-0.39 -49.03,6.36 -163.11,118.99 -153.67,349.75 -91.37,527.58 1.4,4.02 5.55,7.05 9.96,5.67 89.31,-28.18 159.04,-51.1 241.36,-95.88 3.66,-2.01 5.78,-8.04 3.04,-11.6z"/>
  <path class="fil0" d="M899.19 661.54c-25.93,-18.73 -58.48,-25.6 -89.41,-21.02 2.18,-12.25 4.74,-24.56 8.26,-36.97 0.58,-2.08 0.13,-3.92 -0.86,-5.4 2.86,-29.54 -13.5,-62.08 -21.41,-89.37 -14.77,-50.92 -27.25,-103.46 -20.63,-156.82 3.06,-24.54 17.16,-65.22 -1.84,-86.95 -15.61,-17.84 -40.94,-9.12 -60.21,-4.25 -90.37,22.82 -190.32,10.82 -282.58,8.12 -47.04,-1.37 -94.1,-3.24 -141.02,-7.1 -48.2,-3.93 -96.4,-13.75 -144.66,-15.8 1.08,-6.03 20.76,-4 18.86,1.88 -30.32,94.34 -58.59,191.62 -55.57,289.64 0.94,30.59 1.49,60.95 1.78,91.26 -16.57,-3.76 -34.67,0.41 -47.43,13.16 -21.23,21.25 -17.51,52.56 -0.05,74.92 8.4,10.71 27.74,25.39 46.26,29.95 -1.02,32.72 -2.47,65.46 -4.99,98.44 -2.87,37.82 -2.14,77.16 21.8,108.65 22.46,29.52 59.78,46.09 92.96,60.07 81.99,34.48 167.23,46.96 255.22,45.57 52.85,2.08 107.32,-7.92 157.02,-24.12 47.04,-15.32 95.99,-34.94 125.93,-76.3 29.95,-41.41 39.36,-92.67 42.01,-142.66 0.5,-9.35 0.84,-18.61 1.13,-27.82 36.27,9.09 76.51,2.07 102.84,-26.67 24.87,-27.19 27.96,-77.75 -3.41,-100.41z"/>
  <path class="fil6" d="M911.86 251.54c-21.14,-27.8 -72.43,-34.65 -108.56,-25.97 9.08,-48.65 -54.18,-73.1 -95.24,-72.64 -30.91,0.35 -61.58,4.6 -92.2,8.35 -14.39,1.76 -28.78,3.07 -43.16,3.99 -15.49,1 -30.01,4.66 -45.67,2.22 -29.24,-4.57 -46.28,-27.83 -46.9,-56.76 -0.48,-21.7 8.9,-42.21 20.04,-60.3l1.54 -3.27c0.28,-2.12 -0.8,-3.99 -3.53,-4.2 -58.27,-4.45 -120.35,39.09 -153.35,88.59 3.29,-12.2 6.56,-24.39 11.56,-36.2 7.93,-18.75 19.18,-34.16 31.25,-50.41 1.61,-2.18 3.21,-5.17 1.69,-6.48 -0.18,-1.18 -3.09,-1.64 -4.5,-1.8 -54.58,-6.6 -132.47,35.74 -159,91.43 5.32,-30.8 14.9,-58.99 32.6,-87.24 2.4,-3.88 -1.94,-8.05 -5.82,-7.06 -47.15,12.18 -95.11,50.86 -125.97,97.76 -19.4,24.8 -34.16,52.6 -37.79,84.96 -5.67,50.41 20.39,91 60.55,119.25 37.9,26.69 81.09,41.47 126.94,48.34 82.4,18.49 170.16,12.96 251.33,-8.6 23.19,-6.18 54.81,-13.56 77.34,-21.94 31.81,-11.98 72.3,-29.46 108.48,-48.25 -17.5,26.34 -29.1,56 -30.32,88.92 -1.53,40.86 21.45,72.89 33.26,110.82 17.13,55.01 20.54,107.72 13.84,164.62 -0.2,1.67 0.4,2.93 1.28,4 31.55,-15.13 63.33,-33.48 96.64,-34.05 12.9,-15.25 25.96,-37.64 34.84,-52.62 32.65,-55.16 52.51,-116.35 64.46,-179.3 9.19,-48.4 16.57,-113.84 -15.63,-156.16z"/>
  <path class="fil2" d="M418 758.24c-0.09,0 -0.16,0 -0.25,-0.01 -21.84,-0.71 -43.02,-2.95 -64.59,-2.95 -6.71,0 -13.46,0.21 -20.27,0.75 -0.22,0.03 -0.42,0.03 -0.63,0.03 -5.65,0 -8.96,-6.22 -7.88,-11.19 16.25,-75.36 33.53,-156.81 61.88,-228.52 0.66,-1.72 2.44,-2.61 4.08,-2.61 1.88,0 3.6,1.16 3.36,3.62 -7.17,73.3 -28.15,149.7 -48.98,220.84 3.69,-0.06 7.38,-0.09 11.07,-0.09 21.5,0 42.88,1.26 63.7,7.24 6.97,1.99 5.79,12.89 -1.49,12.89z"/>
  <path class="fil6" d="M291.07 426.33l-2.87 -1.06c-49.52,-3.51 -99.21,2.08 -145.27,21.12 -1.51,0.63 -2.44,1.81 -2.46,3.47 -0.18,14.28 3.5,26.68 8.17,40.2 1.02,2.98 3.9,4.24 6.87,3.58 42.13,-9.2 87.33,-18.11 130.58,-11.78 3.67,0.53 6.79,-1.76 6.85,-5.6 0.26,-15.34 0.89,-30.61 1.51,-45.9 0.09,-2.24 -1.52,-3.51 -3.38,-4.03z"/>
  <path class="fil6" d="M485.45 427.69c0.72,15.31 1.49,30.58 1.85,45.88 0.09,3.86 3.22,6.14 6.9,5.56 43.19,-6.65 88.47,1.89 130.67,10.78 2.98,0.63 5.83,-0.67 6.84,-3.65 4.57,-13.55 8.15,-25.97 7.85,-40.26 -0.03,-1.66 -0.96,-2.83 -2.47,-3.44 -46.23,-18.68 -95.97,-23.89 -145.43,-20.01l-2.88 1.11c-1.84,0.52 -3.45,1.8 -3.33,4.03z"/>
  <path class="fil6" d="M271.11 566.87c-8.57,-9.52 -22.01,-14.79 -34.04,-8.22 -2.56,1.4 -4.53,3.07 -6.12,4.91l-1.08 0.69c-17.97,23.4 -31.21,78.38 -12.66,104.52 18.08,25.48 49.06,1.69 59.53,-18.71 12.1,-23.58 13.13,-62.4 -5.63,-83.19z"/>
  <path class="fil6" d="M567.87 566.87c-8.59,-9.52 -22.03,-14.79 -34.04,-8.22 -2.55,1.4 -4.54,3.07 -6.12,4.91l-1.08 0.69c-17.98,23.4 -31.21,78.38 -12.66,104.52 18.08,25.48 49.05,1.69 59.53,-18.71 12.1,-23.58 13.13,-62.4 -5.63,-83.19z"/>
  <path class="fil9" d="M255.09 601.38c-19.25,0 -19.28,29.95 0,29.95 19.28,0 19.31,-29.95 0,-29.95z"/>
  <path class="fil9" d="M552.77 605.78c-19.27,0 -19.3,29.93 0,29.93 19.26,0 19.3,-29.93 0,-29.93z"/>
  <path class="fil11" d="M607.66 736.19c-0.84,-3.27 -3.03,-6.06 -6.67,-5.1 -49.64,13.24 -93.84,40.91 -140.95,60.77 -50.17,21.16 -101.94,35.17 -153.72,51.47l-2.24 2.22c-1.87,1.05 -3.33,2.85 -3.45,5.58 -4.67,99.83 116.29,134.4 196.83,121.41 102.2,-16.49 131.46,-154.08 110.2,-236.35z"/>
  <path class="fil9" d="M530.11 822.53c12.87,-5.45 39.43,-12.59 47.69,-24.4 10.86,-15.55 6.4,-40.41 2.06,-60.42 -41.29,14.5 -79.5,37.15 -119.82,54.15 -46.77,19.73 -94.95,33.3 -143.22,48.25 4.34,11.18 11.58,20.02 25.08,22.09 37.35,5.68 88.73,-8.82 124.49,-18.16 21.72,-5.68 43.02,-12.79 63.72,-21.51z"/>
  <path class="fil12" d="M575.48 922.82c-34.67,-43.64 -128.68,-3.82 -123.93,51.96 15.95,0.8 31.58,0.06 45.91,-2.24 33.73,-5.44 59.36,-24.23 78.02,-49.72z"/>
  <path class="fil1" d="M1366.72 1086.24c-0.04,0 -0.07,-0.02 -0.12,-0.02l-0.07 -3.31c0,-0.05 0.07,-0.06 0.24,-0.08 -0.02,1.13 -0.03,2.28 -0.05,3.41z"/>
  <g id="_2198570930208">
   <rect class="fil13" transform="matrix(0.0504313 -0 0.0152113 0.0504313 645.648 1474)" width="3090.33" height="550.33"/>
   <g id="_1362252173008">
    <g>
     <path class="fil14" d="M765.8 1484.12c-0.58,0.59 -1.38,0.66 -0.73,2.2 0.99,2.37 3.89,2.65 5.45,2.16 0.98,-0.29 1.21,-0.82 1.31,-1.85 0.74,-0.08 0.83,-0.11 1.29,-0.49l-0.26 -1.12c-1.62,0.78 -0.86,0.42 -2.74,0.03 -2.24,-0.46 -1.61,0.97 -1.45,1.51l0.72 -0.38c0.17,2.2 -2.52,0.68 -2.07,-0.69 0.13,-0.4 0.74,-0.38 1.12,-0.54l-0.51 -1.41c-1.85,-0.15 -1.44,-2.2 -0.07,-1.39 0.41,0.24 0.31,0.44 0.78,0.84l2.01 -0.33c-1.66,-3.01 -6.26,-2.47 -6.39,-0.78 -0.09,1.19 0.77,1.92 1.54,2.24l0 0z"/>
     <path class="fil15" d="M699.06 1493.97l-1.19 0 0 0.55 -1.08 0 0.27 -3.36 1.15 0 2.29 3.36 -1.1 0 -0.34 -0.55zm-0.44 -0.73l-0.74 -1.21 -0.01 1.21 0.75 0z"/>
     <path id="_1" class="fil15" d="M700.4 1493.85l0.9 -0.09c0.07,0.11 0.15,0.19 0.24,0.24 0.08,0.05 0.18,0.07 0.3,0.07 0.12,0 0.21,-0.03 0.27,-0.08 0.04,-0.04 0.05,-0.09 0.03,-0.15 -0.02,-0.07 -0.07,-0.12 -0.15,-0.16 -0.06,-0.02 -0.2,-0.06 -0.44,-0.09 -0.34,-0.06 -0.58,-0.11 -0.73,-0.16 -0.14,-0.05 -0.27,-0.13 -0.39,-0.24 -0.12,-0.12 -0.21,-0.25 -0.25,-0.4 -0.05,-0.16 -0.04,-0.3 0.01,-0.42 0.06,-0.11 0.17,-0.2 0.32,-0.26 0.14,-0.05 0.36,-0.08 0.63,-0.08 0.3,0 0.52,0.02 0.67,0.06 0.16,0.05 0.29,0.12 0.41,0.21 0.13,0.09 0.24,0.22 0.35,0.38l-0.86 0.09c-0.05,-0.08 -0.11,-0.14 -0.17,-0.17 -0.09,-0.05 -0.19,-0.08 -0.29,-0.08 -0.11,0 -0.18,0.02 -0.22,0.06 -0.03,0.04 -0.04,0.08 -0.03,0.14 0.02,0.06 0.07,0.1 0.14,0.13 0.06,0.03 0.21,0.06 0.42,0.08 0.33,0.04 0.57,0.09 0.74,0.15 0.18,0.06 0.32,0.15 0.44,0.27 0.11,0.12 0.19,0.25 0.23,0.38 0.05,0.14 0.05,0.28 0,0.42 -0.05,0.13 -0.15,0.23 -0.31,0.31 -0.16,0.08 -0.4,0.12 -0.72,0.12 -0.45,0 -0.79,-0.06 -1.01,-0.19 -0.23,-0.13 -0.41,-0.31 -0.53,-0.54l0 0z"/>
     <path id="_2" class="fil15" d="M706.1 1493.54l-1.9 0c0.07,0.15 0.14,0.26 0.23,0.33 0.12,0.11 0.26,0.16 0.4,0.16 0.1,0 0.18,-0.02 0.25,-0.07 0.04,-0.03 0.08,-0.08 0.12,-0.15l0.95 0.09c-0.06,0.24 -0.18,0.41 -0.35,0.52 -0.17,0.11 -0.44,0.16 -0.82,0.16 -0.33,0 -0.59,-0.04 -0.81,-0.14 -0.22,-0.09 -0.41,-0.23 -0.6,-0.43 -0.18,-0.2 -0.31,-0.43 -0.39,-0.7 -0.12,-0.38 -0.09,-0.69 0.09,-0.93 0.17,-0.23 0.48,-0.35 0.91,-0.35 0.35,0 0.65,0.05 0.88,0.16 0.24,0.1 0.44,0.26 0.61,0.46 0.17,0.2 0.3,0.46 0.4,0.78l0.03 0.11 0 0zm-1.1 -0.45c-0.07,-0.18 -0.16,-0.31 -0.26,-0.39 -0.1,-0.08 -0.22,-0.12 -0.35,-0.12 -0.15,0 -0.25,0.06 -0.31,0.18 -0.03,0.08 -0.04,0.19 -0.01,0.33l0.93 0 0 0z"/>
     <path id="_3" class="fil15" d="M706.46 1493.85l0.91 -0.09c0.07,0.11 0.15,0.19 0.23,0.24 0.08,0.05 0.18,0.07 0.3,0.07 0.12,0 0.22,-0.03 0.27,-0.08 0.04,-0.04 0.05,-0.09 0.03,-0.15 -0.02,-0.07 -0.07,-0.12 -0.15,-0.16 -0.06,-0.02 -0.2,-0.06 -0.43,-0.09 -0.35,-0.06 -0.59,-0.11 -0.73,-0.16 -0.15,-0.05 -0.28,-0.13 -0.4,-0.24 -0.12,-0.12 -0.2,-0.25 -0.25,-0.4 -0.05,-0.16 -0.04,-0.3 0.02,-0.42 0.06,-0.11 0.16,-0.2 0.31,-0.26 0.14,-0.05 0.36,-0.08 0.64,-0.08 0.29,0 0.51,0.02 0.67,0.06 0.15,0.05 0.28,0.12 0.41,0.21 0.12,0.09 0.24,0.22 0.34,0.38l-0.86 0.09c-0.05,-0.08 -0.11,-0.14 -0.17,-0.17 -0.09,-0.05 -0.18,-0.08 -0.29,-0.08 -0.11,0 -0.18,0.02 -0.21,0.06 -0.04,0.04 -0.05,0.08 -0.03,0.14 0.01,0.06 0.06,0.1 0.13,0.13 0.07,0.03 0.21,0.06 0.42,0.08 0.33,0.04 0.58,0.09 0.75,0.15 0.17,0.06 0.31,0.15 0.43,0.27 0.12,0.12 0.2,0.25 0.24,0.38 0.04,0.14 0.04,0.28 -0.01,0.42 -0.04,0.13 -0.15,0.23 -0.31,0.31 -0.16,0.08 -0.4,0.12 -0.71,0.12 -0.45,0 -0.79,-0.06 -1.02,-0.19 -0.23,-0.13 -0.41,-0.31 -0.53,-0.54l0 0z"/>
     <path id="_4" class="fil15" d="M709.25 1493.31c-0.12,-0.37 -0.08,-0.68 0.1,-0.92 0.18,-0.24 0.48,-0.36 0.91,-0.36 0.49,0 0.91,0.14 1.25,0.42 0.27,0.23 0.45,0.51 0.55,0.85 0.12,0.37 0.09,0.68 -0.09,0.92 -0.18,0.24 -0.49,0.36 -0.93,0.36 -0.4,0 -0.75,-0.1 -1.05,-0.3 -0.38,-0.25 -0.62,-0.57 -0.74,-0.97l0 0zm0.94 0c0.06,0.22 0.16,0.38 0.28,0.48 0.12,0.11 0.24,0.16 0.38,0.16 0.14,0 0.23,-0.05 0.29,-0.15 0.05,-0.1 0.04,-0.27 -0.02,-0.5 -0.07,-0.21 -0.16,-0.37 -0.28,-0.47 -0.12,-0.11 -0.24,-0.16 -0.37,-0.16 -0.14,0 -0.24,0.05 -0.29,0.16 -0.06,0.11 -0.06,0.27 0.01,0.48l0 0z"/>
     <path id="_5" class="fil15" d="M712.17 1492.09l0.88 0 0.12 0.39c0.03,-0.17 0.08,-0.29 0.15,-0.35 0.07,-0.07 0.18,-0.1 0.31,-0.1 0.14,0 0.3,0.04 0.5,0.13l-0.1 0.66c-0.12,-0.04 -0.22,-0.07 -0.28,-0.07 -0.13,0 -0.21,0.05 -0.24,0.15 -0.06,0.15 -0.03,0.41 0.09,0.8l0.25 0.82 -0.95 0 -0.74 -2.43 0.01 0z"/>
     <path id="_6" class="fil15" d="M717.51 1493.54l-1.9 0c0.07,0.15 0.14,0.26 0.23,0.33 0.12,0.11 0.26,0.16 0.4,0.16 0.1,0 0.18,-0.02 0.25,-0.07 0.04,-0.03 0.08,-0.08 0.12,-0.15l0.95 0.09c-0.06,0.24 -0.18,0.41 -0.35,0.52 -0.17,0.11 -0.44,0.16 -0.82,0.16 -0.33,0 -0.6,-0.04 -0.81,-0.14 -0.22,-0.09 -0.41,-0.23 -0.6,-0.43 -0.18,-0.2 -0.31,-0.43 -0.39,-0.7 -0.12,-0.38 -0.09,-0.69 0.09,-0.93 0.17,-0.23 0.48,-0.35 0.91,-0.35 0.35,0 0.65,0.05 0.88,0.16 0.24,0.1 0.44,0.26 0.61,0.46 0.17,0.2 0.3,0.46 0.4,0.78l0.03 0.11 0 0zm-1.1 -0.45c-0.07,-0.18 -0.16,-0.31 -0.26,-0.39 -0.1,-0.08 -0.22,-0.12 -0.35,-0.12 -0.15,0 -0.25,0.06 -0.31,0.18 -0.03,0.08 -0.04,0.19 -0.01,0.33l0.93 0z"/>
     <path id="_7" class="fil15" d="M717.87 1493.85l0.91 -0.09c0.07,0.11 0.15,0.19 0.23,0.24 0.08,0.05 0.18,0.07 0.3,0.07 0.12,0 0.22,-0.03 0.27,-0.08 0.04,-0.04 0.05,-0.09 0.03,-0.15 -0.02,-0.07 -0.07,-0.12 -0.15,-0.16 -0.06,-0.02 -0.2,-0.06 -0.43,-0.09 -0.35,-0.06 -0.59,-0.11 -0.73,-0.16 -0.15,-0.05 -0.28,-0.13 -0.4,-0.24 -0.12,-0.12 -0.2,-0.25 -0.25,-0.4 -0.05,-0.16 -0.04,-0.3 0.02,-0.42 0.06,-0.11 0.16,-0.2 0.31,-0.26 0.14,-0.05 0.36,-0.08 0.63,-0.08 0.3,0 0.52,0.02 0.67,0.06 0.16,0.05 0.29,0.12 0.42,0.21 0.12,0.09 0.23,0.22 0.34,0.38l-0.86 0.09c-0.05,-0.08 -0.11,-0.14 -0.17,-0.17 -0.09,-0.05 -0.19,-0.08 -0.29,-0.08 -0.11,0 -0.18,0.02 -0.21,0.06 -0.04,0.04 -0.05,0.08 -0.04,0.14 0.02,0.06 0.06,0.1 0.14,0.13 0.07,0.03 0.21,0.06 0.42,0.08 0.33,0.04 0.57,0.09 0.75,0.15 0.17,0.06 0.31,0.15 0.43,0.27 0.12,0.12 0.19,0.25 0.24,0.38 0.04,0.14 0.04,0.28 -0.01,0.42 -0.04,0.13 -0.15,0.23 -0.31,0.31 -0.16,0.08 -0.4,0.12 -0.72,0.12 -0.44,0 -0.78,-0.06 -1.01,-0.19 -0.23,-0.13 -0.41,-0.31 -0.54,-0.54l0.01 0z"/>
     <path id="_8" class="fil15" d="M721.71 1492.09l1 0 0.99 1.62 -0.02 -1.62 0.93 0 -0.19 2.6c-0.02,0.3 -0.07,0.5 -0.16,0.6 -0.12,0.15 -0.35,0.22 -0.68,0.22 -0.14,0 -0.35,-0.02 -0.64,-0.05l-0.28 -0.66c0.15,0.05 0.31,0.07 0.48,0.07 0.11,0 0.19,-0.03 0.24,-0.08 0.06,-0.05 0.09,-0.14 0.1,-0.26l-1.77 -2.44 0 0z"/>
     <path id="_9" class="fil15" d="M729.11 1493.15l1 0.27c0.01,0.26 -0.02,0.47 -0.1,0.64 -0.08,0.17 -0.21,0.3 -0.38,0.39 -0.17,0.09 -0.41,0.13 -0.71,0.13 -0.37,0 -0.69,-0.05 -0.96,-0.16 -0.26,-0.11 -0.52,-0.29 -0.77,-0.56 -0.25,-0.26 -0.44,-0.61 -0.56,-1.03 -0.17,-0.55 -0.15,-0.98 0.06,-1.28 0.21,-0.3 0.58,-0.45 1.13,-0.45 0.43,0 0.79,0.09 1.09,0.26 0.29,0.17 0.56,0.43 0.78,0.79l-0.86 0.2c-0.06,-0.1 -0.12,-0.17 -0.17,-0.22 -0.08,-0.08 -0.17,-0.14 -0.27,-0.18 -0.1,-0.05 -0.2,-0.07 -0.31,-0.07 -0.24,0 -0.39,0.1 -0.46,0.29 -0.05,0.14 -0.04,0.36 0.05,0.66 0.12,0.37 0.25,0.62 0.41,0.77 0.15,0.13 0.34,0.2 0.54,0.2 0.21,0 0.34,-0.06 0.41,-0.17 0.07,-0.11 0.09,-0.27 0.08,-0.48l0 0z"/>
     <path id="_10" class="fil15" d="M730.41 1493.31c-0.12,-0.37 -0.08,-0.68 0.1,-0.92 0.18,-0.24 0.48,-0.36 0.91,-0.36 0.5,0 0.91,0.14 1.25,0.42 0.27,0.23 0.46,0.51 0.56,0.85 0.11,0.37 0.08,0.68 -0.1,0.92 -0.18,0.24 -0.49,0.36 -0.93,0.36 -0.4,0 -0.75,-0.1 -1.05,-0.3 -0.37,-0.25 -0.62,-0.57 -0.74,-0.97l0 0zm0.94 0c0.07,0.22 0.16,0.38 0.28,0.48 0.12,0.11 0.25,0.16 0.38,0.16 0.14,0 0.23,-0.05 0.29,-0.15 0.05,-0.1 0.05,-0.27 -0.02,-0.5 -0.06,-0.21 -0.16,-0.37 -0.28,-0.47 -0.12,-0.11 -0.24,-0.16 -0.37,-0.16 -0.14,0 -0.23,0.05 -0.29,0.16 -0.06,0.11 -0.05,0.27 0.01,0.48l0 0z"/>
     <path id="_11" class="fil15" d="M733.33 1492.09l0.88 0 0.12 0.39c0.03,-0.17 0.08,-0.29 0.15,-0.35 0.08,-0.07 0.18,-0.1 0.31,-0.1 0.14,0 0.3,0.04 0.5,0.13l-0.09 0.66c-0.13,-0.04 -0.23,-0.07 -0.29,-0.07 -0.12,0 -0.2,0.05 -0.24,0.15 -0.06,0.15 -0.03,0.41 0.09,0.8l0.25 0.82 -0.95 0 -0.73 -2.43z"/>
     <path id="_12" class="fil15" d="M735.63 1492.09l0.88 0 0.12 0.39c0.04,-0.17 0.09,-0.29 0.16,-0.35 0.07,-0.07 0.17,-0.1 0.31,-0.1 0.14,0 0.3,0.04 0.49,0.13l-0.09 0.66c-0.12,-0.04 -0.22,-0.07 -0.29,-0.07 -0.12,0 -0.2,0.05 -0.24,0.15 -0.05,0.15 -0.02,0.41 0.1,0.8l0.24 0.82 -0.95 0 -0.73 -2.43 0 0z"/>
     <path id="_13" class="fil15" d="M740.97 1493.54l-1.89 0c0.06,0.15 0.14,0.26 0.23,0.33 0.12,0.11 0.25,0.16 0.4,0.16 0.09,0 0.17,-0.02 0.24,-0.07 0.05,-0.03 0.09,-0.08 0.13,-0.15l0.95 0.09c-0.07,0.24 -0.19,0.41 -0.36,0.52 -0.17,0.11 -0.44,0.16 -0.81,0.16 -0.33,0 -0.6,-0.04 -0.81,-0.14 -0.22,-0.09 -0.42,-0.23 -0.6,-0.43 -0.18,-0.2 -0.32,-0.43 -0.4,-0.7 -0.11,-0.38 -0.08,-0.69 0.09,-0.93 0.18,-0.23 0.48,-0.35 0.92,-0.35 0.35,0 0.64,0.05 0.88,0.16 0.24,0.1 0.44,0.26 0.61,0.46 0.16,0.2 0.29,0.46 0.39,0.78l0.03 0.11 0 0zm-1.09 -0.45c-0.07,-0.18 -0.16,-0.31 -0.27,-0.39 -0.1,-0.08 -0.21,-0.12 -0.35,-0.12 -0.15,0 -0.25,0.06 -0.3,0.18 -0.04,0.08 -0.04,0.19 -0.01,0.33l0.93 0 0 0z"/>
     <path id="_14" class="fil15" d="M743.28 1491.16l1.01 3.36 -0.88 0 -0.11 -0.36c-0.07,0.16 -0.16,0.26 -0.25,0.32 -0.11,0.07 -0.25,0.1 -0.42,0.1 -0.33,0 -0.62,-0.12 -0.88,-0.38 -0.25,-0.25 -0.43,-0.56 -0.54,-0.92 -0.12,-0.4 -0.12,-0.72 0.01,-0.93 0.13,-0.21 0.35,-0.32 0.65,-0.32 0.15,0 0.29,0.02 0.42,0.07 0.14,0.05 0.26,0.12 0.38,0.22l-0.35 -1.16 0.96 0 0 0zm-0.3 2.13c-0.06,-0.19 -0.15,-0.33 -0.26,-0.43 -0.11,-0.09 -0.23,-0.14 -0.35,-0.14 -0.11,0 -0.18,0.05 -0.23,0.14 -0.05,0.09 -0.04,0.24 0.02,0.46 0.06,0.19 0.15,0.34 0.25,0.44 0.11,0.09 0.22,0.14 0.33,0.14 0.12,0 0.2,-0.05 0.26,-0.14 0.05,-0.1 0.04,-0.25 -0.02,-0.47l0 0z"/>
     <path id="_15" class="fil15" d="M744.39 1493.31c-0.11,-0.37 -0.08,-0.68 0.1,-0.92 0.18,-0.24 0.49,-0.36 0.92,-0.36 0.49,0 0.9,0.14 1.24,0.42 0.27,0.23 0.46,0.51 0.56,0.85 0.11,0.37 0.08,0.68 -0.1,0.92 -0.18,0.24 -0.49,0.36 -0.93,0.36 -0.4,0 -0.75,-0.1 -1.05,-0.3 -0.37,-0.25 -0.62,-0.57 -0.74,-0.97l0 0zm0.94 0c0.07,0.22 0.16,0.38 0.28,0.48 0.12,0.11 0.25,0.16 0.38,0.16 0.14,0 0.23,-0.05 0.29,-0.15 0.06,-0.1 0.05,-0.27 -0.02,-0.5 -0.07,-0.21 -0.15,-0.37 -0.28,-0.47 -0.12,-0.11 -0.24,-0.16 -0.37,-0.16 -0.14,0 -0.23,0.05 -0.29,0.16 -0.06,0.11 -0.05,0.27 0.01,0.48l0 0z"/>
     <path id="_16" class="fil15" d="M747.31 1492.09l0.88 0 0.12 0.39c0.03,-0.17 0.08,-0.29 0.16,-0.35 0.07,-0.07 0.17,-0.1 0.3,-0.1 0.14,0 0.31,0.04 0.5,0.13l-0.1 0.66c-0.12,-0.04 -0.21,-0.07 -0.28,-0.07 -0.12,0 -0.2,0.05 -0.24,0.15 -0.05,0.15 -0.03,0.41 0.09,0.8l0.25 0.82 -0.95 0 -0.73 -2.43 0 0z"/>
     <path id="_17" class="fil15" d="M752.65 1493.54l-1.89 0c0.06,0.15 0.13,0.26 0.22,0.33 0.12,0.11 0.26,0.16 0.4,0.16 0.1,0 0.18,-0.02 0.25,-0.07 0.04,-0.03 0.08,-0.08 0.12,-0.15l0.96 0.09c-0.07,0.24 -0.19,0.41 -0.36,0.52 -0.17,0.11 -0.44,0.16 -0.82,0.16 -0.33,0 -0.59,-0.04 -0.81,-0.14 -0.21,-0.09 -0.41,-0.23 -0.59,-0.43 -0.19,-0.2 -0.32,-0.43 -0.4,-0.7 -0.12,-0.38 -0.09,-0.69 0.09,-0.93 0.17,-0.23 0.48,-0.35 0.91,-0.35 0.36,0 0.65,0.05 0.89,0.16 0.23,0.1 0.43,0.26 0.6,0.46 0.17,0.2 0.3,0.46 0.4,0.78l0.03 0.11 0 0zm-1.09 -0.45c-0.08,-0.18 -0.17,-0.31 -0.27,-0.39 -0.1,-0.08 -0.22,-0.12 -0.35,-0.12 -0.15,0 -0.25,0.06 -0.3,0.18 -0.04,0.08 -0.04,0.19 -0.02,0.33l0.94 0z"/>
     <path id="_18" class="fil15" d="M753.01 1493.85l0.91 -0.09c0.07,0.11 0.15,0.19 0.23,0.24 0.08,0.05 0.18,0.07 0.3,0.07 0.13,0 0.22,-0.03 0.27,-0.08 0.04,-0.04 0.05,-0.09 0.04,-0.15 -0.02,-0.07 -0.07,-0.12 -0.16,-0.16 -0.06,-0.02 -0.2,-0.06 -0.43,-0.09 -0.35,-0.06 -0.59,-0.11 -0.73,-0.16 -0.14,-0.05 -0.27,-0.13 -0.4,-0.24 -0.12,-0.12 -0.2,-0.25 -0.25,-0.4 -0.05,-0.16 -0.04,-0.3 0.02,-0.42 0.06,-0.11 0.16,-0.2 0.31,-0.26 0.15,-0.05 0.36,-0.08 0.64,-0.08 0.29,0 0.51,0.02 0.67,0.06 0.15,0.05 0.29,0.12 0.41,0.21 0.12,0.09 0.24,0.22 0.35,0.38l-0.87 0.09c-0.05,-0.08 -0.1,-0.14 -0.17,-0.17 -0.09,-0.05 -0.18,-0.08 -0.29,-0.08 -0.11,0 -0.18,0.02 -0.21,0.06 -0.04,0.04 -0.05,0.08 -0.03,0.14 0.01,0.06 0.06,0.1 0.13,0.13 0.07,0.03 0.21,0.06 0.42,0.08 0.33,0.04 0.58,0.09 0.75,0.15 0.17,0.06 0.32,0.15 0.43,0.27 0.12,0.12 0.2,0.25 0.24,0.38 0.04,0.14 0.04,0.28 -0.01,0.42 -0.04,0.13 -0.15,0.23 -0.31,0.31 -0.16,0.08 -0.4,0.12 -0.71,0.12 -0.45,0 -0.79,-0.06 -1.02,-0.19 -0.23,-0.13 -0.41,-0.31 -0.53,-0.54l0 0z"/>
     <path id="_19" class="fil15" d="M759.44 1491.16l1.01 3.36 -0.88 0 -0.11 -0.36c-0.08,0.16 -0.16,0.26 -0.25,0.32 -0.11,0.07 -0.25,0.1 -0.42,0.1 -0.33,0 -0.63,-0.12 -0.88,-0.38 -0.26,-0.25 -0.44,-0.56 -0.55,-0.92 -0.12,-0.4 -0.11,-0.72 0.02,-0.93 0.13,-0.21 0.34,-0.32 0.64,-0.32 0.15,0 0.29,0.02 0.43,0.07 0.13,0.05 0.26,0.12 0.38,0.22l-0.35 -1.16 0.96 0 0 0zm-0.31 2.13c-0.06,-0.19 -0.14,-0.33 -0.25,-0.43 -0.11,-0.09 -0.23,-0.14 -0.35,-0.14 -0.11,0 -0.19,0.05 -0.24,0.14 -0.04,0.09 -0.03,0.24 0.03,0.46 0.06,0.19 0.14,0.34 0.25,0.44 0.1,0.09 0.21,0.14 0.32,0.14 0.12,0 0.21,-0.05 0.26,-0.14 0.05,-0.1 0.05,-0.25 -0.02,-0.47l0 0z"/>
     <path id="_20" class="fil15" d="M763.46 1493.54l-1.89 0c0.06,0.15 0.13,0.26 0.22,0.33 0.12,0.11 0.26,0.16 0.41,0.16 0.09,0 0.17,-0.02 0.24,-0.07 0.04,-0.03 0.08,-0.08 0.12,-0.15l0.95 0.09c-0.06,0.24 -0.18,0.41 -0.35,0.52 -0.17,0.11 -0.44,0.16 -0.82,0.16 -0.32,0 -0.6,-0.04 -0.81,-0.14 -0.21,-0.09 -0.41,-0.23 -0.6,-0.43 -0.18,-0.2 -0.31,-0.43 -0.39,-0.7 -0.12,-0.38 -0.09,-0.69 0.09,-0.93 0.18,-0.23 0.48,-0.35 0.91,-0.35 0.36,0 0.65,0.05 0.89,0.16 0.23,0.1 0.43,0.26 0.6,0.46 0.17,0.2 0.3,0.46 0.4,0.78l0.03 0.11 0 0zm-1.09 -0.45c-0.08,-0.18 -0.17,-0.31 -0.27,-0.39 -0.1,-0.08 -0.22,-0.12 -0.35,-0.12 -0.15,0 -0.25,0.06 -0.31,0.18 -0.03,0.08 -0.04,0.19 -0.01,0.33l0.94 0z"/>
     <path id="_21" class="fil15" d="M765.32 1493.41l0.97 -0.06c0.07,0.16 0.16,0.28 0.25,0.37 0.15,0.13 0.32,0.2 0.52,0.2 0.15,0 0.26,-0.04 0.31,-0.11 0.07,-0.07 0.08,-0.15 0.05,-0.24 -0.02,-0.08 -0.09,-0.16 -0.18,-0.23 -0.1,-0.07 -0.3,-0.13 -0.6,-0.2 -0.49,-0.1 -0.86,-0.24 -1.1,-0.4 -0.25,-0.18 -0.42,-0.39 -0.5,-0.65 -0.05,-0.18 -0.05,-0.34 0.01,-0.49 0.05,-0.16 0.17,-0.28 0.35,-0.37 0.17,-0.08 0.44,-0.13 0.79,-0.13 0.43,0 0.79,0.08 1.07,0.24 0.27,0.16 0.48,0.42 0.63,0.77l-0.97 0.06c-0.07,-0.16 -0.16,-0.27 -0.26,-0.34 -0.11,-0.07 -0.24,-0.1 -0.38,-0.1 -0.13,0 -0.21,0.02 -0.26,0.07 -0.04,0.06 -0.05,0.12 -0.03,0.19 0.01,0.06 0.05,0.1 0.12,0.15 0.06,0.04 0.19,0.08 0.39,0.12 0.48,0.1 0.84,0.2 1.07,0.3 0.23,0.1 0.41,0.22 0.55,0.37 0.13,0.15 0.23,0.32 0.28,0.5 0.07,0.21 0.07,0.41 0,0.6 -0.06,0.18 -0.19,0.32 -0.38,0.41 -0.19,0.1 -0.45,0.14 -0.78,0.14 -0.57,0 -1.01,-0.11 -1.29,-0.33 -0.29,-0.22 -0.5,-0.5 -0.63,-0.84l0 0z"/>
     <path id="_22" class="fil15" d="M771.63 1493.54l-1.89 0c0.06,0.15 0.13,0.26 0.22,0.33 0.13,0.11 0.26,0.16 0.41,0.16 0.09,0 0.17,-0.02 0.24,-0.07 0.04,-0.03 0.09,-0.08 0.12,-0.15l0.96 0.09c-0.07,0.24 -0.19,0.41 -0.36,0.52 -0.17,0.11 -0.44,0.16 -0.82,0.16 -0.32,0 -0.59,-0.04 -0.81,-0.14 -0.21,-0.09 -0.41,-0.23 -0.59,-0.43 -0.19,-0.2 -0.32,-0.43 -0.4,-0.7 -0.11,-0.38 -0.08,-0.69 0.09,-0.93 0.18,-0.23 0.48,-0.35 0.92,-0.35 0.35,0 0.64,0.05 0.88,0.16 0.24,0.1 0.44,0.26 0.6,0.46 0.17,0.2 0.3,0.46 0.4,0.78l0.03 0.11 0 0zm-1.09 -0.45c-0.08,-0.18 -0.16,-0.31 -0.27,-0.39 -0.1,-0.08 -0.22,-0.12 -0.35,-0.12 -0.15,0 -0.25,0.06 -0.3,0.18 -0.04,0.08 -0.04,0.19 -0.01,0.33l0.93 0 0 0z"/>
     <path id="_23" class="fil15" d="M773.46 1492.09l0.88 0 0.69 2.3 0.04 0.1c0.04,0.16 0.05,0.3 0.03,0.44 -0.02,0.14 -0.08,0.25 -0.16,0.34 -0.08,0.08 -0.2,0.14 -0.36,0.19 -0.16,0.03 -0.34,0.05 -0.56,0.05 -0.49,0 -0.85,-0.07 -1.08,-0.22 -0.23,-0.14 -0.38,-0.34 -0.46,-0.59 -0.01,-0.03 -0.02,-0.07 -0.03,-0.12l0.95 0.1c0.05,0.08 0.1,0.14 0.16,0.17 0.08,0.05 0.17,0.08 0.28,0.08 0.14,0 0.23,-0.04 0.27,-0.11 0.05,-0.08 0.04,-0.2 -0.01,-0.38l-0.11 -0.37c-0.06,0.11 -0.13,0.19 -0.21,0.24 -0.12,0.08 -0.26,0.12 -0.43,0.12 -0.33,0 -0.64,-0.15 -0.93,-0.43 -0.2,-0.2 -0.36,-0.47 -0.46,-0.8 -0.11,-0.38 -0.11,-0.67 0.02,-0.87 0.13,-0.2 0.34,-0.3 0.64,-0.3 0.19,0 0.36,0.03 0.5,0.1 0.14,0.06 0.29,0.16 0.45,0.31l-0.11 -0.35 0 0zm-0.53 1.18c0.05,0.17 0.12,0.3 0.23,0.39 0.1,0.08 0.21,0.13 0.33,0.13 0.12,0 0.21,-0.05 0.26,-0.13 0.05,-0.09 0.05,-0.23 0,-0.41 -0.05,-0.17 -0.14,-0.31 -0.25,-0.4 -0.11,-0.1 -0.23,-0.14 -0.35,-0.14 -0.12,0 -0.2,0.04 -0.25,0.13 -0.04,0.08 -0.04,0.23 0.03,0.43l0 0z"/>
     <path id="_24" class="fil15" d="M778.23 1494.52l-0.88 0 -0.12 -0.39c-0.08,0.16 -0.18,0.28 -0.29,0.35 -0.11,0.07 -0.26,0.1 -0.46,0.1 -0.26,0 -0.48,-0.08 -0.68,-0.23 -0.19,-0.15 -0.34,-0.39 -0.43,-0.71l-0.47 -1.55 0.95 0 0.4 1.34c0.05,0.15 0.11,0.26 0.19,0.33 0.07,0.06 0.16,0.09 0.26,0.09 0.12,0 0.19,-0.04 0.24,-0.13 0.05,-0.08 0.04,-0.24 -0.03,-0.46l-0.36 -1.17 0.95 0 0.73 2.43z"/>
     <path id="_25" class="fil15" d="M778.08 1492.09l0.88 0 0.12 0.39c0.04,-0.17 0.09,-0.29 0.16,-0.35 0.07,-0.07 0.17,-0.1 0.31,-0.1 0.14,0 0.3,0.04 0.49,0.13l-0.09 0.66c-0.12,-0.04 -0.22,-0.07 -0.28,-0.07 -0.13,0 -0.21,0.05 -0.25,0.15 -0.05,0.15 -0.02,0.41 0.1,0.8l0.25 0.82 -0.95 0 -0.74 -2.43z"/>
     <path id="_26" class="fil15" d="M780.51 1493.31c-0.11,-0.37 -0.08,-0.68 0.1,-0.92 0.18,-0.24 0.49,-0.36 0.92,-0.36 0.49,0 0.9,0.14 1.24,0.42 0.27,0.23 0.46,0.51 0.56,0.85 0.11,0.37 0.08,0.68 -0.1,0.92 -0.18,0.24 -0.49,0.36 -0.93,0.36 -0.39,0 -0.74,-0.1 -1.05,-0.3 -0.37,-0.25 -0.62,-0.57 -0.74,-0.97zm0.94 0c0.07,0.22 0.16,0.38 0.28,0.48 0.12,0.11 0.25,0.16 0.38,0.16 0.14,0 0.24,-0.05 0.29,-0.15 0.06,-0.1 0.05,-0.27 -0.02,-0.5 -0.06,-0.21 -0.15,-0.37 -0.27,-0.47 -0.12,-0.11 -0.25,-0.16 -0.38,-0.16 -0.13,0 -0.23,0.05 -0.29,0.16 -0.05,0.11 -0.05,0.27 0.01,0.48l0 0z"/>
     <path id="_27" class="fil15" d="M783.78 1493.85l0.91 -0.09c0.07,0.11 0.15,0.19 0.24,0.24 0.08,0.05 0.18,0.07 0.3,0.07 0.12,0 0.21,-0.03 0.27,-0.08 0.04,-0.04 0.05,-0.09 0.03,-0.15 -0.02,-0.07 -0.07,-0.12 -0.15,-0.16 -0.06,-0.02 -0.2,-0.06 -0.44,-0.09 -0.34,-0.06 -0.58,-0.11 -0.72,-0.16 -0.15,-0.05 -0.28,-0.13 -0.4,-0.24 -0.12,-0.12 -0.21,-0.25 -0.25,-0.4 -0.05,-0.16 -0.04,-0.3 0.01,-0.42 0.06,-0.11 0.17,-0.2 0.32,-0.26 0.14,-0.05 0.36,-0.08 0.63,-0.08 0.3,0 0.52,0.02 0.67,0.06 0.16,0.05 0.29,0.12 0.41,0.21 0.13,0.09 0.24,0.22 0.35,0.38l-0.86 0.09c-0.05,-0.08 -0.11,-0.14 -0.17,-0.17 -0.09,-0.05 -0.19,-0.08 -0.29,-0.08 -0.11,0 -0.18,0.02 -0.22,0.06 -0.04,0.04 -0.04,0.08 -0.03,0.14 0.02,0.06 0.07,0.1 0.13,0.13 0.07,0.03 0.22,0.06 0.43,0.08 0.33,0.04 0.57,0.09 0.74,0.15 0.18,0.06 0.32,0.15 0.44,0.27 0.11,0.12 0.19,0.25 0.23,0.38 0.05,0.14 0.04,0.28 0,0.42 -0.05,0.13 -0.15,0.23 -0.31,0.31 -0.16,0.08 -0.4,0.12 -0.72,0.12 -0.45,0 -0.79,-0.06 -1.02,-0.19 -0.22,-0.13 -0.4,-0.31 -0.53,-0.54l0 0z"/>
     <path id="_28" class="fil15" d="M788.18 1493.41l0.98 -0.06c0.07,0.16 0.15,0.28 0.24,0.37 0.15,0.13 0.32,0.2 0.52,0.2 0.16,0 0.26,-0.04 0.32,-0.11 0.06,-0.07 0.07,-0.15 0.05,-0.24 -0.03,-0.08 -0.09,-0.16 -0.19,-0.23 -0.09,-0.07 -0.29,-0.13 -0.59,-0.2 -0.49,-0.1 -0.86,-0.24 -1.11,-0.4 -0.25,-0.18 -0.41,-0.39 -0.49,-0.65 -0.05,-0.18 -0.05,-0.34 0,-0.49 0.06,-0.16 0.17,-0.28 0.35,-0.37 0.18,-0.08 0.44,-0.13 0.79,-0.13 0.44,0 0.79,0.08 1.07,0.24 0.28,0.16 0.49,0.42 0.64,0.77l-0.97 0.06c-0.07,-0.16 -0.16,-0.27 -0.27,-0.34 -0.1,-0.07 -0.23,-0.1 -0.38,-0.1 -0.12,0 -0.2,0.02 -0.25,0.07 -0.05,0.06 -0.06,0.12 -0.04,0.19 0.02,0.06 0.06,0.1 0.12,0.15 0.06,0.04 0.19,0.08 0.39,0.12 0.49,0.1 0.85,0.2 1.07,0.3 0.23,0.1 0.41,0.22 0.55,0.37 0.14,0.15 0.23,0.32 0.28,0.5 0.07,0.21 0.07,0.41 0.01,0.6 -0.07,0.18 -0.2,0.32 -0.39,0.41 -0.18,0.1 -0.44,0.14 -0.77,0.14 -0.58,0 -1.01,-0.11 -1.3,-0.33 -0.29,-0.22 -0.5,-0.5 -0.63,-0.84z"/>
     <polygon id="_29" class="fil15" points="791.78,1493.59 792.79,1493.59 793.07,1494.52 792.07,1494.52 "/>
     <path id="_30" class="fil15" d="M795.62 1493.97l-1.18 0 -0.01 0.55 -1.07 0 0.26 -3.36 1.15 0 2.29 3.36 -1.1 0 -0.34 -0.55 0 0zm-0.44 -0.73l-0.73 -1.21 -0.01 1.21 0.74 0 0 0z"/>
     <polygon id="_31" class="fil15" points="797.05,1493.59 798.06,1493.59 798.34,1494.52 797.34,1494.52 "/>
     <path id="_32" class="fil15" d="M800.82 1493.15l1 0.27c0.02,0.26 -0.01,0.47 -0.1,0.64 -0.08,0.17 -0.2,0.3 -0.38,0.39 -0.16,0.09 -0.4,0.13 -0.71,0.13 -0.37,0 -0.69,-0.05 -0.95,-0.16 -0.27,-0.11 -0.53,-0.29 -0.78,-0.56 -0.25,-0.26 -0.43,-0.61 -0.56,-1.03 -0.17,-0.55 -0.15,-0.98 0.06,-1.28 0.21,-0.3 0.59,-0.45 1.14,-0.45 0.42,0 0.78,0.09 1.08,0.26 0.3,0.17 0.56,0.43 0.79,0.79l-0.87 0.2c-0.06,-0.1 -0.12,-0.17 -0.17,-0.22 -0.08,-0.08 -0.17,-0.14 -0.27,-0.18 -0.1,-0.05 -0.2,-0.07 -0.3,-0.07 -0.24,0 -0.4,0.1 -0.46,0.29 -0.06,0.14 -0.04,0.36 0.05,0.66 0.11,0.37 0.25,0.62 0.4,0.77 0.16,0.13 0.34,0.2 0.55,0.2 0.2,0 0.33,-0.06 0.4,-0.17 0.07,-0.11 0.1,-0.27 0.08,-0.48l0 0z"/>
     <polygon id="_33" class="fil15" points="802.41,1493.59 803.41,1493.59 803.69,1494.52 802.69,1494.52 "/>
     <path class="fil15" d="M695.76 1485.14l2.29 0.65c0.05,0.61 -0.02,1.12 -0.2,1.53 -0.18,0.41 -0.46,0.72 -0.85,0.93 -0.39,0.2 -0.93,0.31 -1.62,0.31 -0.85,0 -1.57,-0.13 -2.19,-0.38 -0.61,-0.26 -1.2,-0.7 -1.78,-1.34 -0.58,-0.64 -1.03,-1.46 -1.33,-2.45 -0.4,-1.33 -0.36,-2.35 0.1,-3.07 0.47,-0.71 1.33,-1.07 2.58,-1.07 0.98,0 1.8,0.2 2.49,0.61 0.68,0.41 1.29,1.04 1.81,1.89l-1.96 0.49c-0.15,-0.25 -0.28,-0.42 -0.4,-0.54 -0.19,-0.19 -0.4,-0.33 -0.62,-0.43 -0.23,-0.1 -0.46,-0.16 -0.7,-0.16 -0.54,0 -0.89,0.23 -1.04,0.68 -0.12,0.34 -0.07,0.87 0.14,1.58 0.27,0.89 0.58,1.5 0.95,1.83 0.36,0.33 0.77,0.5 1.25,0.5 0.46,0 0.76,-0.14 0.92,-0.4 0.15,-0.27 0.2,-0.66 0.16,-1.16l0 0z"/>
     <path id="_1_0" class="fil15" d="M698.49 1484.41c-0.39,-1.31 -0.35,-2.33 0.14,-3.06 0.48,-0.73 1.35,-1.1 2.61,-1.1 1.3,0 2.4,0.36 3.31,1.08 0.92,0.72 1.57,1.72 1.96,3.02 0.28,0.94 0.36,1.7 0.24,2.31 -0.12,0.6 -0.43,1.06 -0.9,1.4 -0.48,0.33 -1.15,0.5 -2.01,0.5 -0.87,0 -1.64,-0.14 -2.3,-0.43 -0.66,-0.29 -1.26,-0.75 -1.81,-1.37 -0.54,-0.63 -0.95,-1.41 -1.24,-2.35l0 0zm2.4 0.01c0.24,0.81 0.57,1.39 0.96,1.75 0.4,0.35 0.85,0.53 1.35,0.53 0.52,0 0.87,-0.18 1.04,-0.52 0.18,-0.35 0.13,-0.97 -0.14,-1.87 -0.23,-0.76 -0.54,-1.31 -0.94,-1.66 -0.4,-0.35 -0.85,-0.52 -1.36,-0.52 -0.48,0 -0.82,0.17 -1,0.53 -0.19,0.35 -0.16,0.94 0.09,1.76z"/>
     <polygon id="_2_1" class="fil15" points="706.62,1480.39 708.86,1480.39 713.11,1484.82 711.77,1480.39 714.03,1480.39 716.46,1488.43 714.19,1488.43 709.97,1484.01 711.3,1488.43 709.05,1488.43 "/>
     <polygon id="_3_2" class="fil15" points="715.64,1480.39 721.56,1480.39 722.08,1482.11 718.56,1482.11 718.98,1483.52 722,1483.52 722.49,1485.15 719.48,1485.15 720.47,1488.43 718.06,1488.43 "/>
     <polygon id="_4_3" class="fil15" points="722.95,1480.39 725.35,1480.39 727.77,1488.43 725.37,1488.43 "/>
     <path id="_5_4" class="fil15" d="M733.86 1487.1l-2.71 0 0 1.33 -2.44 0 0.49 -8.04 2.63 0 5.33 8.04 -2.51 0 -0.79 -1.33zm-1.03 -1.74l-1.72 -2.89 0.02 2.89 1.7 0 0 0z"/>
     <polygon id="_6_5" class="fil15" points="735.51,1480.39 737.75,1480.39 741.99,1484.82 740.65,1480.39 742.92,1480.39 745.34,1488.43 743.08,1488.43 738.86,1484.01 740.19,1488.43 737.94,1488.43 "/>
     <polygon id="_7_6" class="fil15" points="744.32,1480.39 751.09,1480.39 751.58,1481.99 748.65,1486.7 753.16,1486.7 753.68,1488.43 746.33,1488.43 745.82,1486.76 748.72,1482.11 744.84,1482.11 "/>
     <path id="_8_7" class="fil15" d="M759.13 1487.1l-2.72 0 0.01 1.33 -2.44 0 0.49 -8.04 2.62 0 5.33 8.04 -2.51 0 -0.78 -1.33zm-1.04 -1.74l-1.72 -2.89 0.03 2.89 1.69 0 0 0z"/>
     <polygon class="fil15" points="774.51,1480.52 777.01,1480.52 780.51,1486.31 780.48,1480.52 782.91,1480.52 782.46,1488.56 779.86,1488.56 "/>
     <polygon id="_1_8" class="fil15" points="783.79,1480.52 786.19,1480.52 788.62,1488.56 786.21,1488.56 "/>
     <path id="_2_9" class="fil15" d="M787.94 1480.52l3.56 0c0.7,0 1.3,0.1 1.79,0.3 0.49,0.19 0.93,0.48 1.33,0.85 0.39,0.37 0.72,0.8 1,1.29 0.27,0.49 0.49,1 0.66,1.55 0.26,0.86 0.36,1.53 0.32,2 -0.05,0.48 -0.19,0.87 -0.43,1.19 -0.24,0.32 -0.53,0.53 -0.89,0.64 -0.48,0.15 -0.93,0.22 -1.36,0.22l-3.56 0 -2.42 -8.04 0 0zm2.94 1.82l1.32 4.39 0.59 0c0.5,0 0.84,-0.06 1.02,-0.17 0.18,-0.12 0.28,-0.32 0.32,-0.6 0.03,-0.29 -0.05,-0.76 -0.24,-1.4 -0.26,-0.85 -0.57,-1.43 -0.93,-1.75 -0.37,-0.31 -0.86,-0.47 -1.48,-0.47l-0.6 0 0 0z"/>
     <path id="_3_10" class="fil15" d="M802.66 1487.23l-2.72 0 0.01 1.33 -2.44 0 0.49 -8.04 2.63 0 5.33 8.04 -2.51 0 -0.79 -1.33zm-1.03 -1.74l-1.72 -2.88 0.02 2.88 1.7 0 0 0z"/>
    </g>
    <g>
     <path class="fil14" d="M671.13 1498.2c-0.2,-0.34 -0.65,-0.85 -0.91,-1.19l-2.7 -3.44c-0.13,-0.15 -1.95,0.03 -2.31,0.03 -1.49,0.03 -6.02,0.08 -7.13,-0.37 -6.41,-2.61 -6.86,-11.29 -2.65,-12.07 0.67,-0.12 9.1,-0.08 9.86,-0.06 -0.16,-0.29 -2.54,-3.08 -2.93,-3.52 -2.29,-0.05 -4.52,-0.01 -6.8,-0.04 -2.23,-0.02 -3.69,0.01 -4.93,1.5 -0.11,0.14 -0.25,0.23 -0.34,0.38l-0.29 0.42c-1.46,2.24 -1.19,6.05 0.25,9.21 1.82,3.98 4.92,6.71 7.93,8.17 2.32,1.13 3.6,1.02 6.07,0.98 2.2,-0.04 4.66,-0.08 6.88,0l0 0z"/>
     <polygon class="fil16" points="675.1,1497.59 680.86,1477.63 673.79,1490.65 668.36,1485.11 663.45,1485.11 "/>
     <polygon class="fil17" points="680.86,1477.63 675.1,1497.59 686.02,1477.63 "/>
    </g>
   </g>
  </g>
 </g>
</svg>
