<?xml version="1.0" encoding="UTF-8"?>
<!DOCTYPE svg PUBLIC "-//W3C//DTD SVG 1.1//EN" "http://www.w3.org/Graphics/SVG/1.1/DTD/svg11.dtd">
<!-- Creator: CorelDRAW 2019 (64-Bit) -->
<svg xmlns="http://www.w3.org/2000/svg" xml:space="preserve" width="400px" height="237px" version="1.1" shape-rendering="geometricPrecision" text-rendering="geometricPrecision" image-rendering="optimizeQuality" fill-rule="evenodd" clip-rule="evenodd"
viewBox="0 0 400 236.83"
 xmlns:xlink="http://www.w3.org/1999/xlink"
 xmlns:xodm="http://www.corel.com/coreldraw/odm/2003">
 <defs>
    <linearGradient id="id0" gradientUnits="userSpaceOnUse" x1="237.63" y1="81.36" x2="373.18" y2="81.36">
     <stop offset="0" stop-opacity="1" stop-color="#F5FCFF"/>
     <stop offset="1" stop-opacity="1" stop-color="#07ACEE"/>
    </linearGradient>
 </defs>
 <g id="Capa_x0020_1">
  <metadata id="CorelCorpID_0Corel-Layer"/>
  <g id="_3206706184320">
   <path fill="#2A427B" d="M204.44 166.1c-0.84,-2.7 -3.16,-6.84 -4.44,-9.55l-13.3 -27.52c-0.7,-1.2 -15.68,0.23 -18.6,0.28 -11.93,0.18 -48.34,0.64 -56.12,-2.97 -45.03,-20.87 -27.63,-90.36 7.96,-96.61 5.59,-0.98 73,-0.59 79.03,-0.46 -0.59,-2.34 -12.95,-24.62 -14.99,-28.14 -18.21,-0.44 -36.16,-0.12 -54.32,-0.31 -17.76,-0.2 -29.56,0.04 -43.02,11.97 -1.23,1.09 -2.59,1.81 -3.67,3.07l-3.36 3.36c-17.1,17.91 -24.11,48.37 -20.17,73.69 4.96,31.8 23.15,53.67 43.7,65.35 15.86,9.03 26.37,8.17 46.2,7.83 17.74,-0.3 37.46,-0.64 55.1,0.01z"/>
   <path fill="#2A427B" d="M264.52 197.86c-2.64,2.04 -5.51,2.28 -4.87,7.68 0.97,8.26 10.8,9.22 16.77,7.54 3.72,-1.04 5.1,-2.89 6.53,-6.47 2.65,-0.26 2.99,-0.37 5.01,-1.71l0.25 -3.9c-6.45,2.7 -3.43,1.45 -9.57,0.1 -7.33,-1.61 -6.64,3.38 -6.67,5.26l2.91 -1.32c-1.7,7.67 -9.48,2.37 -6.5,-2.41 0.88,-1.4 3.01,-1.31 4.51,-1.89l-0.33 -4.91c-6.29,-0.52 -2.7,-7.67 1.25,-4.85 1.16,0.82 0.61,1.52 1.82,2.92l7.36 -1.15c-2.62,-10.5 -19.24,-8.63 -21.47,-2.72 -1.57,4.17 0.67,6.7 3,7.83z"/>
   <path fill="#2A427B" fill-rule="nonzero" d="M21.24 232.23l-4.15 0 -0.6 1.93 -3.74 0 4.46 -11.74 4.01 0 4.45 11.74 -3.84 0 -0.59 -1.93zm-0.78 -2.55l-1.29 -4.22 -1.3 4.22 2.59 0z"/>
   <path id="1" fill="#2A427B" fill-rule="nonzero" d="M26.03 231.8l3.26 -0.29c0.13,0.38 0.32,0.65 0.56,0.82 0.25,0.16 0.57,0.24 0.98,0.24 0.44,0 0.78,-0.09 1.02,-0.28 0.19,-0.14 0.29,-0.31 0.29,-0.52 0,-0.23 -0.13,-0.42 -0.38,-0.55 -0.17,-0.09 -0.64,-0.2 -1.41,-0.33 -1.14,-0.2 -1.93,-0.38 -2.38,-0.55 -0.44,-0.17 -0.82,-0.46 -1.12,-0.85 -0.31,-0.41 -0.46,-0.86 -0.46,-1.38 0,-0.56 0.16,-1.04 0.49,-1.45 0.33,-0.4 0.78,-0.71 1.36,-0.91 0.58,-0.2 1.35,-0.3 2.32,-0.3 1.02,0 1.78,0.08 2.26,0.23 0.49,0.16 0.9,0.4 1.22,0.73 0.33,0.32 0.6,0.76 0.81,1.32l-3.11 0.3c-0.08,-0.27 -0.22,-0.47 -0.4,-0.6 -0.26,-0.17 -0.57,-0.26 -0.94,-0.26 -0.37,0 -0.64,0.07 -0.81,0.2 -0.17,0.13 -0.25,0.29 -0.25,0.48 0,0.21 0.11,0.36 0.32,0.47 0.21,0.11 0.68,0.2 1.4,0.29 1.1,0.12 1.91,0.3 2.44,0.51 0.53,0.22 0.94,0.54 1.23,0.94 0.28,0.41 0.42,0.86 0.42,1.34 0,0.49 -0.15,0.97 -0.45,1.44 -0.3,0.46 -0.77,0.83 -1.41,1.11 -0.64,0.27 -1.52,0.41 -2.63,0.41 -1.57,0 -2.69,-0.22 -3.35,-0.67 -0.67,-0.44 -1.09,-1.07 -1.28,-1.89z"/>
   <path id="2" fill="#2A427B" fill-rule="nonzero" d="M46.26 230.72l-6.61 0c0.06,0.52 0.2,0.91 0.43,1.17 0.32,0.37 0.74,0.55 1.25,0.55 0.33,0 0.63,-0.08 0.92,-0.24 0.18,-0.1 0.38,-0.28 0.58,-0.53l3.24 0.3c-0.49,0.85 -1.09,1.46 -1.79,1.83 -0.7,0.37 -1.71,0.56 -3.02,0.56 -1.14,0 -2.03,-0.16 -2.69,-0.48 -0.65,-0.32 -1.19,-0.82 -1.62,-1.51 -0.43,-0.7 -0.64,-1.51 -0.64,-2.45 0,-1.33 0.43,-2.41 1.29,-3.23 0.86,-0.82 2.04,-1.24 3.56,-1.24 1.23,0 2.2,0.19 2.91,0.56 0.71,0.37 1.26,0.9 1.63,1.6 0.37,0.7 0.56,1.62 0.56,2.74l0 0.37zm-3.35 -1.56c-0.06,-0.64 -0.23,-1.09 -0.51,-1.36 -0.28,-0.28 -0.65,-0.41 -1.1,-0.41 -0.53,0 -0.95,0.21 -1.26,0.62 -0.2,0.26 -0.33,0.64 -0.38,1.15l3.25 0z"/>
   <path id="3" fill="#2A427B" fill-rule="nonzero" d="M47.19 231.8l3.26 -0.29c0.13,0.38 0.32,0.65 0.56,0.82 0.25,0.16 0.57,0.24 0.97,0.24 0.44,0 0.79,-0.09 1.03,-0.28 0.19,-0.14 0.28,-0.31 0.28,-0.52 0,-0.23 -0.12,-0.42 -0.37,-0.55 -0.17,-0.09 -0.65,-0.2 -1.41,-0.33 -1.14,-0.2 -1.94,-0.38 -2.38,-0.55 -0.45,-0.17 -0.82,-0.46 -1.13,-0.85 -0.3,-0.41 -0.45,-0.86 -0.45,-1.38 0,-0.56 0.16,-1.04 0.49,-1.45 0.33,-0.4 0.78,-0.71 1.36,-0.91 0.57,-0.2 1.35,-0.3 2.32,-0.3 1.02,0 1.77,0.08 2.26,0.23 0.49,0.16 0.89,0.4 1.22,0.73 0.32,0.32 0.6,0.76 0.81,1.32l-3.11 0.3c-0.08,-0.27 -0.22,-0.47 -0.41,-0.6 -0.25,-0.17 -0.56,-0.26 -0.93,-0.26 -0.37,0 -0.64,0.07 -0.81,0.2 -0.17,0.13 -0.25,0.29 -0.25,0.48 0,0.21 0.1,0.36 0.32,0.47 0.21,0.11 0.68,0.2 1.4,0.29 1.09,0.12 1.91,0.3 2.44,0.51 0.53,0.22 0.94,0.54 1.22,0.94 0.29,0.41 0.43,0.86 0.43,1.34 0,0.49 -0.15,0.97 -0.45,1.44 -0.3,0.46 -0.77,0.83 -1.41,1.11 -0.65,0.27 -1.53,0.41 -2.63,0.41 -1.57,0 -2.69,-0.22 -3.35,-0.67 -0.67,-0.44 -1.1,-1.07 -1.28,-1.89z"/>
   <path id="4" fill="#2A427B" fill-rule="nonzero" d="M57.48 229.93c0,-1.3 0.44,-2.37 1.32,-3.21 0.89,-0.85 2.08,-1.27 3.58,-1.27 1.72,0 3.02,0.5 3.9,1.49 0.7,0.79 1.05,1.78 1.05,2.94 0,1.31 -0.43,2.39 -1.31,3.23 -0.87,0.83 -2.08,1.25 -3.63,1.25 -1.38,0 -2.49,-0.35 -3.34,-1.04 -1.05,-0.87 -1.57,-1.99 -1.57,-3.39zm3.29 0c0,0.76 0.16,1.32 0.47,1.68 0.31,0.37 0.69,0.55 1.16,0.55 0.48,0 0.86,-0.18 1.17,-0.54 0.3,-0.35 0.45,-0.93 0.45,-1.73 0,-0.74 -0.15,-1.28 -0.46,-1.65 -0.3,-0.36 -0.68,-0.54 -1.13,-0.54 -0.48,0 -0.88,0.18 -1.19,0.55 -0.31,0.37 -0.47,0.93 -0.47,1.68z"/>
   <path id="5" fill="#2A427B" fill-rule="nonzero" d="M68.96 225.65l3.08 0 0 1.39c0.3,-0.61 0.61,-1.02 0.92,-1.25 0.32,-0.23 0.71,-0.34 1.17,-0.34 0.49,0 1.02,0.15 1.6,0.45l-1.02 2.32c-0.39,-0.16 -0.7,-0.24 -0.93,-0.24 -0.43,0 -0.76,0.18 -1,0.53 -0.34,0.5 -0.51,1.43 -0.51,2.79l0 2.86 -3.31 0 0 -8.51z"/>
   <path id="6" fill="#2A427B" fill-rule="nonzero" d="M86.08 230.72l-6.61 0c0.06,0.52 0.2,0.91 0.43,1.17 0.32,0.37 0.73,0.55 1.25,0.55 0.32,0 0.63,-0.08 0.92,-0.24 0.18,-0.1 0.37,-0.28 0.58,-0.53l3.24 0.3c-0.49,0.85 -1.09,1.46 -1.79,1.83 -0.7,0.37 -1.71,0.56 -3.02,0.56 -1.14,0 -2.04,-0.16 -2.69,-0.48 -0.65,-0.32 -1.19,-0.82 -1.62,-1.51 -0.43,-0.7 -0.65,-1.51 -0.65,-2.45 0,-1.33 0.43,-2.41 1.3,-3.23 0.85,-0.82 2.04,-1.24 3.56,-1.24 1.23,0 2.2,0.19 2.91,0.56 0.71,0.37 1.26,0.9 1.63,1.6 0.37,0.7 0.56,1.62 0.56,2.74l0 0.37zm-3.35 -1.56c-0.06,-0.64 -0.24,-1.09 -0.52,-1.36 -0.27,-0.28 -0.64,-0.41 -1.09,-0.41 -0.53,0 -0.95,0.21 -1.26,0.62 -0.2,0.26 -0.33,0.64 -0.38,1.15l3.25 0z"/>
   <path id="7" fill="#2A427B" fill-rule="nonzero" d="M87 231.8l3.27 -0.29c0.13,0.38 0.32,0.65 0.56,0.82 0.24,0.16 0.57,0.24 0.97,0.24 0.44,0 0.79,-0.09 1.03,-0.28 0.19,-0.14 0.28,-0.31 0.28,-0.52 0,-0.23 -0.12,-0.42 -0.37,-0.55 -0.18,-0.09 -0.65,-0.2 -1.41,-0.33 -1.15,-0.2 -1.94,-0.38 -2.38,-0.55 -0.45,-0.17 -0.82,-0.46 -1.13,-0.85 -0.3,-0.41 -0.45,-0.86 -0.45,-1.38 0,-0.56 0.16,-1.04 0.49,-1.45 0.33,-0.4 0.78,-0.71 1.36,-0.91 0.57,-0.2 1.35,-0.3 2.31,-0.3 1.03,0 1.78,0.08 2.27,0.23 0.49,0.16 0.89,0.4 1.22,0.73 0.32,0.32 0.59,0.76 0.81,1.32l-3.11 0.3c-0.08,-0.27 -0.22,-0.47 -0.41,-0.6 -0.25,-0.17 -0.57,-0.26 -0.93,-0.26 -0.37,0 -0.64,0.07 -0.81,0.2 -0.17,0.13 -0.26,0.29 -0.26,0.48 0,0.21 0.11,0.36 0.33,0.47 0.21,0.11 0.68,0.2 1.4,0.29 1.09,0.12 1.9,0.3 2.44,0.51 0.53,0.22 0.94,0.54 1.22,0.94 0.29,0.41 0.43,0.86 0.43,1.34 0,0.49 -0.15,0.97 -0.45,1.44 -0.3,0.46 -0.77,0.83 -1.42,1.11 -0.64,0.27 -1.52,0.41 -2.63,0.41 -1.56,0 -2.68,-0.22 -3.35,-0.67 -0.66,-0.44 -1.09,-1.07 -1.28,-1.89z"/>
   <path id="8" fill="#2A427B" fill-rule="nonzero" d="M102.27 225.65l3.48 0 1.76 5.67 1.64 -5.67 3.24 0 -3.4 9.1c-0.39,1.04 -0.78,1.73 -1.19,2.09 -0.57,0.51 -1.44,0.77 -2.61,0.77 -0.47,0 -1.2,-0.07 -2.19,-0.19l-0.26 -2.28c0.47,0.15 1,0.22 1.58,0.22 0.39,0 0.71,-0.09 0.94,-0.26 0.25,-0.17 0.45,-0.49 0.62,-0.93l-3.61 -8.52z"/>
   <path id="9" fill="#2A427B" fill-rule="nonzero" d="M126.97 229.36l3.21 0.96c-0.22,0.89 -0.56,1.63 -1.02,2.23 -0.47,0.6 -1.04,1.05 -1.73,1.35 -0.69,0.31 -1.56,0.46 -2.63,0.46 -1.29,0 -2.34,-0.19 -3.16,-0.55 -0.81,-0.38 -1.52,-1.03 -2.11,-1.96 -0.59,-0.93 -0.89,-2.13 -0.89,-3.59 0,-1.94 0.52,-3.43 1.56,-4.48 1.05,-1.04 2.52,-1.56 4.43,-1.56 1.5,0 2.67,0.3 3.53,0.9 0.85,0.6 1.49,1.51 1.9,2.76l-3.23 0.7c-0.11,-0.35 -0.23,-0.61 -0.35,-0.78 -0.21,-0.27 -0.46,-0.48 -0.76,-0.63 -0.29,-0.15 -0.62,-0.23 -0.99,-0.23 -0.84,0 -1.47,0.33 -1.91,0.99 -0.34,0.49 -0.51,1.26 -0.51,2.31 0,1.3 0.2,2.19 0.6,2.68 0.4,0.48 0.96,0.72 1.69,0.72 0.7,0 1.23,-0.2 1.58,-0.59 0.36,-0.39 0.62,-0.95 0.79,-1.69z"/>
   <path id="10" fill="#2A427B" fill-rule="nonzero" d="M131.33 229.93c0,-1.3 0.45,-2.37 1.33,-3.21 0.88,-0.85 2.07,-1.27 3.57,-1.27 1.73,0 3.02,0.5 3.9,1.49 0.7,0.79 1.06,1.78 1.06,2.94 0,1.31 -0.44,2.39 -1.32,3.23 -0.87,0.83 -2.08,1.25 -3.63,1.25 -1.37,0 -2.49,-0.35 -3.34,-1.04 -1.04,-0.87 -1.57,-1.99 -1.57,-3.39zm3.3 0c0,0.76 0.15,1.32 0.46,1.68 0.31,0.37 0.7,0.55 1.17,0.55 0.47,0 0.86,-0.18 1.16,-0.54 0.3,-0.35 0.46,-0.93 0.46,-1.73 0,-0.74 -0.16,-1.28 -0.46,-1.65 -0.31,-0.36 -0.69,-0.54 -1.14,-0.54 -0.48,0 -0.87,0.18 -1.19,0.55 -0.31,0.37 -0.46,0.93 -0.46,1.68z"/>
   <path id="11" fill="#2A427B" fill-rule="nonzero" d="M142.81 225.65l3.08 0 0 1.39c0.3,-0.61 0.61,-1.02 0.92,-1.25 0.32,-0.23 0.71,-0.34 1.17,-0.34 0.49,0 1.02,0.15 1.6,0.45l-1.02 2.32c-0.39,-0.16 -0.7,-0.24 -0.92,-0.24 -0.43,0 -0.77,0.18 -1.01,0.53 -0.34,0.5 -0.51,1.43 -0.51,2.79l0 2.86 -3.31 0 0 -8.51z"/>
   <path id="12" fill="#2A427B" fill-rule="nonzero" d="M150.85 225.65l3.09 0 0 1.39c0.3,-0.61 0.6,-1.02 0.92,-1.25 0.31,-0.23 0.7,-0.34 1.17,-0.34 0.49,0 1.02,0.15 1.6,0.45l-1.02 2.32c-0.39,-0.16 -0.7,-0.24 -0.93,-0.24 -0.43,0 -0.77,0.18 -1,0.53 -0.34,0.5 -0.52,1.43 -0.52,2.79l0 2.86 -3.31 0 0 -8.51z"/>
   <path id="13" fill="#2A427B" fill-rule="nonzero" d="M167.97 230.72l-6.6 0c0.06,0.52 0.2,0.91 0.43,1.17 0.31,0.37 0.73,0.55 1.24,0.55 0.33,0 0.64,-0.08 0.93,-0.24 0.18,-0.1 0.37,-0.28 0.58,-0.53l3.24 0.3c-0.49,0.85 -1.09,1.46 -1.8,1.83 -0.7,0.37 -1.7,0.56 -3.01,0.56 -1.15,0 -2.04,-0.16 -2.69,-0.48 -0.65,-0.32 -1.19,-0.82 -1.62,-1.51 -0.43,-0.7 -0.65,-1.51 -0.65,-2.45 0,-1.33 0.43,-2.41 1.29,-3.23 0.86,-0.82 2.05,-1.24 3.57,-1.24 1.23,0 2.19,0.19 2.91,0.56 0.71,0.37 1.25,0.9 1.63,1.6 0.37,0.7 0.55,1.62 0.55,2.74l0 0.37zm-3.34 -1.56c-0.06,-0.64 -0.24,-1.09 -0.52,-1.36 -0.28,-0.28 -0.64,-0.41 -1.1,-0.41 -0.52,0 -0.94,0.21 -1.25,0.62 -0.2,0.26 -0.33,0.64 -0.38,1.15l3.25 0z"/>
   <path id="14" fill="#2A427B" fill-rule="nonzero" d="M178.52 222.42l0 11.74 -3.08 0 0 -1.26c-0.43,0.54 -0.83,0.9 -1.19,1.09 -0.47,0.25 -1,0.37 -1.58,0.37 -1.17,0 -2.06,-0.44 -2.68,-1.32 -0.61,-0.89 -0.92,-1.96 -0.92,-3.22 0,-1.41 0.34,-2.5 1.02,-3.24 0.68,-0.75 1.54,-1.13 2.6,-1.13 0.51,0 0.97,0.09 1.39,0.26 0.42,0.17 0.79,0.42 1.11,0.76l0 -4.05 3.33 0zm-3.3 7.45c0,-0.67 -0.15,-1.17 -0.43,-1.5 -0.28,-0.33 -0.65,-0.49 -1.08,-0.49 -0.38,0 -0.7,0.16 -0.96,0.48 -0.26,0.31 -0.39,0.84 -0.39,1.59 0,0.69 0.13,1.2 0.4,1.53 0.27,0.32 0.6,0.49 0.99,0.49 0.42,0 0.77,-0.17 1.05,-0.49 0.28,-0.33 0.42,-0.87 0.42,-1.61z"/>
   <path id="15" fill="#2A427B" fill-rule="nonzero" d="M180.13 229.93c0,-1.3 0.44,-2.37 1.32,-3.21 0.89,-0.85 2.08,-1.27 3.58,-1.27 1.72,0 3.01,0.5 3.89,1.49 0.71,0.79 1.06,1.78 1.06,2.94 0,1.31 -0.44,2.39 -1.31,3.23 -0.88,0.83 -2.09,1.25 -3.63,1.25 -1.38,0 -2.5,-0.35 -3.34,-1.04 -1.05,-0.87 -1.57,-1.99 -1.57,-3.39zm3.29 0c0,0.76 0.16,1.32 0.47,1.68 0.3,0.37 0.69,0.55 1.16,0.55 0.47,0 0.86,-0.18 1.16,-0.54 0.31,-0.35 0.46,-0.93 0.46,-1.73 0,-0.74 -0.15,-1.28 -0.46,-1.65 -0.31,-0.36 -0.68,-0.54 -1.14,-0.54 -0.48,0 -0.87,0.18 -1.18,0.55 -0.31,0.37 -0.47,0.93 -0.47,1.68z"/>
   <path id="16" fill="#2A427B" fill-rule="nonzero" d="M191.6 225.65l3.09 0 0 1.39c0.3,-0.61 0.6,-1.02 0.92,-1.25 0.31,-0.23 0.7,-0.34 1.17,-0.34 0.49,0 1.02,0.15 1.59,0.45l-1.02 2.32c-0.39,-0.16 -0.69,-0.24 -0.92,-0.24 -0.43,0 -0.77,0.18 -1.01,0.53 -0.33,0.5 -0.51,1.43 -0.51,2.79l0 2.86 -3.31 0 0 -8.51z"/>
   <path id="17" fill="#2A427B" fill-rule="nonzero" d="M208.72 230.72l-6.6 0c0.06,0.52 0.2,0.91 0.43,1.17 0.31,0.37 0.73,0.55 1.24,0.55 0.33,0 0.64,-0.08 0.93,-0.24 0.18,-0.1 0.37,-0.28 0.57,-0.53l3.25 0.3c-0.5,0.85 -1.1,1.46 -1.8,1.83 -0.7,0.37 -1.7,0.56 -3.01,0.56 -1.15,0 -2.04,-0.16 -2.69,-0.48 -0.65,-0.32 -1.19,-0.82 -1.62,-1.51 -0.43,-0.7 -0.65,-1.51 -0.65,-2.45 0,-1.33 0.43,-2.41 1.29,-3.23 0.86,-0.82 2.05,-1.24 3.56,-1.24 1.24,0 2.2,0.19 2.92,0.56 0.71,0.37 1.25,0.9 1.62,1.6 0.38,0.7 0.56,1.62 0.56,2.74l0 0.37zm-3.34 -1.56c-0.07,-0.64 -0.24,-1.09 -0.52,-1.36 -0.28,-0.28 -0.64,-0.41 -1.1,-0.41 -0.52,0 -0.94,0.21 -1.25,0.62 -0.2,0.26 -0.33,0.64 -0.39,1.15l3.26 0z"/>
   <path id="18" fill="#2A427B" fill-rule="nonzero" d="M209.65 231.8l3.26 -0.29c0.14,0.38 0.32,0.65 0.57,0.82 0.24,0.16 0.56,0.24 0.97,0.24 0.44,0 0.78,-0.09 1.02,-0.28 0.2,-0.14 0.29,-0.31 0.29,-0.52 0,-0.23 -0.12,-0.42 -0.37,-0.55 -0.18,-0.09 -0.65,-0.2 -1.42,-0.33 -1.14,-0.2 -1.93,-0.38 -2.38,-0.55 -0.44,-0.17 -0.81,-0.46 -1.12,-0.85 -0.3,-0.41 -0.46,-0.86 -0.46,-1.38 0,-0.56 0.17,-1.04 0.5,-1.45 0.32,-0.4 0.78,-0.71 1.35,-0.91 0.58,-0.2 1.35,-0.3 2.32,-0.3 1.02,0 1.78,0.08 2.26,0.23 0.49,0.16 0.9,0.4 1.22,0.73 0.33,0.32 0.6,0.76 0.82,1.32l-3.12 0.3c-0.08,-0.27 -0.21,-0.47 -0.4,-0.6 -0.26,-0.17 -0.57,-0.26 -0.94,-0.26 -0.37,0 -0.64,0.07 -0.8,0.2 -0.17,0.13 -0.26,0.29 -0.26,0.48 0,0.21 0.11,0.36 0.32,0.47 0.21,0.11 0.68,0.2 1.4,0.29 1.1,0.12 1.91,0.3 2.45,0.51 0.53,0.22 0.94,0.54 1.22,0.94 0.28,0.41 0.42,0.86 0.42,1.34 0,0.49 -0.15,0.97 -0.45,1.44 -0.3,0.46 -0.77,0.83 -1.41,1.11 -0.64,0.27 -1.52,0.41 -2.63,0.41 -1.57,0 -2.69,-0.22 -3.35,-0.67 -0.67,-0.44 -1.09,-1.07 -1.28,-1.89z"/>
   <path id="19" fill="#2A427B" fill-rule="nonzero" d="M234.91 222.42l0 11.74 -3.09 0 0 -1.26c-0.43,0.54 -0.83,0.9 -1.18,1.09 -0.47,0.25 -1,0.37 -1.58,0.37 -1.17,0 -2.07,-0.44 -2.68,-1.32 -0.62,-0.89 -0.93,-1.96 -0.93,-3.22 0,-1.41 0.34,-2.5 1.02,-3.24 0.69,-0.75 1.55,-1.13 2.6,-1.13 0.51,0 0.98,0.09 1.4,0.26 0.41,0.17 0.78,0.42 1.11,0.76l0 -4.05 3.33 0zm-3.31 7.45c0,-0.67 -0.14,-1.17 -0.43,-1.5 -0.28,-0.33 -0.64,-0.49 -1.08,-0.49 -0.38,0 -0.7,0.16 -0.96,0.48 -0.25,0.31 -0.38,0.84 -0.38,1.59 0,0.69 0.13,1.2 0.4,1.53 0.26,0.32 0.59,0.49 0.98,0.49 0.42,0 0.77,-0.17 1.05,-0.49 0.28,-0.33 0.42,-0.87 0.42,-1.61z"/>
   <path id="20" fill="#2A427B" fill-rule="nonzero" d="M246.45 230.72l-6.61 0c0.06,0.52 0.2,0.91 0.43,1.17 0.32,0.37 0.73,0.55 1.25,0.55 0.32,0 0.63,-0.08 0.92,-0.24 0.18,-0.1 0.38,-0.28 0.58,-0.53l3.24 0.3c-0.49,0.85 -1.09,1.46 -1.79,1.83 -0.7,0.37 -1.71,0.56 -3.02,0.56 -1.14,0 -2.04,-0.16 -2.69,-0.48 -0.65,-0.32 -1.19,-0.82 -1.62,-1.51 -0.43,-0.7 -0.65,-1.51 -0.65,-2.45 0,-1.33 0.43,-2.41 1.3,-3.23 0.86,-0.82 2.04,-1.24 3.56,-1.24 1.23,0 2.2,0.19 2.91,0.56 0.71,0.37 1.26,0.9 1.63,1.6 0.37,0.7 0.56,1.62 0.56,2.74l0 0.37zm-3.35 -1.56c-0.06,-0.64 -0.24,-1.09 -0.52,-1.36 -0.27,-0.28 -0.64,-0.41 -1.09,-0.41 -0.53,0 -0.95,0.21 -1.26,0.62 -0.2,0.26 -0.33,0.64 -0.38,1.15l3.25 0z"/>
   <path id="21" fill="#2A427B" fill-rule="nonzero" d="M253.06 230.28l3.48 -0.22c0.07,0.56 0.23,0.99 0.46,1.28 0.38,0.47 0.91,0.71 1.62,0.71 0.52,0 0.92,-0.12 1.2,-0.37 0.29,-0.24 0.43,-0.52 0.43,-0.84 0,-0.3 -0.14,-0.58 -0.4,-0.82 -0.27,-0.24 -0.89,-0.46 -1.87,-0.68 -1.61,-0.36 -2.75,-0.83 -3.44,-1.42 -0.69,-0.6 -1.03,-1.35 -1.03,-2.27 0,-0.6 0.17,-1.17 0.53,-1.7 0.35,-0.54 0.88,-0.96 1.59,-1.27 0.71,-0.31 1.68,-0.46 2.91,-0.46 1.52,0 2.67,0.28 3.47,0.84 0.79,0.56 1.26,1.45 1.42,2.67l-3.45 0.2c-0.09,-0.54 -0.28,-0.92 -0.58,-1.16 -0.29,-0.25 -0.7,-0.37 -1.21,-0.37 -0.43,0 -0.75,0.09 -0.97,0.27 -0.21,0.18 -0.32,0.4 -0.32,0.65 0,0.19 0.09,0.36 0.27,0.51 0.16,0.15 0.57,0.29 1.22,0.43 1.6,0.34 2.74,0.69 3.43,1.04 0.69,0.35 1.2,0.78 1.52,1.3 0.31,0.52 0.47,1.1 0.47,1.74 0,0.75 -0.21,1.44 -0.63,2.08 -0.42,0.64 -1.01,1.12 -1.76,1.45 -0.76,0.33 -1.71,0.49 -2.86,0.49 -2.01,0 -3.41,-0.39 -4.18,-1.15 -0.78,-0.77 -1.22,-1.75 -1.32,-2.93z"/>
   <path id="22" fill="#2A427B" fill-rule="nonzero" d="M274.97 230.72l-6.61 0c0.06,0.52 0.2,0.91 0.43,1.17 0.32,0.37 0.74,0.55 1.25,0.55 0.33,0 0.64,-0.08 0.93,-0.24 0.17,-0.1 0.37,-0.28 0.57,-0.53l3.25 0.3c-0.5,0.85 -1.1,1.46 -1.8,1.83 -0.7,0.37 -1.71,0.56 -3.02,0.56 -1.14,0 -2.03,-0.16 -2.69,-0.48 -0.65,-0.32 -1.19,-0.82 -1.62,-1.51 -0.43,-0.7 -0.64,-1.51 -0.64,-2.45 0,-1.33 0.43,-2.41 1.29,-3.23 0.86,-0.82 2.05,-1.24 3.56,-1.24 1.23,0 2.2,0.19 2.91,0.56 0.72,0.37 1.26,0.9 1.63,1.6 0.38,0.7 0.56,1.62 0.56,2.74l0 0.37zm-3.35 -1.56c-0.06,-0.64 -0.23,-1.09 -0.51,-1.36 -0.28,-0.28 -0.64,-0.41 -1.1,-0.41 -0.52,0 -0.94,0.21 -1.26,0.62 -0.2,0.26 -0.32,0.64 -0.38,1.15l3.25 0z"/>
   <path id="23" fill="#2A427B" fill-rule="nonzero" d="M282.87 225.65l3.07 0 0 8.03 0.01 0.38c0,0.53 -0.11,1.04 -0.34,1.53 -0.23,0.48 -0.53,0.87 -0.91,1.17 -0.38,0.3 -0.87,0.51 -1.45,0.65 -0.59,0.13 -1.25,0.2 -2.01,0.2 -1.73,0 -2.91,-0.26 -3.55,-0.77 -0.65,-0.51 -0.97,-1.2 -0.97,-2.06 0,-0.11 0.01,-0.26 0.02,-0.44l3.19 0.36c0.08,0.3 0.21,0.5 0.38,0.61 0.24,0.17 0.54,0.25 0.91,0.25 0.47,0 0.83,-0.13 1.06,-0.38 0.24,-0.25 0.35,-0.68 0.35,-1.3l0 -1.29c-0.32,0.38 -0.64,0.66 -0.96,0.83 -0.51,0.27 -1.06,0.4 -1.65,0.4 -1.15,0 -2.07,-0.5 -2.78,-1.49 -0.5,-0.71 -0.75,-1.64 -0.75,-2.8 0,-1.33 0.32,-2.34 0.97,-3.04 0.65,-0.69 1.49,-1.04 2.54,-1.04 0.67,0 1.22,0.11 1.65,0.34 0.43,0.22 0.84,0.59 1.22,1.11l0 -1.25zm-3.1 4.12c0,0.62 0.13,1.07 0.4,1.37 0.26,0.3 0.61,0.45 1.04,0.45 0.41,0 0.75,-0.15 1.03,-0.46 0.28,-0.31 0.42,-0.78 0.42,-1.4 0,-0.62 -0.15,-1.09 -0.44,-1.42 -0.29,-0.33 -0.65,-0.49 -1.07,-0.49 -0.42,0 -0.75,0.15 -1.01,0.45 -0.25,0.3 -0.37,0.8 -0.37,1.5z"/>
   <path id="24" fill="#2A427B" fill-rule="nonzero" d="M296.97 234.16l-3.07 0 0 -1.37c-0.46,0.57 -0.92,0.97 -1.39,1.21 -0.46,0.24 -1.03,0.36 -1.71,0.36 -0.91,0 -1.61,-0.27 -2.13,-0.81 -0.51,-0.53 -0.77,-1.36 -0.77,-2.48l0 -5.42 3.31 0 0 4.69c0,0.53 0.1,0.91 0.3,1.14 0.2,0.23 0.48,0.34 0.83,0.34 0.39,0 0.71,-0.15 0.97,-0.45 0.24,-0.3 0.37,-0.84 0.37,-1.62l0 -4.1 3.29 0 0 8.51z"/>
   <path id="25" fill="#2A427B" fill-rule="nonzero" d="M299.01 225.65l3.08 0 0 1.39c0.3,-0.61 0.61,-1.02 0.92,-1.25 0.32,-0.23 0.71,-0.34 1.17,-0.34 0.49,0 1.02,0.15 1.6,0.45l-1.02 2.32c-0.39,-0.16 -0.7,-0.24 -0.92,-0.24 -0.43,0 -0.77,0.18 -1.01,0.53 -0.34,0.5 -0.51,1.43 -0.51,2.79l0 2.86 -3.31 0 0 -8.51z"/>
   <path id="26" fill="#2A427B" fill-rule="nonzero" d="M306.2 229.93c0,-1.3 0.44,-2.37 1.32,-3.21 0.88,-0.85 2.07,-1.27 3.58,-1.27 1.72,0 3.01,0.5 3.89,1.49 0.7,0.79 1.06,1.78 1.06,2.94 0,1.31 -0.44,2.39 -1.31,3.23 -0.88,0.83 -2.09,1.25 -3.64,1.25 -1.37,0 -2.49,-0.35 -3.34,-1.04 -1.04,-0.87 -1.56,-1.99 -1.56,-3.39zm3.29 0c0,0.76 0.16,1.32 0.46,1.68 0.31,0.37 0.7,0.55 1.17,0.55 0.47,0 0.86,-0.18 1.16,-0.54 0.3,-0.35 0.46,-0.93 0.46,-1.73 0,-0.74 -0.16,-1.28 -0.46,-1.65 -0.31,-0.36 -0.69,-0.54 -1.14,-0.54 -0.48,0 -0.87,0.18 -1.18,0.55 -0.31,0.37 -0.47,0.93 -0.47,1.68z"/>
   <path id="27" fill="#2A427B" fill-rule="nonzero" d="M317.06 231.8l3.26 -0.29c0.13,0.38 0.32,0.65 0.56,0.82 0.25,0.16 0.57,0.24 0.98,0.24 0.44,0 0.78,-0.09 1.02,-0.28 0.19,-0.14 0.29,-0.31 0.29,-0.52 0,-0.23 -0.13,-0.42 -0.38,-0.55 -0.17,-0.09 -0.64,-0.2 -1.41,-0.33 -1.14,-0.2 -1.93,-0.38 -2.38,-0.55 -0.44,-0.17 -0.82,-0.46 -1.12,-0.85 -0.31,-0.41 -0.46,-0.86 -0.46,-1.38 0,-0.56 0.16,-1.04 0.49,-1.45 0.33,-0.4 0.78,-0.71 1.36,-0.91 0.58,-0.2 1.35,-0.3 2.32,-0.3 1.02,0 1.78,0.08 2.26,0.23 0.49,0.16 0.9,0.4 1.22,0.73 0.33,0.32 0.6,0.76 0.81,1.32l-3.11 0.3c-0.08,-0.27 -0.22,-0.47 -0.4,-0.6 -0.26,-0.17 -0.57,-0.26 -0.94,-0.26 -0.37,0 -0.64,0.07 -0.81,0.2 -0.17,0.13 -0.25,0.29 -0.25,0.48 0,0.21 0.11,0.36 0.32,0.47 0.21,0.11 0.68,0.2 1.4,0.29 1.1,0.12 1.91,0.3 2.44,0.51 0.54,0.22 0.94,0.54 1.23,0.94 0.28,0.41 0.42,0.86 0.42,1.34 0,0.49 -0.15,0.97 -0.45,1.44 -0.3,0.46 -0.77,0.83 -1.41,1.11 -0.64,0.27 -1.52,0.41 -2.63,0.41 -1.57,0 -2.69,-0.22 -3.35,-0.67 -0.67,-0.44 -1.09,-1.07 -1.28,-1.89z"/>
   <path id="28" fill="#2A427B" fill-rule="nonzero" d="M332.86 230.28l3.47 -0.22c0.08,0.56 0.23,0.99 0.47,1.28 0.37,0.47 0.91,0.71 1.61,0.71 0.53,0 0.93,-0.12 1.21,-0.37 0.28,-0.24 0.42,-0.52 0.42,-0.84 0,-0.3 -0.13,-0.58 -0.4,-0.82 -0.26,-0.24 -0.89,-0.46 -1.87,-0.68 -1.6,-0.36 -2.75,-0.83 -3.43,-1.42 -0.69,-0.6 -1.03,-1.35 -1.03,-2.27 0,-0.6 0.17,-1.17 0.53,-1.7 0.35,-0.54 0.88,-0.96 1.59,-1.27 0.71,-0.31 1.68,-0.46 2.91,-0.46 1.52,0 2.67,0.28 3.46,0.84 0.8,0.56 1.27,1.45 1.42,2.67l-3.44 0.2c-0.09,-0.54 -0.28,-0.92 -0.58,-1.16 -0.29,-0.25 -0.7,-0.37 -1.22,-0.37 -0.42,0 -0.74,0.09 -0.96,0.27 -0.21,0.18 -0.32,0.4 -0.32,0.65 0,0.19 0.09,0.36 0.26,0.51 0.17,0.15 0.58,0.29 1.22,0.43 1.6,0.34 2.75,0.69 3.44,1.04 0.69,0.35 1.2,0.78 1.51,1.3 0.32,0.52 0.47,1.1 0.47,1.74 0,0.75 -0.21,1.44 -0.62,2.08 -0.43,0.64 -1.01,1.12 -1.77,1.45 -0.75,0.33 -1.7,0.49 -2.85,0.49 -2.01,0 -3.41,-0.39 -4.19,-1.15 -0.77,-0.77 -1.21,-1.75 -1.31,-2.93z"/>
   <polygon id="29" fill="#2A427B" fill-rule="nonzero" points="345.25,230.9 348.76,230.9 348.76,234.16 345.25,234.16 "/>
   <path id="30" fill="#2A427B" fill-rule="nonzero" d="M358.25 232.23l-4.15 0 -0.59 1.93 -3.74 0 4.46 -11.74 4.01 0 4.44 11.74 -3.84 0 -0.59 -1.93zm-0.77 -2.55l-1.3 -4.22 -1.3 4.22 2.6 0z"/>
   <polygon id="31" fill="#2A427B" fill-rule="nonzero" points="363.64,230.9 367.15,230.9 367.15,234.16 363.64,234.16 "/>
   <path id="32" fill="#2A427B" fill-rule="nonzero" d="M377.25 229.36l3.21 0.96c-0.21,0.89 -0.55,1.63 -1.02,2.23 -0.46,0.6 -1.04,1.05 -1.73,1.35 -0.68,0.31 -1.56,0.46 -2.62,0.46 -1.29,0 -2.35,-0.19 -3.16,-0.55 -0.82,-0.38 -1.53,-1.03 -2.12,-1.96 -0.59,-0.93 -0.89,-2.13 -0.89,-3.59 0,-1.94 0.52,-3.43 1.56,-4.48 1.05,-1.04 2.53,-1.56 4.44,-1.56 1.49,0 2.66,0.3 3.52,0.9 0.85,0.6 1.49,1.51 1.91,2.76l-3.24 0.7c-0.11,-0.35 -0.23,-0.61 -0.35,-0.78 -0.21,-0.27 -0.46,-0.48 -0.75,-0.63 -0.3,-0.15 -0.63,-0.23 -1,-0.23 -0.83,0 -1.47,0.33 -1.91,0.99 -0.34,0.49 -0.51,1.26 -0.51,2.31 0,1.3 0.2,2.19 0.6,2.68 0.4,0.48 0.96,0.72 1.69,0.72 0.7,0 1.23,-0.2 1.59,-0.59 0.36,-0.39 0.62,-0.95 0.78,-1.69z"/>
   <polygon id="33" fill="#2A427B" fill-rule="nonzero" points="382.32,230.9 385.83,230.9 385.83,234.16 382.32,234.16 "/>
   <path fill="#2A427B" fill-rule="nonzero" d="M19.01 201.4l7.33 2.29c-0.49,2.13 -1.26,3.91 -2.33,5.33 -1.06,1.44 -2.37,2.51 -3.94,3.24 -1.57,0.72 -3.57,1.09 -5.99,1.09 -2.95,0 -5.35,-0.45 -7.22,-1.33 -1.87,-0.89 -3.47,-2.45 -4.83,-4.67 -1.35,-2.23 -2.03,-5.09 -2.03,-8.57 0,-4.63 1.19,-8.2 3.57,-10.69 2.39,-2.49 5.76,-3.74 10.12,-3.74 3.41,0 6.09,0.71 8.04,2.14 1.95,1.43 3.4,3.63 4.35,6.59l-7.37 1.69c-0.26,-0.85 -0.53,-1.47 -0.82,-1.86 -0.47,-0.66 -1.04,-1.17 -1.71,-1.52 -0.69,-0.36 -1.44,-0.54 -2.28,-0.54 -1.9,0 -3.36,0.79 -4.36,2.37 -0.77,1.17 -1.15,3.01 -1.15,5.51 0,3.11 0.45,5.23 1.37,6.39 0.91,1.15 2.19,1.72 3.84,1.72 1.6,0 2.81,-0.46 3.63,-1.39 0.82,-0.93 1.41,-2.28 1.78,-4.05z"/>
   <path id="1" fill="#2A427B" fill-rule="nonzero" d="M29.32 198.87c0,-4.58 1.23,-8.15 3.69,-10.69 2.47,-2.56 5.89,-3.83 10.29,-3.83 4.51,0 7.98,1.25 10.41,3.76 2.44,2.5 3.66,6.02 3.66,10.53 0,3.28 -0.53,5.96 -1.6,8.06 -1.06,2.1 -2.6,3.73 -4.61,4.9 -2.02,1.17 -4.53,1.75 -7.53,1.75 -3.05,0 -5.58,-0.5 -7.58,-1.51 -2,-1.01 -3.62,-2.61 -4.86,-4.79 -1.24,-2.17 -1.87,-4.9 -1.87,-8.18zm8.36 0.02c0,2.83 0.51,4.86 1.52,6.1 1.02,1.23 2.41,1.85 4.16,1.85 1.79,0 3.19,-0.6 4.17,-1.81 0.99,-1.22 1.48,-3.39 1.48,-6.53 0,-2.64 -0.51,-4.56 -1.54,-5.78 -1.03,-1.22 -2.42,-1.83 -4.19,-1.83 -1.69,0 -3.05,0.62 -4.07,1.86 -1.02,1.23 -1.53,3.28 -1.53,6.14z"/>
   <polygon id="2" fill="#2A427B" fill-rule="nonzero" points="61.94,184.82 69.75,184.82 79.89,200.31 79.89,184.82 87.79,184.82 87.79,212.88 79.89,212.88 69.8,197.47 69.8,212.88 61.94,212.88 "/>
   <polygon id="3" fill="#2A427B" fill-rule="nonzero" points="93.39,184.82 114.06,184.82 114.06,190.85 101.78,190.85 101.78,195.75 112.29,195.75 112.29,201.44 101.78,201.44 101.78,212.88 93.39,212.88 "/>
   <polygon id="4" fill="#2A427B" fill-rule="nonzero" points="118.9,184.82 127.29,184.82 127.29,212.88 118.9,212.88 "/>
   <path id="5" fill="#2A427B" fill-rule="nonzero" d="M149.92 208.25l-9.47 0 -1.37 4.63 -8.53 0 10.18 -28.06 9.16 0 10.14 28.06 -8.76 0 -1.35 -4.63zm-1.77 -6.07l-2.96 -10.08 -2.96 10.08 5.92 0z"/>
   <polygon id="6" fill="#2A427B" fill-rule="nonzero" points="162.75,184.82 170.55,184.82 180.7,200.31 180.7,184.82 188.6,184.82 188.6,212.88 180.7,212.88 170.61,197.47 170.61,212.88 162.75,212.88 "/>
   <polygon id="7" fill="#2A427B" fill-rule="nonzero" points="193.51,184.82 217.14,184.82 217.14,190.43 201.97,206.84 217.7,206.84 217.7,212.88 192.04,212.88 192.04,207.05 207.05,190.82 193.51,190.82 "/>
   <path id="8" fill="#2A427B" fill-rule="nonzero" d="M238.1 208.25l-9.48 0 -1.36 4.63 -8.53 0 10.18 -28.06 9.16 0 10.14 28.06 -8.76 0 -1.35 -4.63zm-1.77 -6.07l-2.96 -10.08 -2.96 10.08 5.92 0z"/>
   <polygon fill="#2A427B" fill-rule="nonzero" points="298.71,185.29 307.45,185.29 313.55,205.49 319.55,185.29 328.04,185.29 317.99,213.35 308.93,213.35 "/>
   <polygon id="1" fill="#2A427B" fill-rule="nonzero" points="331.1,185.29 339.49,185.29 339.49,213.35 331.1,213.35 "/>
   <path id="2" fill="#2A427B" fill-rule="nonzero" d="M345.58 185.29l12.43 0c2.44,0 4.43,0.35 5.93,1.03 1.51,0.69 2.76,1.68 3.74,2.97 0.99,1.29 1.7,2.79 2.14,4.5 0.45,1.71 0.67,3.52 0.67,5.43 0,3 -0.33,5.32 -0.99,6.98 -0.66,1.65 -1.57,3.03 -2.74,4.15 -1.17,1.12 -2.43,1.86 -3.77,2.23 -1.83,0.51 -3.5,0.77 -4.98,0.77l-12.43 0 0 -28.06zm8.35 6.35l0 15.32 2.06 0c1.75,0 2.99,-0.2 3.74,-0.6 0.73,-0.4 1.31,-1.1 1.74,-2.1 0.42,-1.01 0.63,-2.63 0.63,-4.88 0,-2.97 -0.47,-5 -1.41,-6.1 -0.94,-1.09 -2.49,-1.64 -4.67,-1.64l-2.09 0z"/>
   <path id="3" fill="#2A427B" fill-rule="nonzero" d="M389.89 208.72l-9.47 0 -1.37 4.63 -8.53 0 10.18 -28.06 9.16 0 10.14 28.06 -8.76 0 -1.35 -4.63zm-1.77 -6.07l-2.96 -10.08 -2.96 10.08 5.92 0z"/>
   <polygon fill="#07ACEE" points="237.63,161.21 331.87,1.52 243.94,105.71 213.85,61.38 174.57,61.38 "/>
   <polygon fill="url(#id0)" points="331.87,1.52 237.63,161.21 373.18,1.52 "/>
  </g>
 </g>
</svg>
