<?xml version="1.0" encoding="UTF-8"?>
<!DOCTYPE svg PUBLIC "-//W3C//DTD SVG 1.1//EN" "http://www.w3.org/Graphics/SVG/1.1/DTD/svg11.dtd">
<!-- Creator: CorelDRAW 2018 (64 Bit Versión de evaluación) -->
<svg xmlns="http://www.w3.org/2000/svg" xml:space="preserve" width="30.9032mm" height="5.5032mm" version="1.1" style="shape-rendering:geometricPrecision; text-rendering:geometricPrecision; image-rendering:optimizeQuality; fill-rule:evenodd; clip-rule:evenodd"
viewBox="0 0 3090.32 550.32"
 xmlns:xlink="http://www.w3.org/1999/xlink"
 xmlns:xodm="http://www.corel.com/coreldraw/odm/2003">
 <defs>
  <style type="text/css">
   <![CDATA[
    .fil0 {fill:none}
    .fil1 {fill:rgba(255,255,255,0.5)}
    .fil2 {fill:rgba(255,255,255,0.5);fill-rule:nonzero}
   ]]>
  </style>
 </defs>
 <g id="Capa_x0020_1">
  <metadata id="CorelCorpID_0Corel-Layer"/>
  <rect class="fil0" x="0.01" y="0" width="3090.27" height="550.32"/>
  <g id="_1362252173008">
   <g>
    <path class="fil1" d="M2321.9 200.63c-15,11.59 -31.31,12.95 -27.67,43.63 5.51,46.92 61.36,52.38 95.28,42.83 21.14,-5.91 28.98,-16.41 37.1,-36.75 15.06,-1.48 16.99,-2.1 28.47,-9.71l1.42 -22.16c-36.65,15.34 -19.49,8.24 -54.37,0.57 -41.65,-9.15 -37.73,19.2 -37.9,29.88l16.53 -7.5c-9.66,43.57 -53.86,13.47 -36.93,-13.69 5,-7.95 17.1,-7.44 25.62,-10.74l-1.87 -27.9c-35.74,-2.95 -15.34,-43.58 7.1,-27.55 6.59,4.66 3.47,8.64 10.34,16.59l41.82 -6.54c-14.89,-59.65 -109.32,-49.03 -121.99,-15.45 -8.92,23.69 3.81,38.07 17.05,44.49l0 0z"/>
    <path class="fil2" d="M939.69 395.9l-23.58 0 -3.41 10.96 -21.25 0 25.34 -66.7 22.78 0 25.29 66.7 -21.82 0 -3.35 -10.96zm-4.43 -14.49l-7.33 -23.98 -7.39 23.98 14.72 0z"/>
    <path id="_1" class="fil2" d="M966.9 393.45l18.52 -1.64c0.74,2.16 1.82,3.69 3.19,4.66 1.41,0.91 3.23,1.36 5.56,1.36 2.5,0 4.44,-0.51 5.8,-1.59 1.08,-0.8 1.65,-1.76 1.65,-2.96 0,-1.3 -0.74,-2.38 -2.16,-3.12 -0.97,-0.51 -3.64,-1.14 -8.01,-1.87 -6.48,-1.14 -10.97,-2.16 -13.53,-3.13 -2.5,-0.97 -4.66,-2.61 -6.36,-4.83 -1.76,-2.33 -2.61,-4.88 -2.61,-7.84 0,-3.18 0.91,-5.91 2.78,-8.24 1.88,-2.27 4.43,-4.03 7.73,-5.17 3.29,-1.13 7.67,-1.7 13.18,-1.7 5.79,0 10.11,0.45 12.84,1.31 2.78,0.9 5.11,2.27 6.93,4.14 1.88,1.82 3.41,4.32 4.6,7.5l-17.67 1.71c-0.45,-1.54 -1.25,-2.67 -2.27,-3.41 -1.48,-0.97 -3.24,-1.48 -5.34,-1.48 -2.1,0 -3.64,0.4 -4.6,1.14 -0.97,0.74 -1.42,1.64 -1.42,2.72 0,1.2 0.62,2.05 1.82,2.68 1.19,0.62 3.86,1.13 7.95,1.64 6.25,0.68 10.85,1.71 13.86,2.9 3.02,1.25 5.35,3.07 6.99,5.34 1.59,2.33 2.39,4.88 2.39,7.61 0,2.79 -0.85,5.51 -2.56,8.18 -1.7,2.62 -4.37,4.72 -8.01,6.31 -3.64,1.53 -8.64,2.33 -14.95,2.33 -8.92,0 -15.28,-1.25 -19.03,-3.81 -3.81,-2.5 -6.19,-6.08 -7.27,-10.74l0 0z"/>
    <path id="_2" class="fil2" d="M1081.84 387.32l-37.55 0c0.34,2.95 1.13,5.17 2.44,6.65 1.82,2.1 4.21,3.12 7.1,3.12 1.88,0 3.58,-0.46 5.23,-1.36 1.02,-0.57 2.16,-1.6 3.3,-3.01l18.41 1.7c-2.79,4.83 -6.2,8.3 -10.18,10.4 -3.97,2.1 -9.71,3.18 -17.15,3.18 -6.48,0 -11.54,-0.91 -15.29,-2.73 -3.69,-1.82 -6.76,-4.66 -9.2,-8.58 -2.44,-3.97 -3.64,-8.57 -3.64,-13.92 0,-7.55 2.45,-13.69 7.33,-18.35 4.89,-4.66 11.6,-7.04 20.23,-7.04 6.99,0 12.5,1.08 16.53,3.18 4.04,2.1 7.16,5.11 9.26,9.09 2.11,3.98 3.19,9.2 3.19,15.57l0 2.1 -0.01 0zm-19.03 -8.87c-0.34,-3.63 -1.31,-6.19 -2.9,-7.72 -1.59,-1.59 -3.69,-2.33 -6.25,-2.33 -3.01,0 -5.4,1.19 -7.16,3.52 -1.13,1.48 -1.87,3.64 -2.15,6.53l18.46 0 0 0z"/>
    <path id="_3" class="fil2" d="M1087.13 393.45l18.52 -1.64c0.74,2.16 1.82,3.69 3.18,4.66 1.42,0.91 3.24,1.36 5.51,1.36 2.5,0 4.49,-0.51 5.85,-1.59 1.08,-0.8 1.59,-1.76 1.59,-2.96 0,-1.3 -0.68,-2.38 -2.1,-3.12 -0.97,-0.51 -3.69,-1.14 -8.01,-1.87 -6.48,-1.14 -11.02,-2.16 -13.52,-3.13 -2.56,-0.97 -4.66,-2.61 -6.42,-4.83 -1.71,-2.33 -2.56,-4.88 -2.56,-7.84 0,-3.18 0.91,-5.91 2.78,-8.24 1.88,-2.27 4.43,-4.03 7.73,-5.17 3.24,-1.13 7.67,-1.7 13.18,-1.7 5.79,0 10.05,0.45 12.84,1.31 2.78,0.9 5.06,2.27 6.93,4.14 1.82,1.82 3.41,4.32 4.6,7.5l-17.67 1.71c-0.45,-1.54 -1.25,-2.67 -2.33,-3.41 -1.42,-0.97 -3.18,-1.48 -5.28,-1.48 -2.1,0 -3.64,0.4 -4.6,1.14 -0.97,0.74 -1.42,1.64 -1.42,2.72 0,1.2 0.57,2.05 1.81,2.68 1.2,0.62 3.87,1.13 7.96,1.64 6.19,0.68 10.85,1.71 13.86,2.9 3.01,1.25 5.34,3.07 6.93,5.34 1.65,2.33 2.45,4.88 2.45,7.61 0,2.79 -0.85,5.51 -2.56,8.18 -1.7,2.62 -4.37,4.72 -8.01,6.31 -3.69,1.53 -8.69,2.33 -14.95,2.33 -8.92,0 -15.28,-1.25 -19.03,-3.81 -3.81,-2.5 -6.25,-6.08 -7.27,-10.74l0.01 0z"/>
    <path id="_4" class="fil2" d="M1145.59 382.83c0,-7.39 2.5,-13.47 7.5,-18.24 5.06,-4.83 11.82,-7.21 20.34,-7.21 9.77,0 17.16,2.84 22.16,8.46 3.98,4.49 5.97,10.11 5.97,16.71 0,7.44 -2.45,13.58 -7.45,18.35 -4.94,4.71 -11.81,7.1 -20.62,7.1 -7.84,0 -14.15,-1.99 -18.98,-5.91 -5.96,-4.94 -8.92,-11.31 -8.92,-19.26l0 0zm18.69 0c0,4.32 0.91,7.5 2.68,9.54 1.76,2.11 3.92,3.13 6.59,3.13 2.72,0 4.88,-1.02 6.64,-3.07 1.71,-1.99 2.56,-5.29 2.56,-9.83 0,-4.2 -0.85,-7.27 -2.61,-9.37 -1.71,-2.05 -3.87,-3.07 -6.42,-3.07 -2.73,0 -5,1.02 -6.76,3.12 -1.77,2.1 -2.68,5.29 -2.68,9.55l0 0z"/>
    <path id="_5" class="fil2" d="M1210.82 358.51l17.49 0 0 7.9c1.71,-3.47 3.47,-5.8 5.23,-7.1 1.82,-1.31 4.04,-1.93 6.65,-1.93 2.78,0 5.8,0.85 9.09,2.55l-5.8 13.18c-2.21,-0.9 -3.97,-1.36 -5.28,-1.36 -2.44,0 -4.32,1.02 -5.68,3.01 -1.94,2.84 -2.9,8.13 -2.9,15.85l0 16.25 -18.81 0 0 -48.35 0.01 0z"/>
    <path id="_6" class="fil2" d="M1308.09 387.32l-37.56 0c0.34,2.95 1.14,5.17 2.44,6.65 1.82,2.1 4.15,3.12 7.11,3.12 1.81,0 3.58,-0.46 5.22,-1.36 1.02,-0.57 2.1,-1.6 3.3,-3.01l18.41 1.7c-2.78,4.83 -6.19,8.3 -10.17,10.4 -3.98,2.1 -9.72,3.18 -17.16,3.18 -6.48,0 -11.59,-0.91 -15.28,-2.73 -3.7,-1.82 -6.76,-4.66 -9.21,-8.58 -2.44,-3.97 -3.69,-8.57 -3.69,-13.92 0,-7.55 2.44,-13.69 7.39,-18.35 4.83,-4.66 11.59,-7.04 20.22,-7.04 6.99,0 12.5,1.08 16.54,3.18 4.03,2.1 7.16,5.11 9.26,9.09 2.1,3.98 3.18,9.2 3.18,15.57l0 2.1 0 0zm-19.04 -8.87c-0.34,-3.63 -1.36,-6.19 -2.95,-7.72 -1.54,-1.59 -3.64,-2.33 -6.2,-2.33 -3.01,0 -5.39,1.19 -7.16,3.52 -1.13,1.48 -1.87,3.64 -2.15,6.53l18.46 0z"/>
    <path id="_7" class="fil2" d="M1313.31 393.45l18.58 -1.64c0.74,2.16 1.82,3.69 3.19,4.66 1.36,0.91 3.23,1.36 5.51,1.36 2.49,0 4.48,-0.51 5.85,-1.59 1.08,-0.8 1.59,-1.76 1.59,-2.96 0,-1.3 -0.68,-2.38 -2.1,-3.12 -1.03,-0.51 -3.7,-1.14 -8.02,-1.87 -6.53,-1.14 -11.02,-2.16 -13.52,-3.13 -2.56,-0.97 -4.66,-2.61 -6.42,-4.83 -1.7,-2.33 -2.56,-4.88 -2.56,-7.84 0,-3.18 0.91,-5.91 2.79,-8.24 1.87,-2.27 4.43,-4.03 7.72,-5.17 3.24,-1.13 7.67,-1.7 13.13,-1.7 5.85,0 10.11,0.45 12.89,1.31 2.79,0.9 5.06,2.27 6.94,4.14 1.82,1.82 3.35,4.32 4.6,7.5l-17.67 1.71c-0.46,-1.54 -1.25,-2.67 -2.33,-3.41 -1.42,-0.97 -3.24,-1.48 -5.29,-1.48 -2.1,0 -3.63,0.4 -4.6,1.14 -0.97,0.74 -1.48,1.64 -1.48,2.72 0,1.2 0.63,2.05 1.88,2.68 1.19,0.62 3.86,1.13 7.95,1.64 6.2,0.68 10.8,1.71 13.87,2.9 3.01,1.25 5.34,3.07 6.93,5.34 1.64,2.33 2.44,4.88 2.44,7.61 0,2.79 -0.85,5.51 -2.56,8.18 -1.7,2.62 -4.37,4.72 -8.06,6.31 -3.64,1.53 -8.64,2.33 -14.95,2.33 -8.86,0 -15.22,-1.25 -19.03,-3.81 -3.75,-2.5 -6.2,-6.08 -7.28,-10.74l0.01 0z"/>
    <path id="_8" class="fil2" d="M1400.06 358.51l19.78 0 10 32.22 9.31 -32.22 18.41 0 -19.31 51.7c-2.22,5.91 -4.44,9.83 -6.77,11.88 -3.24,2.9 -8.18,4.37 -14.83,4.37 -2.67,0 -6.81,-0.39 -12.44,-1.08l-1.48 -12.95c2.68,0.85 5.69,1.25 8.98,1.25 2.22,0 4.03,-0.51 5.34,-1.48 1.42,-0.97 2.56,-2.78 3.52,-5.28l-20.51 -48.41 0 0z"/>
    <path id="_9" class="fil2" d="M1540.4 379.59l18.24 5.45c-1.25,5.06 -3.19,9.27 -5.8,12.67 -2.67,3.41 -5.91,5.97 -9.83,7.67 -3.92,1.77 -8.86,2.62 -14.94,2.62 -7.33,0 -13.3,-1.08 -17.96,-3.13 -4.6,-2.15 -8.63,-5.85 -11.98,-11.13 -3.36,-5.29 -5.06,-12.11 -5.06,-20.4 0,-11.02 2.95,-19.49 8.86,-25.45 5.97,-5.91 14.32,-8.87 25.17,-8.87 8.53,0 15.17,1.71 20.06,5.11 4.83,3.41 8.46,8.58 10.79,15.69l-18.35 3.97c-0.62,-1.98 -1.31,-3.46 -1.99,-4.43 -1.19,-1.53 -2.61,-2.73 -4.31,-3.58 -1.65,-0.85 -3.53,-1.31 -5.63,-1.31 -4.77,0 -8.35,1.88 -10.85,5.63 -1.93,2.78 -2.9,7.16 -2.9,13.12 0,7.39 1.14,12.45 3.41,15.23 2.27,2.73 5.46,4.09 9.6,4.09 3.98,0 6.99,-1.13 8.98,-3.35 2.05,-2.22 3.52,-5.4 4.49,-9.6l0 0z"/>
    <path id="_10" class="fil2" d="M1565.17 382.83c0,-7.39 2.56,-13.47 7.56,-18.24 5,-4.83 11.76,-7.21 20.28,-7.21 9.83,0 17.16,2.84 22.16,8.46 3.98,4.49 6.03,10.11 6.03,16.71 0,7.44 -2.5,13.58 -7.51,18.35 -4.94,4.71 -11.81,7.1 -20.62,7.1 -7.78,0 -14.15,-1.99 -18.98,-5.91 -5.91,-4.94 -8.92,-11.31 -8.92,-19.26l0 0zm18.75 0c0,4.32 0.85,7.5 2.61,9.54 1.76,2.11 3.98,3.13 6.65,3.13 2.67,0 4.89,-1.02 6.59,-3.07 1.71,-1.99 2.62,-5.29 2.62,-9.83 0,-4.2 -0.91,-7.27 -2.62,-9.37 -1.76,-2.05 -3.92,-3.07 -6.47,-3.07 -2.73,0 -4.95,1.02 -6.77,3.12 -1.76,2.1 -2.61,5.29 -2.61,9.55l0 0z"/>
    <path id="_11" class="fil2" d="M1630.4 358.51l17.5 0 0 7.9c1.7,-3.47 3.46,-5.8 5.22,-7.1 1.82,-1.31 4.04,-1.93 6.65,-1.93 2.78,0 5.8,0.85 9.09,2.55l-5.79 13.18c-2.22,-0.9 -3.98,-1.36 -5.23,-1.36 -2.45,0 -4.38,1.02 -5.74,3.01 -1.93,2.84 -2.9,8.13 -2.9,15.85l0 16.25 -18.8 0 0 -48.35z"/>
    <path id="_12" class="fil2" d="M1676.08 358.51l17.55 0 0 7.9c1.71,-3.47 3.41,-5.8 5.23,-7.1 1.76,-1.31 3.98,-1.93 6.65,-1.93 2.78,0 5.79,0.85 9.09,2.55l-5.8 13.18c-2.21,-0.9 -3.97,-1.36 -5.28,-1.36 -2.45,0 -4.38,1.02 -5.68,3.01 -1.94,2.84 -2.96,8.13 -2.96,15.85l0 16.25 -18.81 0 0 -48.35 0.01 0z"/>
    <path id="_13" class="fil2" d="M1773.35 387.32l-37.5 0c0.34,2.95 1.13,5.17 2.44,6.65 1.76,2.1 4.15,3.12 7.05,3.12 1.87,0 3.63,-0.46 5.28,-1.36 1.02,-0.57 2.1,-1.6 3.3,-3.01l18.41 1.7c-2.79,4.83 -6.2,8.3 -10.23,10.4 -3.98,2.1 -9.66,3.18 -17.1,3.18 -6.54,0 -11.59,-0.91 -15.29,-2.73 -3.69,-1.82 -6.76,-4.66 -9.2,-8.58 -2.44,-3.97 -3.69,-8.57 -3.69,-13.92 0,-7.55 2.44,-13.69 7.33,-18.35 4.88,-4.66 11.64,-7.04 20.28,-7.04 6.99,0 12.44,1.08 16.53,3.18 4.04,2.1 7.1,5.11 9.26,9.09 2.11,3.98 3.13,9.2 3.13,15.57l0 2.1 0 0zm-18.98 -8.87c-0.34,-3.63 -1.36,-6.19 -2.95,-7.72 -1.6,-1.59 -3.64,-2.33 -6.25,-2.33 -2.96,0 -5.34,1.19 -7.1,3.52 -1.14,1.48 -1.88,3.64 -2.16,6.53l18.46 0 0 0z"/>
    <path id="_14" class="fil2" d="M1833.29 340.16l0 66.7 -17.5 0 0 -7.16c-2.44,3.07 -4.72,5.12 -6.76,6.2 -2.67,1.42 -5.68,2.1 -8.98,2.1 -6.65,0 -11.7,-2.5 -15.23,-7.5 -3.46,-5.06 -5.22,-11.14 -5.22,-18.3 0,-8.01 1.93,-14.2 5.79,-18.41 3.87,-4.26 8.75,-6.42 14.78,-6.42 2.89,0 5.51,0.51 7.89,1.48 2.39,0.96 4.49,2.38 6.31,4.32l0 -23.01 18.92 0 0 0zm-18.75 42.33c0,-3.81 -0.85,-6.65 -2.45,-8.53 -1.59,-1.87 -3.69,-2.78 -6.13,-2.78 -2.16,0 -3.98,0.91 -5.46,2.73 -1.47,1.76 -2.21,4.77 -2.21,9.03 0,3.92 0.74,6.82 2.27,8.7 1.53,1.81 3.41,2.78 5.62,2.78 2.39,0 4.38,-0.97 5.97,-2.78 1.59,-1.88 2.38,-4.95 2.38,-9.15l0.01 0z"/>
    <path id="_15" class="fil2" d="M1842.44 382.83c0,-7.39 2.49,-13.47 7.5,-18.24 5.05,-4.83 11.81,-7.21 20.34,-7.21 9.77,0 17.1,2.84 22.1,8.46 4.03,4.49 6.02,10.11 6.02,16.71 0,7.44 -2.5,13.58 -7.44,18.35 -5,4.71 -11.88,7.1 -20.63,7.1 -7.84,0 -14.2,-1.99 -18.97,-5.91 -5.97,-4.94 -8.92,-11.31 -8.92,-19.26l0 0zm18.69 0c0,4.32 0.91,7.5 2.67,9.54 1.7,2.11 3.92,3.13 6.59,3.13 2.67,0 4.89,-1.02 6.59,-3.07 1.76,-1.99 2.61,-5.29 2.61,-9.83 0,-4.2 -0.85,-7.27 -2.61,-9.37 -1.76,-2.05 -3.86,-3.07 -6.48,-3.07 -2.72,0 -4.94,1.02 -6.7,3.12 -1.76,2.1 -2.67,5.29 -2.67,9.55l0 0z"/>
    <path id="_16" class="fil2" d="M1907.6 358.51l17.55 0 0 7.9c1.71,-3.47 3.41,-5.8 5.23,-7.1 1.76,-1.31 3.98,-1.93 6.65,-1.93 2.78,0 5.79,0.85 9.03,2.55l-5.8 13.18c-2.21,-0.9 -3.92,-1.36 -5.22,-1.36 -2.45,0 -4.38,1.02 -5.74,3.01 -1.87,2.84 -2.9,8.13 -2.9,15.85l0 16.25 -18.79 0 0 -48.35 -0.01 0z"/>
    <path id="_17" class="fil2" d="M2004.87 387.32l-37.5 0c0.34,2.95 1.13,5.17 2.44,6.65 1.76,2.1 4.15,3.12 7.04,3.12 1.88,0 3.64,-0.46 5.29,-1.36 1.02,-0.57 2.1,-1.6 3.24,-3.01l18.46 1.7c-2.84,4.83 -6.25,8.3 -10.23,10.4 -3.97,2.1 -9.65,3.18 -17.1,3.18 -6.53,0 -11.59,-0.91 -15.28,-2.73 -3.69,-1.82 -6.76,-4.66 -9.2,-8.58 -2.45,-3.97 -3.7,-8.57 -3.7,-13.92 0,-7.55 2.45,-13.69 7.33,-18.35 4.89,-4.66 11.65,-7.04 20.23,-7.04 7.04,0 12.5,1.08 16.59,3.18 4.03,2.1 7.1,5.11 9.2,9.09 2.16,3.98 3.19,9.2 3.19,15.57l0 2.1 0 0zm-18.98 -8.87c-0.4,-3.63 -1.37,-6.19 -2.96,-7.72 -1.59,-1.59 -3.63,-2.33 -6.25,-2.33 -2.95,0 -5.34,1.19 -7.1,3.52 -1.13,1.48 -1.87,3.64 -2.21,6.53l18.52 0z"/>
    <path id="_18" class="fil2" d="M2010.15 393.45l18.52 -1.64c0.79,2.16 1.82,3.69 3.24,4.66 1.36,0.91 3.18,1.36 5.51,1.36 2.5,0 4.43,-0.51 5.79,-1.59 1.14,-0.8 1.65,-1.76 1.65,-2.96 0,-1.3 -0.68,-2.38 -2.1,-3.12 -1.02,-0.51 -3.7,-1.14 -8.07,-1.87 -6.48,-1.14 -10.96,-2.16 -13.52,-3.13 -2.5,-0.97 -4.6,-2.61 -6.36,-4.83 -1.71,-2.33 -2.62,-4.88 -2.62,-7.84 0,-3.18 0.97,-5.91 2.84,-8.24 1.82,-2.27 4.44,-4.03 7.67,-5.17 3.3,-1.13 7.67,-1.7 13.18,-1.7 5.8,0 10.12,0.45 12.85,1.31 2.78,0.9 5.11,2.27 6.93,4.14 1.87,1.82 3.41,4.32 4.66,7.5l-17.73 1.71c-0.45,-1.54 -1.19,-2.67 -2.27,-3.41 -1.48,-0.97 -3.24,-1.48 -5.34,-1.48 -2.1,0 -3.64,0.4 -4.55,1.14 -0.96,0.74 -1.48,1.64 -1.48,2.72 0,1.2 0.63,2.05 1.82,2.68 1.2,0.62 3.87,1.13 7.96,1.64 6.25,0.68 10.85,1.71 13.92,2.9 3.01,1.25 5.34,3.07 6.93,5.34 1.59,2.33 2.38,4.88 2.38,7.61 0,2.79 -0.85,5.51 -2.55,8.18 -1.71,2.62 -4.38,4.72 -8.02,6.31 -3.63,1.53 -8.63,2.33 -14.94,2.33 -8.92,0 -15.28,-1.25 -19.03,-3.81 -3.81,-2.5 -6.2,-6.08 -7.28,-10.74l0.01 0z"/>
    <path id="_19" class="fil2" d="M2153.67 340.16l0 66.7 -17.56 0 0 -7.16c-2.44,3.07 -4.72,5.12 -6.7,6.2 -2.68,1.42 -5.69,2.1 -8.98,2.1 -6.65,0 -11.76,-2.5 -15.23,-7.5 -3.52,-5.06 -5.28,-11.14 -5.28,-18.3 0,-8.01 1.93,-14.2 5.79,-18.41 3.92,-4.26 8.81,-6.42 14.78,-6.42 2.89,0 5.56,0.51 7.95,1.48 2.33,0.96 4.43,2.38 6.31,4.32l0 -23.01 18.92 0 0 0zm-18.81 42.33c0,-3.81 -0.79,-6.65 -2.44,-8.53 -1.59,-1.87 -3.64,-2.78 -6.14,-2.78 -2.16,0 -3.98,0.91 -5.46,2.73 -1.41,1.76 -2.15,4.77 -2.15,9.03 0,3.92 0.74,6.82 2.27,8.7 1.48,1.81 3.35,2.78 5.57,2.78 2.38,0 4.37,-0.97 5.96,-2.78 1.59,-1.88 2.39,-4.95 2.39,-9.15l0 0z"/>
    <path id="_20" class="fil2" d="M2219.23 387.32l-37.55 0c0.34,2.95 1.13,5.17 2.44,6.65 1.82,2.1 4.15,3.12 7.1,3.12 1.82,0 3.58,-0.46 5.23,-1.36 1.02,-0.57 2.16,-1.6 3.3,-3.01l18.41 1.7c-2.79,4.83 -6.2,8.3 -10.17,10.4 -3.98,2.1 -9.72,3.18 -17.16,3.18 -6.48,0 -11.59,-0.91 -15.29,-2.73 -3.69,-1.82 -6.76,-4.66 -9.2,-8.58 -2.44,-3.97 -3.69,-8.57 -3.69,-13.92 0,-7.55 2.44,-13.69 7.38,-18.35 4.89,-4.66 11.6,-7.04 20.23,-7.04 6.99,0 12.5,1.08 16.53,3.18 4.04,2.1 7.16,5.11 9.27,9.09 2.1,3.98 3.18,9.2 3.18,15.57l0 2.1 -0.01 0zm-19.03 -8.87c-0.34,-3.63 -1.36,-6.19 -2.96,-7.72 -1.53,-1.59 -3.63,-2.33 -6.19,-2.33 -3.01,0 -5.4,1.19 -7.16,3.52 -1.13,1.48 -1.87,3.64 -2.16,6.53l18.47 0z"/>
    <path id="_21" class="fil2" d="M2256.79 384.82l19.77 -1.25c0.4,3.18 1.31,5.62 2.62,7.27 2.15,2.67 5.17,4.04 9.2,4.04 2.95,0 5.23,-0.69 6.82,-2.11 1.64,-1.36 2.44,-2.95 2.44,-4.77 0,-1.71 -0.79,-3.3 -2.27,-4.66 -1.53,-1.36 -5.06,-2.61 -10.63,-3.86 -9.14,-2.05 -15.62,-4.72 -19.54,-8.07 -3.92,-3.41 -5.85,-7.67 -5.85,-12.9 0,-3.41 0.96,-6.65 3.01,-9.66 1.99,-3.07 5,-5.45 9.03,-7.21 4.04,-1.76 9.55,-2.62 16.53,-2.62 8.64,0 15.17,1.6 19.72,4.78 4.49,3.18 7.16,8.23 8.07,15.17l-19.6 1.13c-0.52,-3.07 -1.6,-5.22 -3.3,-6.59 -1.65,-1.42 -3.98,-2.1 -6.87,-2.1 -2.45,0 -4.26,0.51 -5.51,1.53 -1.2,1.03 -1.82,2.28 -1.82,3.7 0,1.08 0.51,2.04 1.53,2.89 0.91,0.86 3.24,1.65 6.93,2.45 9.09,1.93 15.57,3.92 19.49,5.91 3.92,1.99 6.82,4.43 8.64,7.38 1.76,2.96 2.67,6.25 2.67,9.89 0,4.26 -1.2,8.18 -3.58,11.82 -2.39,3.63 -5.74,6.36 -10,8.24 -4.32,1.87 -9.72,2.78 -16.25,2.78 -11.42,0 -19.38,-2.22 -23.75,-6.54 -4.43,-4.37 -6.93,-9.94 -7.5,-16.64l0 0z"/>
    <path id="_22" class="fil2" d="M2381.27 387.32l-37.55 0c0.34,2.95 1.13,5.17 2.44,6.65 1.82,2.1 4.21,3.12 7.1,3.12 1.88,0 3.64,-0.46 5.29,-1.36 0.96,-0.57 2.1,-1.6 3.24,-3.01l18.46 1.7c-2.84,4.83 -6.25,8.3 -10.23,10.4 -3.97,2.1 -9.71,3.18 -17.15,3.18 -6.48,0 -11.54,-0.91 -15.29,-2.73 -3.69,-1.82 -6.76,-4.66 -9.2,-8.58 -2.44,-3.97 -3.64,-8.57 -3.64,-13.92 0,-7.55 2.45,-13.69 7.33,-18.35 4.89,-4.66 11.65,-7.04 20.23,-7.04 6.99,0 12.5,1.08 16.53,3.18 4.09,2.1 7.16,5.11 9.26,9.09 2.16,3.98 3.19,9.2 3.19,15.57l0 2.1 -0.01 0zm-19.03 -8.87c-0.34,-3.63 -1.31,-6.19 -2.9,-7.72 -1.59,-1.59 -3.63,-2.33 -6.24,-2.33 -2.96,0 -5.34,1.19 -7.16,3.52 -1.14,1.48 -1.82,3.64 -2.16,6.53l18.46 0 0 0z"/>
    <path id="_23" class="fil2" d="M2426.16 358.51l17.44 0 0 45.63 0.06 2.15c0,3.01 -0.63,5.91 -1.93,8.7 -1.31,2.72 -3.02,4.94 -5.18,6.64 -2.15,1.71 -4.94,2.9 -8.23,3.7 -3.36,0.74 -7.1,1.13 -11.42,1.13 -9.83,0 -16.54,-1.47 -20.17,-4.37 -3.7,-2.9 -5.51,-6.82 -5.51,-11.7 0,-0.63 0.05,-1.48 0.11,-2.5l18.12 2.04c0.46,1.71 1.2,2.84 2.16,3.47 1.37,0.97 3.07,1.42 5.17,1.42 2.67,0 4.72,-0.74 6.03,-2.16 1.36,-1.42 1.99,-3.86 1.99,-7.39l0 -7.33c-1.82,2.16 -3.64,3.75 -5.46,4.72 -2.9,1.53 -6.02,2.27 -9.37,2.27 -6.54,0 -11.77,-2.84 -15.8,-8.46 -2.84,-4.04 -4.26,-9.32 -4.26,-15.91 0,-7.56 1.82,-13.3 5.51,-17.27 3.69,-3.92 8.47,-5.91 14.43,-5.91 3.81,0 6.93,0.62 9.38,1.93 2.44,1.25 4.77,3.35 6.93,6.31l0 -7.1 0 -0.01zm-17.61 23.41c0,3.52 0.73,6.08 2.27,7.78 1.48,1.71 3.46,2.56 5.91,2.56 2.33,0 4.26,-0.85 5.85,-2.61 1.59,-1.76 2.38,-4.43 2.38,-7.96 0,-3.52 -0.85,-6.19 -2.49,-8.06 -1.65,-1.88 -3.7,-2.79 -6.08,-2.79 -2.39,0 -4.26,0.86 -5.74,2.56 -1.42,1.71 -2.1,4.55 -2.1,8.52l0 0z"/>
    <path id="_24" class="fil2" d="M2506.26 406.86l-17.44 0 0 -7.78c-2.62,3.24 -5.23,5.51 -7.9,6.87 -2.62,1.37 -5.85,2.05 -9.71,2.05 -5.17,0 -9.14,-1.53 -12.1,-4.6 -2.9,-3.01 -4.37,-7.73 -4.37,-14.09l0 -30.8 18.8 0 0 26.65c0,3.01 0.56,5.17 1.7,6.48 1.13,1.3 2.73,1.93 4.71,1.93 2.22,0 4.04,-0.85 5.51,-2.56 1.37,-1.7 2.11,-4.77 2.11,-9.2l0 -23.3 18.69 0 0 48.35z"/>
    <path id="_25" class="fil2" d="M2517.85 358.51l17.5 0 0 7.9c1.71,-3.47 3.47,-5.8 5.23,-7.1 1.82,-1.31 4.03,-1.93 6.65,-1.93 2.78,0 5.79,0.85 9.09,2.55l-5.8 13.18c-2.22,-0.9 -3.98,-1.36 -5.23,-1.36 -2.44,0 -4.37,1.02 -5.73,3.01 -1.94,2.84 -2.9,8.13 -2.9,15.85l0 16.25 -18.81 0 0 -48.35z"/>
    <path id="_26" class="fil2" d="M2558.7 382.83c0,-7.39 2.5,-13.47 7.5,-18.24 5,-4.83 11.77,-7.21 20.34,-7.21 9.78,0 17.11,2.84 22.11,8.46 3.97,4.49 6.02,10.11 6.02,16.71 0,7.44 -2.5,13.58 -7.44,18.35 -5,4.71 -11.88,7.1 -20.69,7.1 -7.78,0 -14.14,-1.99 -18.97,-5.91 -5.91,-4.94 -8.87,-11.31 -8.87,-19.26zm18.69 0c0,4.32 0.91,7.5 2.62,9.54 1.76,2.11 3.97,3.13 6.65,3.13 2.67,0 4.88,-1.02 6.59,-3.07 1.7,-1.99 2.61,-5.29 2.61,-9.83 0,-4.2 -0.91,-7.27 -2.61,-9.37 -1.76,-2.05 -3.92,-3.07 -6.48,-3.07 -2.73,0 -4.94,1.02 -6.7,3.12 -1.77,2.1 -2.68,5.29 -2.68,9.55l0 0z"/>
    <path id="_27" class="fil2" d="M2620.4 393.45l18.53 -1.64c0.73,2.16 1.81,3.69 3.18,4.66 1.42,0.91 3.24,1.36 5.57,1.36 2.5,0 4.43,-0.51 5.79,-1.59 1.08,-0.8 1.65,-1.76 1.65,-2.96 0,-1.3 -0.74,-2.38 -2.16,-3.12 -0.96,-0.51 -3.63,-1.14 -8.01,-1.87 -6.48,-1.14 -10.97,-2.16 -13.52,-3.13 -2.5,-0.97 -4.66,-2.61 -6.37,-4.83 -1.76,-2.33 -2.61,-4.88 -2.61,-7.84 0,-3.18 0.91,-5.91 2.78,-8.24 1.88,-2.27 4.44,-4.03 7.73,-5.17 3.3,-1.13 7.67,-1.7 13.18,-1.7 5.8,0 10.12,0.45 12.84,1.31 2.79,0.9 5.12,2.27 6.93,4.14 1.88,1.82 3.41,4.32 4.61,7.5l-17.67 1.71c-0.46,-1.54 -1.25,-2.67 -2.28,-3.41 -1.47,-0.97 -3.23,-1.48 -5.34,-1.48 -2.1,0 -3.63,0.4 -4.6,1.14 -0.97,0.74 -1.42,1.64 -1.42,2.72 0,1.2 0.63,2.05 1.82,2.68 1.19,0.62 3.86,1.13 7.95,1.64 6.25,0.68 10.86,1.71 13.87,2.9 3.07,1.25 5.34,3.07 6.99,5.34 1.59,2.33 2.38,4.88 2.38,7.61 0,2.79 -0.85,5.51 -2.56,8.18 -1.7,2.62 -4.37,4.72 -8.01,6.31 -3.63,1.53 -8.63,2.33 -14.94,2.33 -8.92,0 -15.28,-1.25 -19.04,-3.81 -3.8,-2.5 -6.19,-6.08 -7.27,-10.74l0 0z"/>
    <path id="_28" class="fil2" d="M2710.17 384.82l19.72 -1.25c0.46,3.18 1.31,5.62 2.67,7.27 2.1,2.67 5.17,4.04 9.15,4.04 3.01,0 5.28,-0.69 6.87,-2.11 1.59,-1.36 2.39,-2.95 2.39,-4.77 0,-1.71 -0.74,-3.3 -2.27,-4.66 -1.48,-1.36 -5.06,-2.61 -10.63,-3.86 -9.09,-2.05 -15.62,-4.72 -19.49,-8.07 -3.92,-3.41 -5.85,-7.67 -5.85,-12.9 0,-3.41 0.97,-6.65 3.01,-9.66 1.99,-3.07 5,-5.45 9.04,-7.21 4.03,-1.76 9.54,-2.62 16.53,-2.62 8.64,0 15.17,1.6 19.66,4.78 4.55,3.18 7.21,8.23 8.07,15.17l-19.55 1.13c-0.51,-3.07 -1.59,-5.22 -3.3,-6.59 -1.64,-1.42 -3.97,-2.1 -6.93,-2.1 -2.38,0 -4.2,0.51 -5.45,1.53 -1.2,1.03 -1.82,2.28 -1.82,3.7 0,1.08 0.51,2.04 1.48,2.89 0.96,0.86 3.29,1.65 6.93,2.45 9.09,1.93 15.62,3.92 19.54,5.91 3.93,1.99 6.82,4.43 8.58,7.38 1.82,2.96 2.68,6.25 2.68,9.89 0,4.26 -1.2,8.18 -3.53,11.82 -2.44,3.63 -5.73,6.36 -10.05,8.24 -4.26,1.87 -9.66,2.78 -16.2,2.78 -11.42,0 -19.37,-2.22 -23.8,-6.54 -4.38,-4.37 -6.88,-9.94 -7.45,-16.64z"/>
    <polygon id="_29" class="fil2" points="2780.57,388.34 2800.51,388.34 2800.51,406.86 2780.57,406.86 "/>
    <path id="_30" class="fil2" d="M2854.43 395.9l-23.58 0 -3.35 10.96 -21.25 0 25.34 -66.7 22.79 0 25.22 66.7 -21.81 0 -3.36 -10.96 0 0zm-4.37 -14.49l-7.39 -23.98 -7.39 23.98 14.78 0 0 0z"/>
    <polygon id="_31" class="fil2" points="2885.06,388.34 2905,388.34 2905,406.86 2885.06,406.86 "/>
    <path id="_32" class="fil2" d="M2962.38 379.59l18.24 5.45c-1.19,5.06 -3.12,9.27 -5.79,12.67 -2.62,3.41 -5.91,5.97 -9.83,7.67 -3.87,1.77 -8.87,2.62 -14.89,2.62 -7.33,0 -13.35,-1.08 -17.95,-3.13 -4.66,-2.15 -8.7,-5.85 -12.05,-11.13 -3.35,-5.29 -5.05,-12.11 -5.05,-20.4 0,-11.02 2.95,-19.49 8.86,-25.45 5.97,-5.91 14.37,-8.87 25.23,-8.87 8.46,0 15.11,1.71 20,5.11 4.83,3.41 8.46,8.58 10.85,15.69l-18.41 3.97c-0.63,-1.98 -1.31,-3.46 -1.99,-4.43 -1.19,-1.53 -2.61,-2.73 -4.26,-3.58 -1.7,-0.85 -3.58,-1.31 -5.68,-1.31 -4.72,0 -8.35,1.88 -10.85,5.63 -1.94,2.78 -2.9,7.16 -2.9,13.12 0,7.39 1.14,12.45 3.41,15.23 2.27,2.73 5.45,4.09 9.6,4.09 3.98,0 6.99,-1.13 9.03,-3.35 2.05,-2.22 3.53,-5.4 4.44,-9.6l-0.01 0z"/>
    <polygon id="_33" class="fil2" points="2991.19,388.34 3011.13,388.34 3011.13,406.86 2991.19,406.86 "/>
    <path class="fil2" d="M927.02 220.74l41.64 13.01c-2.78,12.1 -7.16,22.22 -13.23,30.28 -6.03,8.19 -13.47,14.25 -22.39,18.4 -8.92,4.09 -20.29,6.2 -34.04,6.2 -16.76,0 -30.39,-2.56 -41.02,-7.56 -10.62,-5.06 -19.71,-13.91 -27.44,-26.52 -7.66,-12.67 -11.52,-28.92 -11.52,-48.7 0,-26.3 6.75,-46.59 20.27,-60.73 13.58,-14.15 32.73,-21.25 57.5,-21.25 19.37,0 34.6,4.03 45.68,12.16 11.08,8.12 19.32,20.62 24.72,37.44l-41.88 9.6c-1.47,-4.83 -3.01,-8.35 -4.66,-10.57 -2.67,-3.75 -5.91,-6.65 -9.71,-8.63 -3.92,-2.05 -8.18,-3.07 -12.96,-3.07 -10.79,0 -19.09,4.49 -24.77,13.46 -4.37,6.65 -6.53,17.11 -6.53,31.31 0,17.67 2.55,29.72 7.78,36.31 5.17,6.53 12.44,9.77 21.82,9.77 9.09,0 15.96,-2.61 20.62,-7.9 4.66,-5.28 8.01,-12.95 10.12,-23.01l0 0z"/>
    <path id="_1_0" class="fil2" d="M985.59 206.37c0,-26.02 6.99,-46.31 20.97,-60.74 14.03,-14.54 33.46,-21.76 58.46,-21.76 25.63,0 45.34,7.1 59.15,21.36 13.86,14.21 20.8,34.2 20.8,59.83 0,18.63 -3.01,33.86 -9.09,45.79 -6.03,11.93 -14.78,21.2 -26.2,27.83 -11.47,6.65 -25.73,9.95 -42.78,9.95 -17.33,0 -31.7,-2.84 -43.06,-8.58 -11.37,-5.73 -20.57,-14.82 -27.62,-27.21 -7.04,-12.33 -10.62,-27.84 -10.62,-46.47l-0.01 0zm47.5 0.11c0,16.08 2.9,27.61 8.64,34.66 5.8,6.99 13.69,10.51 23.64,10.51 10.17,0 18.12,-3.41 23.69,-10.28 5.62,-6.94 8.41,-19.26 8.41,-37.1 0,-15 -2.9,-25.91 -8.75,-32.84 -5.85,-6.94 -13.75,-10.4 -23.81,-10.4 -9.6,0 -17.33,3.52 -23.12,10.56 -5.8,6.99 -8.7,18.64 -8.7,34.89z"/>
    <polygon id="_2_1" class="fil2" points="1170.93,126.54 1215.3,126.54 1272.92,214.55 1272.92,126.54 1317.8,126.54 1317.8,285.96 1272.92,285.96 1215.59,198.41 1215.59,285.96 1170.93,285.96 "/>
    <polygon id="_3_2" class="fil2" points="1349.62,126.54 1467.05,126.54 1467.05,160.8 1397.28,160.8 1397.28,188.64 1456.99,188.64 1456.99,220.97 1397.28,220.97 1397.28,285.96 1349.62,285.96 "/>
    <polygon id="_4_3" class="fil2" points="1494.55,126.54 1542.22,126.54 1542.22,285.96 1494.55,285.96 "/>
    <path id="_5_4" class="fil2" d="M1670.79 259.66l-53.8 0 -7.79 26.3 -48.46 0 57.84 -159.42 52.04 0 57.62 159.42 -49.78 0 -7.67 -26.3zm-10.05 -34.49l-16.82 -57.27 -16.82 57.27 33.64 0 0 0z"/>
    <polygon id="_6_5" class="fil2" points="1743.69,126.54 1788.01,126.54 1845.67,214.55 1845.67,126.54 1890.56,126.54 1890.56,285.96 1845.67,285.96 1788.35,198.41 1788.35,285.96 1743.69,285.96 "/>
    <polygon id="_7_6" class="fil2" points="1918.46,126.54 2052.7,126.54 2052.7,158.41 1966.51,251.65 2055.89,251.65 2055.89,285.96 1910.1,285.96 1910.1,252.84 1995.38,160.63 1918.46,160.63 "/>
    <path id="_8_7" class="fil2" d="M2171.79 259.66l-53.86 0 -7.73 26.3 -48.46 0 57.84 -159.42 52.04 0 57.61 159.42 -49.77 0 -7.67 -26.3zm-10.06 -34.49l-16.81 -57.27 -16.82 57.27 33.63 0 0 0z"/>
    <polygon class="fil2" points="2516.15,129.21 2565.8,129.21 2600.46,243.98 2634.55,129.21 2682.79,129.21 2625.69,288.63 2574.21,288.63 "/>
    <polygon id="_1_8" class="fil2" points="2700.18,129.21 2747.84,129.21 2747.84,288.63 2700.18,288.63 "/>
    <path id="_2_9" class="fil2" d="M2782.45 129.21l70.62 0c13.86,0 25.17,1.99 33.69,5.85 8.58,3.92 15.68,9.55 21.25,16.88 5.62,7.32 9.66,15.85 12.16,25.56 2.56,9.72 3.81,20 3.81,30.85 0,17.05 -1.88,30.23 -5.63,39.66 -3.75,9.38 -8.92,17.22 -15.57,23.58 -6.65,6.35 -13.8,10.56 -21.42,12.66 -10.39,2.9 -19.88,4.37 -28.29,4.37l-70.62 0 0 -159.41 0 0zm47.44 36.08l0 87.04 11.7 0c9.94,0 16.99,-1.14 21.25,-3.41 4.15,-2.27 7.44,-6.25 9.89,-11.93 2.38,-5.74 3.58,-14.94 3.58,-27.73 0,-16.87 -2.68,-28.41 -8.02,-34.66 -5.34,-6.19 -14.14,-9.31 -26.53,-9.31l-11.87 0 0 0z"/>
    <path id="_3_10" class="fil2" d="M3034.19 262.33l-53.8 0 -7.78 26.3 -48.46 0 57.84 -159.42 52.03 0 57.61 159.42 -49.77 0 -7.67 -26.3zm-10.06 -34.49l-16.8 -57.27 -16.82 57.27 33.62 0 0 0z"/>
   </g>
   <g>
    <path class="fil1" d="M360.66 479.77c-2.08,-6.69 -7.83,-16.95 -11,-23.67l-32.96 -68.19c-1.74,-2.98 -38.86,0.57 -46.09,0.69 -29.56,0.45 -119.79,1.59 -139.06,-7.36 -111.59,-51.72 -68.47,-223.91 19.72,-239.4 13.85,-2.43 180.89,-1.46 195.83,-1.14 -1.46,-5.8 -32.09,-61.01 -37.14,-69.73 -45.12,-1.09 -89.6,-0.3 -134.6,-0.77 -44.01,-0.49 -73.25,0.1 -106.61,29.66 -3.05,2.71 -6.42,4.49 -9.09,7.61l-8.33 8.33c-42.38,44.38 -59.75,119.86 -49.98,182.6 12.29,78.8 57.36,133 108.29,161.94 39.3,22.38 65.35,20.25 114.49,19.4 43.96,-0.74 92.82,-1.58 136.53,0.03l0 0z"/>
    <polygon class="fil1" points="442.91,467.65 676.44,71.94 458.54,330.12 383.98,220.27 286.64,220.27 "/>
    <polygon class="fil1" points="676.44,71.94 442.91,467.65 778.81,71.94 "/>
   </g>
  </g>
 </g>
</svg>
